<svg width="289" height="48" viewBox="0 0 289 48" fill="none" xmlns="http://www.w3.org/2000/svg">
<path fill-rule="evenodd" clip-rule="evenodd" d="M54.2247 17.87H65.7267V7.6639H52.3554V10.2185H63.1721V15.3153H54.2247C53.344 15.3153 52.5507 15.1492 51.8445 14.8169C51.1466 14.4846 50.5526 14.0318 50.0625 13.4585C49.5806 12.877 49.2068 12.1999 48.9409 11.4273C48.6834 10.6464 48.5546 9.8156 48.5546 8.93498C48.5546 8.05436 48.6834 7.22774 48.9409 6.45512C49.2068 5.6825 49.5806 5.00957 50.0625 4.43634C50.5526 3.85479 51.1466 3.39787 51.8445 3.06556C52.5507 2.72494 53.344 2.55463 54.2247 2.55463H65.7267V0H54.2247C52.9868 0 51.8611 0.236771 50.8476 0.710312C49.834 1.17555 48.9659 1.81524 48.2431 2.6294C47.5286 3.43525 46.9762 4.38234 46.5857 5.47065C46.1952 6.55066 46 7.70543 46 8.93498C46 10.1728 46.1952 11.3359 46.5857 12.4242C46.9762 13.5125 47.5286 14.4596 48.2431 15.2655C48.9659 16.0713 49.834 16.7069 50.8476 17.1721C51.8611 17.6373 52.9868 17.87 54.2247 17.87ZM78.4102 17.87H96.8908V15.3153H80.9648V2.55463H96.8908V0H78.4102V17.87ZM82.2359 10.2185H94.7224V7.6639H82.2359V10.2185ZM111.556 17.87H109.001V0H110.272C111.103 0 111.983 0.108001 112.914 0.324002C113.853 0.540003 114.808 0.851544 115.78 1.25862C116.752 1.6657 117.72 2.16001 118.684 2.74156C119.656 3.31479 120.594 3.96695 121.5 4.69803C122.406 5.42911 123.257 6.22666 124.055 7.09066C124.852 7.94636 125.567 8.86021 126.198 9.83222V0H128.753V17.87H126.198C126.198 16.5573 125.97 15.2946 125.513 14.0816C125.056 12.8604 124.445 11.7098 123.681 10.6298C122.916 9.54975 122.036 8.55698 121.039 7.65143C120.042 6.73758 118.999 5.93588 117.911 5.24634C116.831 4.5568 115.743 3.99187 114.646 3.55156C113.549 3.10294 112.519 2.80386 111.556 2.65433V17.87ZM141.984 17.87H160.465V15.3153H144.539V2.55463H160.465V0H141.984V17.87ZM145.81 10.2185H158.297V7.6639H145.81V10.2185ZM180.417 17.87H191.919V15.3153H180.417C179.536 15.3153 178.743 15.1492 178.037 14.8169C177.339 14.4846 176.745 14.0318 176.255 13.4586C175.773 12.877 175.399 12.1999 175.133 11.4273C174.876 10.6464 174.747 9.81562 174.747 8.935C174.747 8.05438 174.876 7.22775 175.133 6.45513C175.399 5.68251 175.773 5.00959 176.255 4.43635C176.745 3.85481 177.339 3.39788 178.037 3.06557C178.743 2.72496 179.536 2.55465 180.417 2.55465H191.919V1.48137e-05H180.417C179.179 1.48137e-05 178.053 0.236786 177.04 0.710327C176.026 1.17556 175.158 1.81526 174.435 2.62942C173.721 3.43527 173.168 4.38235 172.778 5.47067C172.387 6.55067 172.192 7.70545 172.192 8.935C172.192 10.1729 172.387 11.3359 172.778 12.4242C173.168 13.5126 173.721 14.4596 174.435 15.2655C175.158 16.0714 176.026 16.7069 177.04 17.1721C178.053 17.6374 179.179 17.87 180.417 17.87ZM224.479 12.4242C224.869 11.3359 225.064 10.1729 225.064 8.935C225.064 7.70545 224.869 6.55067 224.479 5.47067C224.088 4.38235 223.532 3.43527 222.809 2.62942C222.094 1.81526 221.235 1.17556 220.229 0.710327C219.224 0.236786 218.107 1.48137e-05 216.877 1.48137e-05H210.933C209.695 1.48137e-05 208.569 0.236786 207.556 0.710327C206.542 1.17556 205.674 1.81526 204.951 2.62942C204.237 3.43527 203.684 4.38235 203.294 5.47067C202.904 6.55067 202.708 7.70545 202.708 8.935C202.708 10.1729 202.904 11.3359 203.294 12.4242C203.684 13.5126 204.237 14.4596 204.951 15.2655C205.674 16.0714 206.542 16.7069 207.556 17.1721C208.569 17.6374 209.695 17.87 210.933 17.87H216.877C218.107 17.87 219.224 17.6374 220.229 17.1721C221.235 16.7069 222.094 16.0714 222.809 15.2655C223.532 14.4596 224.088 13.5126 224.479 12.4242ZM222.123 6.45513C222.381 7.22775 222.51 8.05438 222.51 8.935C222.51 9.81562 222.381 10.6464 222.123 11.4273C221.866 12.1999 221.492 12.877 221.002 13.4586C220.52 14.0318 219.93 14.4846 219.232 14.8169C218.543 15.1492 217.758 15.3153 216.877 15.3153H210.933C210.052 15.3153 209.259 15.1492 208.553 14.8169C207.855 14.4846 207.261 14.0318 206.771 13.4586C206.289 12.877 205.915 12.1999 205.649 11.4273C205.392 10.6464 205.263 9.81562 205.263 8.935C205.263 8.05438 205.392 7.22775 205.649 6.45513C205.915 5.68251 206.289 5.00959 206.771 4.43635C207.261 3.85481 207.855 3.39788 208.553 3.06557C209.259 2.72496 210.052 2.55465 210.933 2.55465H216.877C217.758 2.55465 218.543 2.72496 219.232 3.06557C219.93 3.39788 220.52 3.85481 221.002 4.43635C221.492 5.00959 221.866 5.68251 222.123 6.45513ZM258.322 8.935C258.322 10.1729 258.123 11.3359 257.724 12.4242C257.333 13.5126 256.777 14.4596 256.054 15.2655C255.331 16.0714 254.463 16.7069 253.449 17.1721C252.444 17.6374 251.327 17.87 250.097 17.87H241.088V15.3153H250.097C250.978 15.3153 251.767 15.1492 252.465 14.8169C253.171 14.4846 253.765 14.0318 254.247 13.4586C254.737 12.877 255.111 12.1999 255.369 11.4273C255.634 10.6464 255.767 9.81562 255.767 8.935C255.767 8.05438 255.634 7.22775 255.369 6.45513C255.111 5.68251 254.737 5.00959 254.247 4.43635C253.765 3.85481 253.171 3.39788 252.465 3.06557C251.767 2.72496 250.978 2.55465 250.097 2.55465H239.816V17.87H237.262V1.48137e-05H250.097C251.327 1.48137e-05 252.444 0.236786 253.449 0.710327C254.463 1.17556 255.331 1.81526 256.054 2.62942C256.777 3.43527 257.333 4.38235 257.724 5.47067C258.123 6.55067 258.322 7.70545 258.322 8.935ZM270.519 17.87H289V15.3153H273.074V2.55465H289V1.48137e-05H270.519V17.87ZM274.345 10.2185H286.832V7.66391H274.345V10.2185Z" fill="#3B66A8"/>
<path d="M67.7405 42.8861C66.9012 42.8861 66.1343 42.7558 65.4398 42.4954C64.7453 42.2205 64.1448 41.8226 63.6383 41.3017C63.1319 40.7808 62.734 40.1586 62.4446 39.4351C62.1697 38.6971 62.0322 37.8724 62.0322 36.9608C62.0322 35.8032 62.2637 34.8048 62.7268 33.9656C63.2043 33.1119 63.8482 32.4535 64.6584 31.9905C65.4832 31.5275 66.402 31.296 67.4149 31.296C67.9792 31.296 68.5146 31.39 69.021 31.5781C69.5419 31.7662 70.0049 32.0267 70.4101 32.3595C70.8152 32.6923 71.1336 33.083 71.3651 33.5315H71.4085V26.7815H73.4053V37.0259C73.4053 38.2558 73.1521 39.3121 72.6456 40.1947C72.1537 41.0629 71.4808 41.7285 70.6271 42.1915C69.7879 42.6546 68.8257 42.8861 67.7405 42.8861ZM67.7405 41.1714C68.4205 41.1714 69.0355 41.005 69.5853 40.6722C70.1352 40.3394 70.5692 39.8692 70.8876 39.2615C71.2204 38.6537 71.3868 37.9375 71.3868 37.1127C71.3868 36.2735 71.2204 35.55 70.8876 34.9423C70.5692 34.3201 70.1352 33.8426 69.5853 33.5098C69.0355 33.177 68.4133 33.0106 67.7187 33.0106C67.0387 33.0106 66.4165 33.1843 65.8522 33.5315C65.3023 33.8788 64.861 34.3563 64.5282 34.964C64.2099 35.5717 64.0507 36.2807 64.0507 37.091C64.0507 37.9303 64.2171 38.6537 64.5499 39.2615C64.8827 39.8692 65.324 40.3394 65.8739 40.6722C66.4382 41.005 67.0604 41.1714 67.7405 41.1714Z" fill="#68A4FF"/>
<path d="M86.2688 42.6256V31.5564H88.2873V42.6256H86.2688ZM87.2889 29.7984C86.9272 29.7984 86.6088 29.6682 86.3339 29.4077C86.0735 29.1328 85.9432 28.8145 85.9432 28.4527C85.9432 28.091 86.0735 27.7799 86.3339 27.5194C86.6088 27.2445 86.9272 27.1071 87.2889 27.1071C87.6506 27.1071 87.9617 27.2445 88.2222 27.5194C88.4971 27.7799 88.6346 28.091 88.6346 28.4527C88.6346 28.8145 88.4971 29.1328 88.2222 29.4077C87.9617 29.6682 87.6506 29.7984 87.2889 29.7984Z" fill="#68A4FF"/>
<path d="M105.809 42.8861C104.738 42.8861 103.812 42.6329 103.031 42.1264C102.249 41.6055 101.649 40.9037 101.229 40.0211C100.81 39.1385 100.6 38.1618 100.6 37.091C100.6 36.0058 100.831 35.0291 101.294 34.161C101.757 33.2783 102.423 32.5838 103.291 32.0773C104.159 31.5564 105.201 31.296 106.416 31.296C107.589 31.296 108.594 31.5492 109.433 32.0556C110.273 32.5621 110.916 33.2494 111.365 34.1175C111.828 34.9857 112.06 35.9552 112.06 37.0259V42.6256H110.041V40.3684H109.998C109.781 40.788 109.484 41.1931 109.108 41.5838C108.746 41.96 108.29 42.2711 107.74 42.5171C107.191 42.7631 106.547 42.8861 105.809 42.8861ZM106.33 41.1714C107.053 41.1714 107.69 40.9978 108.24 40.6505C108.804 40.2888 109.238 39.7968 109.542 39.1746C109.86 38.538 110.019 37.829 110.019 37.0476C110.019 36.2807 109.867 35.5934 109.564 34.9857C109.274 34.378 108.855 33.9005 108.305 33.5532C107.755 33.1915 107.111 33.0106 106.373 33.0106C105.592 33.0106 104.919 33.1915 104.355 33.5532C103.805 33.915 103.378 34.4069 103.074 35.0291C102.785 35.6368 102.64 36.3314 102.64 37.1127C102.64 37.8651 102.785 38.5525 103.074 39.1746C103.363 39.7824 103.783 40.2671 104.333 40.6288C104.883 40.9906 105.548 41.1714 106.33 41.1714Z" fill="#68A4FF"/>
<path d="M126.677 47.0316V45.317H132.103C132.639 45.317 133.051 45.1578 133.34 44.8395C133.644 44.5211 133.796 44.1015 133.796 43.5806V40.542H133.753C133.478 40.9616 133.145 41.3378 132.754 41.6706C132.364 42.0034 131.915 42.2711 131.409 42.4737C130.902 42.6618 130.331 42.7558 129.694 42.7558C128.652 42.7558 127.733 42.5171 126.938 42.0396C126.142 41.5476 125.52 40.8748 125.071 40.0211C124.622 39.1529 124.398 38.1618 124.398 37.0476C124.398 35.9624 124.622 34.9857 125.071 34.1175C125.52 33.2494 126.163 32.5621 127.003 32.0556C127.856 31.5492 128.884 31.296 130.085 31.296C131.242 31.296 132.248 31.542 133.102 32.0339C133.955 32.5259 134.614 33.2132 135.077 34.0958C135.554 34.964 135.793 35.9841 135.793 37.1561V43.7108C135.793 44.7237 135.496 45.5268 134.903 46.12C134.31 46.7277 133.499 47.0316 132.472 47.0316H126.677ZM130.063 41.0412C130.801 41.0412 131.445 40.8676 131.995 40.5203C132.559 40.173 132.993 39.7028 133.297 39.1095C133.615 38.5018 133.774 37.8217 133.774 37.0693C133.774 36.3024 133.622 35.6151 133.319 35.0074C133.015 34.3997 132.588 33.9222 132.038 33.5749C131.488 33.2132 130.83 33.0323 130.063 33.0323C129.311 33.0323 128.659 33.2132 128.11 33.5749C127.574 33.9222 127.155 34.4069 126.851 35.0291C126.561 35.6368 126.417 36.3241 126.417 37.091C126.417 37.8145 126.561 38.4801 126.851 39.0878C127.155 39.6811 127.574 40.1586 128.11 40.5203C128.659 40.8676 129.311 41.0412 130.063 41.0412Z" fill="#68A4FF"/>
<path d="M148.656 42.6256V36.2229C148.656 35.2389 148.873 34.378 149.307 33.64C149.756 32.9021 150.371 32.3306 151.152 31.9254C151.933 31.5058 152.823 31.296 153.822 31.296C154.834 31.296 155.724 31.5058 156.491 31.9254C157.272 32.3306 157.88 32.9021 158.314 33.64C158.763 34.378 158.987 35.2389 158.987 36.2229V42.6256H156.99V36.2446C156.99 35.579 156.838 35.0074 156.535 34.5299C156.245 34.038 155.854 33.6618 155.363 33.4013C154.885 33.1408 154.371 33.0106 153.822 33.0106C153.272 33.0106 152.751 33.1408 152.259 33.4013C151.781 33.6618 151.391 34.038 151.087 34.5299C150.797 35.0074 150.653 35.579 150.653 36.2446V42.6256H148.656Z" fill="#68A4FF"/>
<path d="M177.133 42.8861C176.005 42.8861 175.006 42.6329 174.138 42.1264C173.27 41.6055 172.583 40.911 172.076 40.0428C171.57 39.1602 171.317 38.1762 171.317 37.091C171.317 36.0058 171.57 35.0291 172.076 34.161C172.583 33.2783 173.27 32.5838 174.138 32.0773C175.006 31.5564 176.005 31.296 177.133 31.296C178.262 31.296 179.26 31.5564 180.129 32.0773C181.011 32.5838 181.699 33.2711 182.191 34.1392C182.697 35.0074 182.95 35.9913 182.95 37.091C182.95 38.1762 182.697 39.1602 182.191 40.0428C181.699 40.911 181.011 41.6055 180.129 42.1264C179.26 42.6329 178.262 42.8861 177.133 42.8861ZM177.133 41.1714C177.9 41.1714 178.566 40.9906 179.13 40.6288C179.695 40.2671 180.136 39.7824 180.454 39.1746C180.773 38.5525 180.932 37.8579 180.932 37.091C180.932 36.3241 180.773 35.6368 180.454 35.0291C180.136 34.4069 179.695 33.915 179.13 33.5532C178.566 33.1915 177.9 33.0106 177.133 33.0106C176.381 33.0106 175.715 33.1915 175.137 33.5532C174.572 33.915 174.131 34.4069 173.813 35.0291C173.494 35.6368 173.335 36.3241 173.335 37.091C173.335 37.8579 173.494 38.5525 173.813 39.1746C174.131 39.7824 174.572 40.2671 175.137 40.6288C175.715 40.9906 176.381 41.1714 177.133 41.1714Z" fill="#68A4FF"/>
<path d="M195.126 42.6256V40.911H200.422C200.769 40.911 201.066 40.8386 201.311 40.6939C201.572 40.5348 201.767 40.3322 201.898 40.0862C202.028 39.8402 202.093 39.5798 202.093 39.3049C202.093 39.0444 202.035 38.8057 201.919 38.5886C201.803 38.3571 201.623 38.1762 201.377 38.046C201.145 37.9013 200.863 37.829 200.53 37.829H198.295C197.586 37.829 196.963 37.7132 196.428 37.4817C195.907 37.2357 195.495 36.8812 195.191 36.4182C194.901 35.9552 194.757 35.3909 194.757 34.7253C194.757 34.161 194.894 33.64 195.169 33.1626C195.444 32.6851 195.828 32.3016 196.32 32.0122C196.811 31.7084 197.376 31.5564 198.012 31.5564H203.113V33.2711H198.208C197.759 33.2711 197.405 33.4085 197.144 33.6835C196.884 33.9584 196.754 34.2839 196.754 34.6601C196.754 35.0219 196.884 35.3402 197.144 35.6151C197.419 35.8756 197.803 36.0058 198.295 36.0058H200.422C201.217 36.0058 201.883 36.136 202.418 36.3965C202.968 36.6425 203.381 37.0042 203.656 37.4817C203.945 37.9592 204.09 38.5452 204.09 39.2398C204.09 39.833 203.945 40.3901 203.656 40.911C203.366 41.4174 202.961 41.8298 202.44 42.1481C201.934 42.4665 201.34 42.6256 200.66 42.6256H195.126Z" fill="#68A4FF"/>
<path d="M219.949 42.6256C218.965 42.6256 218.191 42.3435 217.627 41.7792C217.077 41.2148 216.802 40.448 216.802 39.4785V28.7783H218.799V39.3483C218.799 39.8258 218.929 40.2092 219.189 40.4986C219.464 40.7735 219.84 40.911 220.318 40.911H222.553V42.6256H219.949ZM214.892 33.2711V31.5564H222.597V33.2711H214.892Z" fill="#68A4FF"/>
<path d="M234.778 42.6256V31.5564H236.796V42.6256H234.778ZM235.798 29.7984C235.436 29.7984 235.118 29.6682 234.843 29.4077C234.582 29.1328 234.452 28.8145 234.452 28.4527C234.452 28.091 234.582 27.7799 234.843 27.5194C235.118 27.2445 235.436 27.1071 235.798 27.1071C236.16 27.1071 236.471 27.2445 236.731 27.5194C237.006 27.7799 237.144 28.091 237.144 28.4527C237.144 28.8145 237.006 29.1328 236.731 29.4077C236.471 29.6682 236.16 29.7984 235.798 29.7984Z" fill="#68A4FF"/>
<path d="M255.077 42.6256C253.934 42.6256 252.914 42.3796 252.017 41.8877C251.12 41.3957 250.411 40.7373 249.89 39.9126C249.369 39.0734 249.109 38.1328 249.109 37.091C249.109 36.0492 249.369 35.1159 249.89 34.2912C250.411 33.4519 251.12 32.7863 252.017 32.2944C252.914 31.8024 253.934 31.5564 255.077 31.5564H256.38V33.2711H255.012C254.274 33.2711 253.609 33.4447 253.016 33.792C252.437 34.1248 251.974 34.5806 251.626 35.1593C251.294 35.7381 251.127 36.382 251.127 37.091C251.127 37.8 251.294 38.4439 251.626 39.0227C251.974 39.6015 252.437 40.0645 253.016 40.4118C253.609 40.7446 254.274 40.911 255.012 40.911H256.38V42.6256H255.077Z" fill="#68A4FF"/>
<path d="M268.276 42.6256V40.911H273.572C273.919 40.911 274.216 40.8386 274.462 40.6939C274.722 40.5348 274.918 40.3322 275.048 40.0862C275.178 39.8402 275.243 39.5798 275.243 39.3049C275.243 39.0444 275.185 38.8057 275.069 38.5886C274.954 38.3571 274.773 38.1762 274.527 38.046C274.295 37.9013 274.013 37.829 273.68 37.829H271.445C270.736 37.829 270.114 37.7132 269.578 37.4817C269.057 37.2357 268.645 36.8812 268.341 36.4182C268.052 35.9552 267.907 35.3909 267.907 34.7253C267.907 34.161 268.044 33.64 268.319 33.1626C268.594 32.6851 268.978 32.3016 269.47 32.0122C269.962 31.7084 270.526 31.5564 271.163 31.5564H276.263V33.2711H271.358C270.909 33.2711 270.555 33.4085 270.294 33.6835C270.034 33.9584 269.904 34.2839 269.904 34.6601C269.904 35.0219 270.034 35.3402 270.294 35.6151C270.569 35.8756 270.953 36.0058 271.445 36.0058H273.572C274.368 36.0058 275.033 36.136 275.569 36.3965C276.118 36.6425 276.531 37.0042 276.806 37.4817C277.095 37.9592 277.24 38.5452 277.24 39.2398C277.24 39.833 277.095 40.3901 276.806 40.911C276.516 41.4174 276.111 41.8298 275.59 42.1481C275.084 42.4665 274.491 42.6256 273.811 42.6256H268.276Z" fill="#68A4FF"/>
<path fill-rule="evenodd" clip-rule="evenodd" d="M8.81982 16.1517L9.31656 16.0613C9.51624 16.025 9.8154 15.9372 10.0583 15.7977C10.3119 15.652 10.4349 15.4926 10.4349 15.3332C10.4349 14.5703 10.6953 11.2868 15.0455 9.11177L15.2426 9.50612C11.0879 11.5835 10.8758 14.6787 10.8758 15.3332C10.8758 15.7409 10.5657 16.0146 10.2779 16.18C10.1407 16.2588 9.99254 16.3228 9.84979 16.373L9.87993 16.3956C10.0442 16.3734 10.2465 16.4049 10.43 16.5468C10.6611 16.7257 10.8241 17.0498 10.8747 17.5556C10.926 18.0682 11.3236 18.7012 11.8998 19.2487C12.4721 19.7923 13.1731 20.206 13.766 20.3138L13.6871 20.7476C12.9807 20.6191 12.2051 20.1468 11.5962 19.5683C10.9912 18.9936 10.5029 18.2682 10.436 17.5995C10.3921 17.1604 10.2598 16.9726 10.1602 16.8955C10.0613 16.8191 9.9573 16.822 9.8982 16.8417L9.78863 16.8783L8.81982 16.1517Z" fill="#68A4FF"/>
<path fill-rule="evenodd" clip-rule="evenodd" d="M13.0623 14.6792L13.5622 14.7505C13.7631 14.7792 14.0747 14.7904 14.3492 14.7348C14.6358 14.6767 14.8029 14.5643 14.8533 14.4132C15.0944 13.6893 16.3792 10.6565 21.1938 9.96768L21.2562 10.4041C16.6579 11.062 15.4785 13.9315 15.2716 14.5525C15.1428 14.9393 14.7621 15.101 14.4368 15.1669C14.2817 15.1983 14.1209 15.2122 13.9696 15.2147L13.991 15.2457C14.1539 15.2765 14.3359 15.3704 14.4651 15.563C14.6278 15.8057 14.6801 16.1648 14.5682 16.6607C14.4548 17.1631 14.632 17.8894 15.0057 18.5909C15.3768 19.2876 15.9112 19.9015 16.4396 20.1912L16.2277 20.5778C15.5981 20.2327 15.0115 19.5395 14.6166 18.7982C14.2243 18.0617 13.9902 17.2192 14.1381 16.5636C14.2352 16.1331 14.1691 15.9132 14.0989 15.8086C14.0293 15.7048 13.9297 15.6747 13.8674 15.6747L13.7519 15.6747L13.0623 14.6792Z" fill="#68A4FF"/>
<path fill-rule="evenodd" clip-rule="evenodd" d="M23.2044 12.8076C22.0777 13.2047 20.7469 13.9016 19.8591 15.1011C19.1298 16.0864 18.6428 17.2734 18.3376 18.2218C18.1855 18.6946 18.0796 19.105 18.0118 19.3966C17.9779 19.5424 17.9536 19.6584 17.9378 19.7375C17.9299 19.777 17.9241 19.8074 17.9204 19.8276L17.9163 19.8502L17.9153 19.8556L17.9151 19.8568C17.9151 19.8568 17.9151 19.857 17.6978 19.8197C17.4806 19.7824 17.4806 19.7823 17.4806 19.7822L17.4807 19.7815L17.481 19.7796L17.4822 19.7728L17.4869 19.7474C17.491 19.7252 17.4971 19.6929 17.5054 19.6512C17.522 19.568 17.5473 19.4475 17.5823 19.2968C17.6523 18.9956 17.7614 18.5733 17.9179 18.0868C18.2301 17.1167 18.735 15.8788 19.5047 14.8388C20.4668 13.5389 21.8914 12.8029 23.0578 12.3918C23.6432 12.1855 24.1692 12.059 24.5493 11.9841C24.7395 11.9465 24.8935 11.9218 25.0006 11.9064C25.0542 11.8987 25.0961 11.8934 25.1249 11.8899C25.1393 11.8881 25.1505 11.8869 25.1582 11.886L25.1672 11.8851L25.1697 11.8848L25.1705 11.8847C25.1706 11.8847 25.1709 11.8847 25.1929 12.104C25.2149 12.3234 25.2149 12.3234 25.215 12.3234L25.2133 12.3235L25.2065 12.3243C25.2003 12.3249 25.1906 12.326 25.1778 12.3276C25.1521 12.3307 25.1135 12.3356 25.0633 12.3429C24.963 12.3573 24.8166 12.3807 24.6346 12.4166C24.2704 12.4885 23.7656 12.6098 23.2044 12.8076Z" fill="#68A4FF"/>
<path fill-rule="evenodd" clip-rule="evenodd" d="M6.25619 19.566L6.3122 19.398C6.35256 19.2769 6.42602 19.165 6.48841 19.0727C6.49822 19.0581 6.50791 19.0439 6.51747 19.0298C6.57385 18.9468 6.62563 18.8706 6.66995 18.7864C6.76535 18.6049 6.81945 18.3989 6.70991 18.1035C6.57795 17.7477 6.30739 16.8412 6.48975 15.5753C6.67241 14.3074 7.30707 12.6964 8.95902 10.9304L9.281 11.2316C7.68508 12.9376 7.09482 14.4673 6.92614 15.6382C6.75716 16.8112 7.00883 17.6416 7.12329 17.9503C7.28524 18.387 7.20077 18.7242 7.06019 18.9916C7.00325 19.0998 6.93584 19.1988 6.87994 19.2809C6.8709 19.2942 6.86215 19.307 6.8538 19.3194C6.83808 19.3427 6.82386 19.3641 6.81107 19.3841L6.90903 19.4426C7.01583 19.3815 7.15211 19.3323 7.30525 19.346C7.55093 19.3681 7.7527 19.5409 7.90062 19.8434C8.12817 20.3088 8.72204 20.7815 9.45044 21.1116C10.1749 21.4399 10.972 21.5994 11.5621 21.495L11.639 21.9291C10.9287 22.0549 10.0375 21.8617 9.26845 21.5132C8.50334 21.1664 7.79843 20.6381 7.50453 20.0371C7.39426 19.8115 7.30011 19.7882 7.26588 19.7852C7.2116 19.7803 7.13674 19.8099 7.05468 19.8759L6.93512 19.9719L6.25619 19.566Z" fill="#68A4FF"/>
<path fill-rule="evenodd" clip-rule="evenodd" d="M4.92823 23.4822L4.88798 23.2934C4.85168 23.1232 4.85642 22.9544 4.86962 22.8006C4.87535 22.7339 4.88302 22.6667 4.89034 22.6027C4.89146 22.5928 4.89258 22.583 4.89369 22.5733C4.9021 22.4991 4.9097 22.4287 4.91436 22.3592C4.93252 22.0875 4.90452 21.8521 4.70164 21.621C4.52144 21.4157 4.30707 21.0264 4.11109 20.5477C3.91248 20.0625 3.7244 19.4649 3.60526 18.8289C3.36955 17.5704 3.39289 16.0986 4.22373 15.076L4.56592 15.354C3.86115 16.2214 3.8097 17.5255 4.03862 18.7477C4.1518 19.3519 4.33088 19.9208 4.51912 20.3806C4.70999 20.8469 4.90216 21.1811 5.033 21.3302C5.34521 21.6859 5.37627 22.0595 5.35427 22.3886C5.34887 22.4692 5.34023 22.5485 5.33177 22.623C5.33061 22.6332 5.32945 22.6433 5.32831 22.6533C5.32095 22.7178 5.31405 22.7783 5.3089 22.8383C5.30363 22.8997 5.30058 22.9569 5.30079 23.011L5.37575 23.0052C5.38187 22.9759 5.38954 22.9471 5.39896 22.919C5.42956 22.8278 5.48629 22.7233 5.59116 22.656C5.7049 22.583 5.83693 22.5779 5.96216 22.6192C6.08022 22.6582 6.19811 22.739 6.31707 22.85C6.70372 23.2108 7.33123 23.4372 8.01618 23.5399C8.69649 23.6419 9.39693 23.6163 9.89881 23.5048L9.99446 23.9352C9.43323 24.0599 8.6777 24.0849 7.95081 23.9759C7.22856 23.8676 6.49765 23.6215 6.0163 23.1724C5.92152 23.084 5.85852 23.0496 5.82523 23.0383C5.82275 23.0435 5.81991 23.0504 5.81693 23.0593C5.80473 23.0957 5.79655 23.1479 5.79655 23.2107L5.79655 23.4147L4.92823 23.4822Z" fill="#68A4FF"/>
<path fill-rule="evenodd" clip-rule="evenodd" d="M5.18981 27.1736L5.13234 27.0145C5.08601 26.8862 5.07077 26.7535 5.05941 26.6456C5.0584 26.636 5.05741 26.6266 5.05645 26.6174C5.04572 26.5145 5.03725 26.4333 5.01645 26.3571C4.9955 26.2804 4.96426 26.2194 4.91117 26.167C4.85669 26.1132 4.76543 26.055 4.60321 26.0082C4.32816 25.9287 3.98093 25.6983 3.6304 25.3867C3.27331 25.0691 2.89122 24.6478 2.54785 24.1584C1.86498 23.1852 1.31279 21.9095 1.45884 20.624L1.89691 20.6738C1.76806 21.8079 2.25614 22.9751 2.90876 23.9052C3.23313 24.3675 3.59259 24.7631 3.92336 25.0572C4.26069 25.3571 4.54764 25.5332 4.72557 25.5846C4.93843 25.6461 5.10105 25.7349 5.2209 25.8532C5.34217 25.9729 5.40575 26.1091 5.44177 26.241C5.46607 26.33 5.47873 26.4218 5.48784 26.5038C5.49387 26.4846 5.50122 26.4654 5.51016 26.4463C5.56254 26.3348 5.65789 26.2545 5.78882 26.2184C5.90732 26.1858 6.04771 26.191 6.20629 26.2201C6.74991 26.3199 7.42434 26.266 8.03739 26.098C8.65668 25.9283 9.16978 25.6544 9.42276 25.3508L9.76146 25.6331C9.42377 26.0383 8.80787 26.344 8.15391 26.5232C7.49372 26.7041 6.75066 26.7683 6.12668 26.6537C5.9974 26.63 5.93294 26.6363 5.90661 26.6433C5.9061 26.6458 5.90556 26.6489 5.90506 26.6526C5.90312 26.6667 5.90218 26.6856 5.90271 26.711C5.90325 26.7366 5.90512 26.7641 5.90757 26.7968C5.90784 26.8004 5.90813 26.8042 5.90842 26.808C5.91056 26.8363 5.91303 26.8688 5.91431 26.9004L5.92285 27.1111L5.18981 27.1736Z" fill="#68A4FF"/>
<path fill-rule="evenodd" clip-rule="evenodd" d="M6.47804 29.973L6.36033 29.8515C6.276 29.7644 6.21572 29.6629 6.16893 29.5827C6.16487 29.5757 6.1609 29.5689 6.15702 29.5622C6.11201 29.4848 6.07811 29.4265 6.03675 29.3764C5.99597 29.3269 5.95437 29.2941 5.90082 29.2742C5.84542 29.2536 5.75912 29.2401 5.6195 29.26C5.36932 29.2956 5.01125 29.2359 4.62627 29.1151C4.23293 28.9917 3.78369 28.7957 3.34096 28.5326C2.46133 28.0099 1.57334 27.2014 1.23196 26.1344L1.65188 26.0001C1.94684 26.9219 2.73182 27.6577 3.5662 28.1536C3.98048 28.3998 4.39851 28.5816 4.75825 28.6944C5.12636 28.8099 5.40719 28.8449 5.55729 28.8235C5.74909 28.7962 5.91304 28.8083 6.05453 28.861C6.19787 28.9143 6.29979 29.0023 6.37697 29.0959C6.42534 29.1546 6.46636 29.2189 6.50119 29.2773C6.50504 29.2499 6.5118 29.2217 6.52232 29.1931C6.59627 28.9922 6.80621 28.8899 7.0592 28.8277C7.54608 28.7079 8.11745 28.5342 8.63592 28.2646C9.15517 27.9947 9.60554 27.6368 9.87226 27.1567L10.2577 27.3708C9.93377 27.9539 9.40182 28.3634 8.83929 28.6558C8.27598 28.9487 7.66611 29.1324 7.16452 29.2558C7.05444 29.2829 6.99179 29.3106 6.95822 29.3317C6.94914 29.3374 6.94307 29.3421 6.93915 29.3454C6.93952 29.3473 6.94002 29.3495 6.94068 29.3521C6.9465 29.3748 6.95923 29.405 6.98237 29.4513L7.07659 29.6399L6.47804 29.973Z" fill="#68A4FF"/>
<path fill-rule="evenodd" clip-rule="evenodd" d="M8.9263 32.2632L8.77417 32.1892C8.66518 32.1361 8.57388 32.0613 8.5025 32.0018C8.4963 31.9967 8.49025 31.9916 8.48433 31.9867C8.41561 31.9293 8.36385 31.8861 8.30784 31.8531C8.25261 31.8205 8.20232 31.8038 8.14519 31.8034C8.08609 31.8029 8.00037 31.8197 7.87592 31.8861C7.66194 32.0002 7.32852 32.0852 6.94472 32.1284C6.55544 32.1722 6.09496 32.1752 5.61652 32.1122C4.66418 31.9868 3.60864 31.5952 2.92134 30.706L3.27018 30.4364C3.85991 31.1993 4.78582 31.5581 5.67406 31.6751C6.11591 31.7332 6.5405 31.7303 6.89541 31.6903C7.25579 31.6498 7.52568 31.5732 7.66845 31.4971C7.8394 31.4059 7.99765 31.3614 8.14861 31.3625C8.30154 31.3637 8.42739 31.4117 8.5319 31.4733C8.59739 31.512 8.65788 31.5584 8.71057 31.6014C8.70483 31.5743 8.70156 31.5455 8.70169 31.5151C8.70262 31.301 8.86502 31.1332 9.08157 30.9883C9.88367 30.4517 10.4929 29.6608 10.6742 28.5283L11.1095 28.598C10.9063 29.8672 10.2168 30.7593 9.32671 31.3547C9.23249 31.4178 9.18306 31.4652 9.15872 31.4965C9.15213 31.505 9.14801 31.5114 9.14547 31.5159C9.14647 31.5176 9.14769 31.5195 9.14919 31.5217C9.16241 31.541 9.18468 31.5651 9.22224 31.6007L9.37518 31.7458L8.9263 32.2632Z" fill="#68A4FF"/>
<path fill-rule="evenodd" clip-rule="evenodd" d="M11.7035 32.9559L11.5344 32.9512C11.4132 32.9479 11.2992 32.9174 11.2096 32.8927C11.2018 32.8905 11.1942 32.8884 11.1868 32.8864C11.1005 32.8625 11.0355 32.8445 10.9709 32.8375C10.9071 32.8306 10.8545 32.8362 10.8023 32.8594C10.7482 32.8834 10.6771 32.934 10.5911 33.0458C10.4439 33.2372 10.1836 33.4484 9.86176 33.6411C9.53582 33.8364 9.13173 34.0217 8.68402 34.1543C7.79155 34.4186 6.69961 34.4799 5.70921 33.9549L5.91568 33.5654C6.77028 34.0184 7.73384 33.9758 8.55884 33.7315C8.96986 33.6098 9.34 33.4397 9.63522 33.2629C9.93457 33.0836 10.1423 32.9062 10.2416 32.7771C10.3597 32.6235 10.4854 32.5176 10.6234 32.4564C10.7632 32.3944 10.8976 32.3861 11.0183 32.3992C11.0939 32.4073 11.1681 32.4246 11.2339 32.4421C11.2175 32.4198 11.2026 32.3949 11.1902 32.3671C11.1027 32.1717 11.1813 31.9518 11.3188 31.7305C11.5745 31.3189 11.7658 30.8456 11.8645 30.4079C11.9649 29.9624 11.9619 29.5873 11.8683 29.3533L12.2777 29.1896C12.4203 29.5462 12.4024 30.0265 12.2946 30.5048C12.185 30.991 11.9748 31.5101 11.6933 31.9632C11.6335 32.0595 11.6081 32.1231 11.5988 32.1616C11.5963 32.172 11.5952 32.1796 11.5948 32.1848C11.5963 32.1858 11.5982 32.1871 11.6005 32.1885C11.6206 32.2006 11.6507 32.2133 11.6997 32.2303L11.8989 32.2994L11.7035 32.9559Z" fill="#68A4FF"/>
<path fill-rule="evenodd" clip-rule="evenodd" d="M14.4179 33.0965L14.2544 33.1404C14.1374 33.1718 14.0194 33.1751 13.9265 33.177C13.9184 33.1772 13.9105 33.1773 13.9028 33.1775C13.8133 33.1792 13.7459 33.1806 13.682 33.1923C13.6189 33.2039 13.57 33.2244 13.5266 33.2615C13.4817 33.2999 13.4279 33.3688 13.3775 33.5005C13.289 33.7315 13.0879 34.002 12.8231 34.2655C12.554 34.5331 12.2041 34.8085 11.7982 35.0453C10.9892 35.5174 9.93409 35.8494 8.84062 35.6304L8.92721 35.1981C9.88122 35.3892 10.8254 35.1025 11.576 34.6645C11.95 34.4463 12.27 34.1938 12.5121 33.9529C12.7584 33.7079 12.9096 33.4893 12.9658 33.3428C13.0351 33.1618 13.1254 33.0244 13.2401 32.9264C13.3564 32.827 13.4828 32.7807 13.6022 32.7587C13.677 32.7449 13.7531 32.7403 13.821 32.7383C13.7989 32.7216 13.7776 32.702 13.7577 32.6789C13.6181 32.5167 13.6306 32.2834 13.6992 32.0321C13.8232 31.5771 13.8236 31.1021 13.7433 30.6918C13.6619 30.2761 13.5031 29.9522 13.334 29.7813L13.6474 29.4712C13.8994 29.7258 14.0851 30.1427 14.1759 30.6071C14.2678 31.0767 14.2682 31.6209 14.1245 32.148C14.0947 32.2574 14.0885 32.3256 14.0906 32.3652C14.0912 32.3759 14.0923 32.3835 14.0934 32.3886C14.0952 32.3892 14.0974 32.3898 14.0999 32.3905C14.1226 32.3964 14.1552 32.4 14.2069 32.4022L14.4175 32.4115L14.4179 33.0965Z" fill="#68A4FF"/>
<path fill-rule="evenodd" clip-rule="evenodd" d="M16.6636 31.9497L16.532 32.0561C16.4377 32.1323 16.3312 32.1832 16.2471 32.2226C16.2398 32.226 16.2326 32.2294 16.2256 32.2326C16.1445 32.2705 16.0834 32.2991 16.0298 32.3358C15.9768 32.3719 15.9404 32.4104 15.9158 32.462C15.8903 32.5153 15.8691 32.6001 15.8764 32.7409C15.8892 32.987 15.8213 33.2879 15.6971 33.5982C15.5714 33.9123 15.3816 34.2517 15.134 34.5783C14.6399 35.23 13.902 35.8476 12.9569 36.0996L12.8433 35.6736C13.6701 35.4531 14.3312 34.9073 14.7827 34.3119C15.0078 34.0149 15.1775 33.7098 15.2878 33.4344C15.3996 33.1551 15.4443 32.9214 15.4361 32.7637C15.4261 32.5703 15.4529 32.408 15.518 32.2718C15.584 32.1339 15.6808 32.0402 15.781 31.9718C15.8437 31.9289 15.9114 31.8938 15.9727 31.8643C15.9458 31.858 15.9183 31.8488 15.8908 31.8357C15.6973 31.7441 15.6142 31.5258 15.5749 31.2682C15.5043 30.8054 15.2994 30.3767 15.0709 30.0654C14.9567 29.9099 14.8409 29.7895 14.7395 29.7102C14.6298 29.6245 14.5668 29.6102 14.5537 29.6102L14.5537 29.1693C14.7178 29.1693 14.8792 29.2598 15.011 29.3628C15.1512 29.4724 15.2941 29.6245 15.4263 29.8045C15.6903 30.1643 15.9278 30.6583 16.0108 31.2017C16.0279 31.3138 16.0499 31.3787 16.0679 31.414C16.0727 31.4236 16.0768 31.43 16.0798 31.4342C16.0817 31.434 16.084 31.4337 16.0866 31.4333C16.1098 31.4295 16.1409 31.4196 16.1892 31.4007L16.3854 31.3237L16.6636 31.9497Z" fill="#68A4FF"/>
<path fill-rule="evenodd" clip-rule="evenodd" d="M18.2144 30.4541L18.1336 30.6027C18.0757 30.7092 17.9968 30.7971 17.9342 30.8657C17.9287 30.8717 17.9234 30.8775 17.9182 30.8832C17.8578 30.9493 17.8123 30.999 17.7768 31.0535C17.7418 31.1072 17.7229 31.1567 17.7199 31.2137C17.7168 31.2728 17.7297 31.3591 17.7904 31.4865C17.9967 31.9193 18.0036 32.5724 17.7854 33.2442C17.5645 33.9244 17.1058 34.6493 16.3414 35.2348L16.0733 34.8848C16.7646 34.3552 17.1719 33.7058 17.3661 33.108C17.563 32.5018 17.5341 31.9733 17.3924 31.6762C17.309 31.5013 17.2716 31.3412 17.2796 31.1905C17.2877 31.0378 17.3412 30.9142 17.4076 30.8126C17.4491 30.7489 17.4982 30.6905 17.5435 30.6398C17.5162 30.6444 17.4873 30.6463 17.4569 30.6448C17.2431 30.6343 17.0827 30.4645 16.9477 30.2416C16.6925 29.8203 16.4081 29.4733 16.1559 29.2515C16.0292 29.14 15.9187 29.0673 15.831 29.0296C15.7397 28.9904 15.7042 29.0017 15.7012 29.0029L15.5323 28.5957C15.693 28.529 15.8633 28.5636 16.0052 28.6246C16.1508 28.6872 16.3007 28.7917 16.4471 28.9204C16.741 29.179 17.0527 29.5639 17.3248 30.0132C17.3836 30.1102 17.4287 30.1617 17.4589 30.1874C17.4671 30.1944 17.4733 30.1988 17.4777 30.2015C17.4794 30.2006 17.4813 30.1995 17.4836 30.1981C17.5036 30.1857 17.5285 30.1646 17.5658 30.1287L17.7177 29.9824L18.2144 30.4541Z" fill="#68A4FF"/>
<path fill-rule="evenodd" clip-rule="evenodd" d="M19.0637 28.3781L19.0424 28.546C19.0272 28.6663 18.9857 28.7768 18.9523 28.8635C18.9494 28.871 18.9466 28.8784 18.9438 28.8856C18.9115 28.9691 18.8873 29.032 18.874 29.0956C18.8608 29.1584 18.8613 29.2113 18.8792 29.2656C18.8978 29.3217 18.9412 29.3975 19.044 29.494C19.3926 29.8212 19.6432 30.4279 19.6907 31.1351C19.7387 31.8511 19.5814 32.6959 19.0817 33.5203L18.7046 33.2917C19.1555 32.548 19.293 31.7939 19.2508 31.1646C19.208 30.5266 18.9833 30.0417 18.7423 29.8155C18.601 29.6829 18.508 29.5473 18.4606 29.404C18.4126 29.2588 18.4176 29.1242 18.4424 29.0054C18.4579 28.931 18.4824 28.8588 18.5062 28.7951C18.4824 28.8092 18.4562 28.8216 18.4274 28.8312C18.2243 28.8991 18.0132 28.7993 17.8064 28.6408C17.4184 28.3433 17.0756 28.1755 16.8123 28.1083C16.5362 28.0379 16.404 28.089 16.36 28.1313L16.0546 27.8133C16.2663 27.61 16.5967 27.5983 16.9214 27.6811C17.2588 27.7673 17.6549 27.9691 18.0747 28.2909C18.1647 28.3599 18.2255 28.3914 18.2629 28.4044C18.2731 28.4079 18.2805 28.4098 18.2856 28.4107C18.2868 28.4092 18.2882 28.4075 18.2898 28.4054C18.3039 28.3866 18.3195 28.3578 18.3412 28.3108L18.4294 28.1193L19.0637 28.3781Z" fill="#68A4FF"/>
<path fill-rule="evenodd" clip-rule="evenodd" d="M19.1122 26.0587L19.1728 26.2167C19.2151 26.3272 19.2312 26.4323 19.2428 26.517C19.2444 26.5287 19.2459 26.5398 19.2473 26.5506C19.2571 26.6234 19.2642 26.6761 19.2795 26.7288C19.3065 26.8215 19.3643 26.9349 19.6178 27.0684C20.2899 27.4224 21.2541 28.5515 21.1527 30.4645L20.7124 30.4411C20.8052 28.6917 19.925 27.7285 19.4123 27.4585C19.0734 27.28 18.9225 27.0799 18.8562 26.852C18.8396 26.7949 18.8288 26.7372 18.8208 26.6845C18.8059 26.71 18.7877 26.735 18.7654 26.7587C18.6185 26.9144 18.3852 26.9261 18.1281 26.8841C17.6399 26.8042 17.2976 26.8076 17.0727 26.8516C16.8416 26.8968 16.775 26.9751 16.7601 27.0056L16.3638 26.8126C16.467 26.6005 16.699 26.4754 16.9881 26.4189C17.2834 26.3611 17.6829 26.3645 18.1993 26.449C18.3112 26.4673 18.3797 26.4663 18.4188 26.4601C18.4294 26.4584 18.4368 26.4566 18.4418 26.455C18.4421 26.4531 18.4426 26.4509 18.443 26.4483C18.4465 26.4251 18.4467 26.3923 18.4436 26.3406L18.4309 26.1302L19.1122 26.0587Z" fill="#68A4FF"/>
<path fill-rule="evenodd" clip-rule="evenodd" d="M18.5382 24.2605L18.6487 24.3886C18.7303 24.4831 18.7682 24.5659 18.7943 24.6349C18.8014 24.6537 18.8067 24.6684 18.8111 24.6804C18.8235 24.7143 18.8277 24.7258 18.8395 24.7433C18.8661 24.783 18.9555 24.875 19.4063 25.0521C19.438 25.0646 19.4701 25.0771 19.5025 25.0898C19.9168 25.2515 20.3752 25.4304 20.7708 25.7673C21.2068 26.1387 21.553 26.6871 21.7384 27.5731L21.3069 27.6634C21.1379 26.8562 20.8344 26.4006 20.4849 26.103C20.148 25.8161 19.7558 25.6625 19.3293 25.4955C19.3013 25.4846 19.2732 25.4736 19.245 25.4625C18.798 25.2868 18.5848 25.1546 18.4736 24.9893C18.4719 24.9867 18.4702 24.9842 18.4685 24.9816C18.4636 24.9998 18.4572 25.0181 18.4492 25.0366C18.3638 25.2329 18.1483 25.323 17.8922 25.3706C17.544 25.4353 17.2139 25.5092 16.9706 25.5967C16.848 25.6407 16.7602 25.6838 16.7054 25.7229C16.667 25.7503 16.6592 25.7651 16.6592 25.7652C16.6593 25.7652 16.6616 25.7608 16.6625 25.7518L16.2242 25.7046C16.2414 25.5447 16.3507 25.4345 16.4491 25.3642C16.5517 25.2908 16.683 25.2315 16.8215 25.1817C17.1003 25.0816 17.46 25.0025 17.8116 24.9371C17.9231 24.9164 17.9872 24.8923 18.022 24.8732C18.0313 24.868 18.0377 24.8637 18.0418 24.8606C18.0415 24.8587 18.0411 24.8564 18.0406 24.8538C18.0361 24.8308 18.0252 24.8 18.0047 24.7524L17.9215 24.5587L18.5382 24.2605Z" fill="#68A4FF"/>
<path fill-rule="evenodd" clip-rule="evenodd" d="M17.263 22.8313L17.404 22.907C17.514 22.966 17.579 23.0297 17.6281 23.0848C17.6414 23.0999 17.6517 23.1117 17.6601 23.1213C17.6838 23.1485 17.6918 23.1577 17.7091 23.1699C17.7482 23.1973 17.8646 23.2512 18.3489 23.2552C18.379 23.2555 18.4093 23.2557 18.4397 23.2559C18.8859 23.2588 19.3663 23.2619 19.8448 23.4394C20.3668 23.6332 20.8657 24.0242 21.3539 24.7816L20.9833 25.0204C20.5343 24.3239 20.1047 24.0062 19.6914 23.8528C19.2882 23.7031 18.8809 23.7001 18.4184 23.6967C18.3942 23.6965 18.3698 23.6963 18.3452 23.6961C17.9242 23.6926 17.6829 23.6561 17.5199 23.5699C17.4469 23.763 17.2887 23.948 17.0493 24.0948C16.7444 24.2817 16.4702 24.4572 16.2813 24.6149C16.1863 24.6942 16.1246 24.7594 16.0911 24.8099C16.0725 24.8378 16.0684 24.8522 16.0676 24.8561C16.0677 24.8543 16.0676 24.8503 16.0661 24.8446L15.6399 24.9575C15.5995 24.8048 15.657 24.6666 15.7238 24.566C15.7917 24.4637 15.8908 24.3665 15.9988 24.2764C16.216 24.0952 16.5168 23.904 16.8188 23.7189C17.0002 23.6077 17.082 23.4886 17.1108 23.4048C17.1411 23.317 17.1131 23.2835 17.1126 23.2829L16.9574 23.1236L17.263 22.8313Z" fill="#68A4FF"/>
<path fill-rule="evenodd" clip-rule="evenodd" d="M15.4038 22.4863L15.4989 22.0669L15.6625 22.0669L15.6777 22.0691C15.8013 22.0864 15.8844 22.1237 15.9495 22.1584C15.9672 22.1678 15.981 22.1754 15.9922 22.1815C16.0238 22.1988 16.0346 22.2047 16.055 22.2101C16.1012 22.2224 16.229 22.2326 16.6848 22.0688C16.7605 22.0416 16.8368 22.0127 16.914 21.9835C17.2739 21.8475 17.6525 21.7043 18.0696 21.6896C18.5961 21.6712 19.1655 21.8518 19.8838 22.392L19.6188 22.7444C18.9546 22.2448 18.4819 22.1163 18.085 22.1303C17.7471 22.1421 17.45 22.2538 17.0943 22.3874C17.0112 22.4186 16.9248 22.4511 16.8339 22.4837C16.3945 22.6417 16.1484 22.685 15.9581 22.6403C15.9842 22.8461 15.9329 23.0817 15.756 23.3062C15.5387 23.5818 15.373 23.826 15.2802 24.0208C15.2338 24.1184 15.2111 24.1925 15.2047 24.2445C15.1998 24.2839 15.2054 24.2991 15.2068 24.3021C15.2068 24.3021 15.2069 24.3022 15.2068 24.3021L14.8459 24.5554C14.7656 24.4411 14.7525 24.3089 14.7671 24.1904C14.7816 24.073 14.8252 23.9509 14.8822 23.8313C14.9963 23.5916 15.1863 23.3167 15.4097 23.0333C15.6364 22.7456 15.4657 22.5158 15.4038 22.4863ZM15.2072 24.3027C15.2072 24.3027 15.207 24.3025 15.2068 24.3021Z" fill="#68A4FF"/>
<path fill-rule="evenodd" clip-rule="evenodd" d="M13.8617 22.5219L13.7627 22.0975C13.8749 22.0524 13.9786 22.0367 14.0643 22.0272C14.0905 22.0243 14.1136 22.022 14.1346 22.0199C14.1882 22.0146 14.228 22.0107 14.2715 22.001C14.3224 21.9896 14.3679 21.9716 14.4163 21.935C14.4669 21.8968 14.5293 21.8314 14.6026 21.7133C14.7091 21.5417 14.8898 21.3803 15.0911 21.2409C15.2962 21.0989 15.5396 20.9682 15.7896 20.8637C16.0392 20.7593 16.3019 20.6783 16.5462 20.6394C16.7848 20.6013 17.0323 20.5991 17.2342 20.6799L17.0705 21.0893C16.9772 21.0519 16.8233 21.0417 16.6156 21.0748C16.4137 21.1069 16.1851 21.1762 15.9596 21.2705C15.7345 21.3646 15.5188 21.481 15.3421 21.6034C15.1614 21.7285 15.0374 21.8489 14.9772 21.9458C14.8839 22.0963 14.7873 22.2072 14.6823 22.2866C14.6014 22.3479 14.5209 22.3862 14.4427 22.4111C14.5512 22.5718 14.6109 22.7875 14.5722 23.0507C14.5211 23.398 14.499 23.6923 14.5156 23.9074C14.5239 24.0152 14.5412 24.0906 14.5615 24.139C14.5769 24.1756 14.5893 24.186 14.5921 24.1878C14.592 24.1878 14.592 24.1878 14.5919 24.1878L14.4053 24.5872C14.2787 24.5281 14.2015 24.42 14.1551 24.31C14.1093 24.201 14.0862 24.0734 14.076 23.9413C14.0556 23.6766 14.0835 23.3436 14.136 22.9866C14.189 22.6257 13.9316 22.5165 13.8617 22.5219ZM14.5927 24.1882C14.5927 24.1882 14.5925 24.1881 14.5921 24.1878Z" fill="#68A4FF"/>
<path fill-rule="evenodd" clip-rule="evenodd" d="M12.3007 23.3347L11.9741 23.0463C12.0393 22.9445 12.1148 22.8716 12.1791 22.8142C12.1987 22.7966 12.2162 22.7814 12.2321 22.7675C12.2727 22.7321 12.3029 22.7058 12.3327 22.6727C12.3676 22.634 12.3943 22.5929 12.4124 22.535C12.4315 22.4745 12.4445 22.385 12.4357 22.2464C12.4123 21.8755 12.5434 21.4436 12.7552 21.0884C12.9649 20.7365 13.2835 20.4112 13.6748 20.3164L13.7787 20.7449C13.5518 20.7999 13.3151 21.0101 13.1339 21.3141C12.9547 21.6147 12.8594 21.9588 12.8758 22.2186C12.8869 22.3954 12.8725 22.5418 12.833 22.6673C12.8026 22.7641 12.7592 22.842 12.7099 22.9076C12.8915 22.9757 13.0652 23.1169 13.1862 23.3538C13.3459 23.6663 13.4985 23.9189 13.6367 24.0846C13.706 24.1676 13.7637 24.2191 13.8083 24.2467C13.8421 24.2676 13.8582 24.2689 13.8616 24.2688C13.8615 24.2688 13.8615 24.2688 13.8614 24.2689L13.9409 24.7025C13.8035 24.7277 13.6779 24.6845 13.5763 24.6216C13.4758 24.5594 13.3831 24.4688 13.2982 24.3671C13.1281 24.1632 12.9577 23.8757 12.7936 23.5544C12.6276 23.2296 12.3546 23.2898 12.3007 23.3347ZM13.8623 24.2688C13.8623 24.2688 13.862 24.2688 13.8616 24.2688Z" fill="#68A4FF"/>
<path fill-rule="evenodd" clip-rule="evenodd" d="M11.5147 24.893L11.081 24.8511C11.0742 24.7304 11.0925 24.6271 11.1109 24.5429C11.1165 24.5171 11.1217 24.4945 11.1265 24.474C11.1386 24.4214 11.1476 24.3825 11.1523 24.3382C11.1578 24.2863 11.1553 24.2374 11.1361 24.1799C11.116 24.1197 11.0741 24.0396 10.9856 23.9325C10.5183 23.3661 10.5028 22.4421 10.9879 21.8732L11.3234 22.1593C10.9831 22.5584 10.9885 23.2432 11.3257 23.6518C11.4384 23.7884 11.5126 23.9154 11.5543 24.0402C11.5864 24.1365 11.5971 24.225 11.5956 24.3071C11.7825 24.2557 12.0061 24.2682 12.2431 24.389C12.5578 24.5495 12.7983 24.6508 12.9751 24.6916C13.1592 24.734 13.2036 24.6961 13.213 24.6862L13.5318 24.9908C13.3549 25.176 13.1016 25.1732 12.876 25.1212C12.6432 25.0675 12.3621 24.9446 12.0428 24.7818C11.7178 24.6161 11.532 24.8251 11.5147 24.893Z" fill="#68A4FF"/>
<path fill-rule="evenodd" clip-rule="evenodd" d="M11.5969 26.7059L11.211 26.9083C11.1392 26.8111 11.098 26.7146 11.0672 26.6341C11.0578 26.6094 11.0498 26.5877 11.0425 26.5679C11.0239 26.5173 11.0101 26.4798 10.9898 26.4401C10.966 26.3937 10.9371 26.3542 10.8895 26.3166C10.8398 26.2772 10.7608 26.2332 10.6281 26.192C10.6201 26.1894 10.612 26.1869 10.6038 26.1844C10.3225 26.0971 10.0238 26.0043 9.81148 25.8417C9.69543 25.7527 9.59855 25.639 9.54009 25.49C9.48218 25.3425 9.46821 25.1763 9.49171 24.9915L9.92908 25.0471C9.91247 25.1778 9.92589 25.2662 9.9505 25.329C9.97456 25.3902 10.0153 25.4424 10.0796 25.4917C10.222 25.6008 10.4438 25.673 10.759 25.7709C10.9281 25.8235 11.0597 25.8891 11.1629 25.9707C11.2426 26.0336 11.3 26.1019 11.3437 26.1713C11.4719 26.026 11.6658 25.914 11.9303 25.8853C12.0764 25.8694 12.1934 25.8591 12.2869 25.8508C12.3082 25.8489 12.3283 25.8471 12.3472 25.8454C12.4529 25.8358 12.5134 25.829 12.5573 25.8196C12.5943 25.8116 12.6124 25.8032 12.6304 25.7913C12.6545 25.7755 12.6852 25.7489 12.7438 25.6903L13.0555 26.0021C12.996 26.0616 12.9379 26.1167 12.8731 26.1595C12.8022 26.2062 12.7313 26.2332 12.6499 26.2507C12.5754 26.2667 12.488 26.2753 12.387 26.2845C12.3671 26.2863 12.3464 26.2881 12.3246 26.29C12.2313 26.2983 12.1192 26.3083 11.9778 26.3236C11.6152 26.3629 11.5742 26.6395 11.5969 26.7059Z" fill="#68A4FF"/>
<path fill-rule="evenodd" clip-rule="evenodd" d="M12.9567 27.8618L12.7963 28.2669C12.6784 28.24 12.5842 28.1938 12.5084 28.1528C12.4852 28.1403 12.4649 28.129 12.4465 28.1188C12.3994 28.0925 12.3645 28.0731 12.3232 28.0563C12.2749 28.0366 12.2272 28.0255 12.1666 28.028C12.1032 28.0306 12.0146 28.0488 11.8872 28.104C11.8794 28.1074 11.8716 28.1108 11.8639 28.1142C11.5936 28.2315 11.3067 28.356 11.0397 28.3711C10.8937 28.3794 10.7461 28.3564 10.6046 28.2816C10.4645 28.2075 10.3455 28.0907 10.2428 27.9352L10.6106 27.6921C10.6832 27.802 10.7511 27.8603 10.8107 27.8918C10.8689 27.9226 10.9338 27.9355 11.0147 27.9309C11.1937 27.9208 11.409 27.8308 11.7118 27.6995C11.8742 27.6291 12.0168 27.593 12.1483 27.5875C12.2497 27.5833 12.3377 27.5976 12.4162 27.6217C12.4185 27.4279 12.4925 27.2166 12.6742 27.0223C12.9165 26.7635 13.1862 26.5977 13.3893 26.4728C13.4101 26.4599 13.4303 26.4476 13.4497 26.4355C13.559 26.3676 13.6329 26.3178 13.6816 26.2711C13.7263 26.2281 13.7301 26.2064 13.7309 26.1961L14.1705 26.2291C14.1588 26.3854 14.0776 26.502 13.9869 26.5891C13.9001 26.6724 13.7879 26.7445 13.6823 26.8101C13.6625 26.8223 13.6426 26.8346 13.6226 26.847C13.4169 26.9738 13.1959 27.1101 12.9961 27.3236C12.7469 27.5899 12.8962 27.8263 12.9567 27.8618Z" fill="#68A4FF"/>
<path fill-rule="evenodd" clip-rule="evenodd" d="M14.7334 27.7525L14.8756 28.1644C14.7687 28.2208 14.6672 28.2471 14.5829 28.2655C14.5571 28.2711 14.5344 28.2757 14.5138 28.28C14.461 28.2908 14.4218 28.2988 14.3796 28.3129C14.3301 28.3295 14.2867 28.3521 14.2423 28.3935C14.196 28.4368 14.1406 28.5082 14.0799 28.6332C14.0325 28.731 13.9917 28.8266 13.9503 28.9238C13.9337 28.9625 13.9171 29.0016 13.8999 29.0411C13.8423 29.1731 13.7783 29.3106 13.6975 29.4268C13.6153 29.545 13.506 29.6554 13.352 29.7151C13.1965 29.7754 13.0247 29.7727 12.8392 29.72L12.9599 29.2959C13.0803 29.3301 13.1497 29.3207 13.1926 29.304C13.237 29.2868 13.2832 29.2503 13.3355 29.175C13.3893 29.0977 13.4388 28.9955 13.4957 28.8649C13.5101 28.8318 13.5251 28.7967 13.5407 28.7602C13.5835 28.6598 13.6308 28.5488 13.6833 28.4407C13.7606 28.2814 13.8453 28.1611 13.9414 28.0713C14.0156 28.002 14.0917 27.9555 14.1669 27.9227C14.0424 27.7741 13.9608 27.5656 13.9721 27.2998C13.9805 27.1026 14.0127 26.9522 14.0578 26.8325C14.1033 26.7113 14.1588 26.6308 14.1995 26.5751C14.2059 26.5664 14.2111 26.5593 14.2155 26.5534C14.2264 26.5386 14.2319 26.5312 14.2369 26.5233C14.2381 26.5213 14.2386 26.5204 14.2386 26.5204C14.2385 26.5204 14.2336 26.5295 14.2309 26.5448C14.2305 26.5472 14.2301 26.5495 14.2298 26.5518L14.5686 26.3023C14.6278 26.3827 14.6883 26.4907 14.665 26.622C14.6544 26.6814 14.6293 26.7276 14.6097 26.7586C14.5952 26.7815 14.5767 26.8066 14.5634 26.8246C14.5604 26.8286 14.5577 26.8323 14.5553 26.8355C14.5254 26.8763 14.4959 26.92 14.4704 26.9877C14.4444 27.0569 14.4194 27.1602 14.4126 27.3186C14.3971 27.683 14.6644 27.7651 14.7334 27.7525Z" fill="#68A4FF"/>
<path fill-rule="evenodd" clip-rule="evenodd" d="M14.9299 25.7948L15.3642 25.8301C15.3708 25.9216 15.3632 26.0187 15.3567 26.1015L15.3562 26.1082C15.3495 26.1948 15.3433 26.274 15.345 26.3544C15.3482 26.5112 15.3814 26.6578 15.5016 26.7991C15.5703 26.8798 15.6656 26.9646 15.778 27.0606C15.7928 27.0733 15.808 27.0862 15.8234 27.0993C15.9189 27.1805 16.0232 27.2692 16.1115 27.3584C16.2115 27.4594 16.3169 27.5858 16.3635 27.7339C16.4166 27.9027 16.3864 28.0768 16.2591 28.2308L15.9193 27.9498C15.9534 27.9086 15.9502 27.8895 15.9429 27.8663C15.9291 27.8223 15.8865 27.7579 15.7981 27.6685C15.7243 27.5939 15.6365 27.5192 15.5398 27.4369C15.524 27.4234 15.5079 27.4097 15.4916 27.3958C15.3813 27.3015 15.2603 27.1958 15.1659 27.0849C15.0088 26.9003 14.9418 26.7073 14.9168 26.5271C14.8952 26.5378 14.8726 26.5472 14.8488 26.5551C14.7195 26.5981 14.5793 26.5882 14.4411 26.5204C14.3356 26.4686 14.252 26.4255 14.1856 26.3913C14.1705 26.3835 14.1562 26.3762 14.1429 26.3693C14.0673 26.3305 14.0261 26.3106 13.9956 26.2994C13.9716 26.2906 13.9614 26.2898 13.9507 26.29C13.9327 26.2903 13.9046 26.2942 13.8404 26.3086L13.7438 25.8785C13.8093 25.8637 13.8758 25.8504 13.9426 25.8492C14.0166 25.8478 14.0813 25.8611 14.1479 25.8856C14.2078 25.9077 14.2727 25.9404 14.3442 25.977C14.3583 25.9843 14.3731 25.9919 14.3886 25.9999C14.4549 26.0341 14.5341 26.0749 14.6353 26.1246C14.6773 26.1452 14.6979 26.1406 14.7098 26.1367C14.7288 26.1304 14.7578 26.1123 14.793 26.0705C14.866 25.9838 14.9155 25.8552 14.9299 25.7948Z" fill="#68A4FF"/>
<path fill-rule="evenodd" clip-rule="evenodd" d="M3.98101 29.8064C5.44988 32.401 7.71207 34.2756 10.2391 34.68C15.6802 35.5505 20.3205 32.2941 20.4209 27.4768C20.4721 25.0173 19.4453 23.5108 18.1484 22.6423C16.794 21.7352 15.084 21.4872 13.8167 21.731C12.6751 21.9505 11.8547 22.6958 11.3373 23.6223C10.7989 24.5863 10.6801 25.5831 10.7882 26.0875C10.9167 26.6873 11.2963 27.3841 11.8694 27.869C12.4153 28.3309 13.1185 28.5916 13.993 28.425C14.7342 28.2838 15.2204 27.7248 15.3881 27.044C15.495 26.6101 15.4516 26.2476 15.3355 25.9842C15.3864 26.3232 15.2963 26.6599 15.1163 26.9299C14.8743 27.2929 14.5201 27.4771 14.2428 27.564C13.9521 27.6551 13.6362 27.6765 13.3333 27.6287C12.7121 27.5306 11.969 27.0839 11.8126 26.1453C11.7299 25.649 11.8813 25.1666 12.0576 24.8166C12.2479 24.4389 12.5414 24.0644 12.9282 23.7714C13.3208 23.474 13.8285 23.2476 14.4243 23.2186C15.0259 23.1894 15.6338 23.3653 16.2127 23.7375C17.5649 24.6068 17.8506 26.2641 17.5286 27.5714C17.1943 28.9283 16.1449 30.2592 14.4054 30.5905C12.7992 30.8965 11.4353 30.3894 10.4455 29.5519C9.48303 28.7375 8.85854 27.6034 8.63268 26.5494C8.38639 25.4 8.68114 23.8572 9.41261 22.5474C10.1651 21.2 11.4709 19.9372 13.4004 19.5662C15.2043 19.2192 17.5106 19.5619 19.3751 20.8106C21.297 22.0978 22.6918 24.3122 22.6249 27.5227C22.489 34.0451 16.262 37.8761 9.89079 36.8567C6.51162 36.3161 3.75356 33.8792 2.06264 30.8924C0.369035 27.9009 -0.358313 24.1844 0.491968 20.8487C2.13839 14.3897 8.51909 8.20641 16.916 8.20641C21.5365 8.20641 25.1537 9.12439 28.1705 11.0524C31.1744 12.9722 33.4778 15.8271 35.5906 19.5093C37.3881 22.6422 37.7809 26.2653 37.6725 29.3506C37.5638 32.4489 36.978 34.8469 36.6566 36.1326L34.4521 35.2509C34.7607 34.0166 35.3687 32.1413 35.4694 29.2733C35.5706 26.3923 35.1884 23.238 33.6785 20.6064C31.6569 17.0831 29.5704 14.5633 26.9833 12.9099C24.4091 11.2647 21.2342 10.4109 16.916 10.4109C9.63325 10.4109 4.05291 15.8037 2.62812 21.3932C1.9428 24.0818 2.51481 27.2165 3.98101 29.8064ZM13.1495 26.0856C13.1487 26.0932 13.148 26.1009 13.1474 26.1087C13.1335 26.2919 13.1763 26.466 13.2545 26.6099C13.3994 26.8768 13.6211 26.9784 13.7468 27.0127C13.8852 27.0505 14.0729 27.0552 14.2676 26.9601C14.4386 26.8765 14.559 26.7427 14.6274 26.604C14.6498 26.5585 14.6667 26.5126 14.6779 26.4677L13.1495 26.0856Z" fill="#CCBA79"/>
<path d="M13.674 27.3352C14.2518 27.42 14.7883 27.0251 14.8722 26.4531C14.9562 25.8811 14.5558 25.3487 13.9779 25.2639C13.4001 25.1791 12.8636 25.574 12.7797 26.146C12.6957 26.718 13.0961 27.2504 13.674 27.3352Z" fill="#CCBA79"/>
<path d="M29.543 26.1661C30.0932 26.1661 30.5392 25.7247 30.5392 25.1801C30.5392 24.6355 30.0932 24.1941 29.543 24.1941C28.9929 24.1941 28.5469 24.6355 28.5469 25.1801C28.5469 25.7247 28.9929 26.1661 29.543 26.1661Z" fill="#68A4FF"/>
<path fill-rule="evenodd" clip-rule="evenodd" d="M30.5943 21.9946L26.4057 24.4197L26.1848 24.0381L30.3734 21.6131L30.5943 21.9946Z" fill="#68A4FF"/>
<path d="M30.8669 22.6562C31.2849 22.4327 31.4444 21.916 31.2232 21.5022C31.0019 21.0884 30.4836 20.9342 30.0655 21.1577C29.6475 21.3813 29.488 21.898 29.7092 22.3118C29.9305 22.7256 30.4488 22.8798 30.8669 22.6562Z" fill="#68A4FF"/>
<path d="M26.6657 24.9075C27.0837 24.6839 27.2433 24.1672 27.022 23.7534C26.8007 23.3396 26.2824 23.1854 25.8644 23.409C25.4463 23.6325 25.2868 24.1492 25.5081 24.563C25.7294 24.9768 26.2476 25.131 26.6657 24.9075Z" fill="#68A4FF"/>
<path fill-rule="evenodd" clip-rule="evenodd" d="M30.6113 18.8973L23.7773 23.7471L23.5222 23.3875L30.3561 18.5378L30.6113 18.8973Z" fill="#68A4FF"/>
<path d="M30.9974 19.2934C31.4038 19.0033 31.5005 18.442 31.2134 18.0397C30.9263 17.6374 30.364 17.5465 29.9576 17.8366C29.5512 18.1267 29.4545 18.6879 29.7416 19.0902C30.0287 19.4925 30.591 19.5835 30.9974 19.2934Z" fill="#68A4FF"/>
<path d="M24.4276 23.9926C24.834 23.7025 24.9307 23.1413 24.6436 22.739C24.3564 22.3367 23.7942 22.2457 23.3878 22.5358C22.9813 22.8259 22.8846 23.3872 23.1718 23.7895C23.4589 24.1918 24.0211 24.2827 24.4276 23.9926Z" fill="#68A4FF"/>
<path fill-rule="evenodd" clip-rule="evenodd" d="M29.9647 15.5795L21.3673 22.8542L21.0825 22.5176L29.6799 15.2429L29.9647 15.5795Z" fill="#68A4FF"/>
<path d="M30.1565 16.3765C30.6022 15.999 30.6607 15.3354 30.2871 14.8942C29.9135 14.4531 29.2493 14.4014 28.8036 14.7788C28.3579 15.1562 28.2994 15.8198 28.673 16.261C29.0466 16.7022 29.7108 16.7539 30.1565 16.3765Z" fill="#68A4FF"/>
<path d="M22.0578 23.2483C22.5036 22.8709 22.562 22.2073 22.1885 21.7661C21.8149 21.3249 21.1507 21.2732 20.705 21.6506C20.2593 22.028 20.2008 22.6916 20.5744 23.1328C20.948 23.574 21.6121 23.6257 22.0578 23.2483Z" fill="#68A4FF"/>
<path d="M25.6671 12.6205C26.0604 12.1886 26.0326 11.523 25.6052 11.1338C25.1777 10.7446 24.5124 10.7792 24.1192 11.211C23.726 11.6428 23.7537 12.3084 24.1812 12.6977C24.6086 13.0869 25.2739 13.0523 25.6671 12.6205Z" fill="#68A4FF"/>
<path d="M18.5241 20.4808C18.9173 20.049 18.8895 19.3834 18.4621 18.9942C18.0346 18.605 17.3694 18.6395 16.9761 19.0714C16.5829 19.5032 16.6107 20.1688 17.0381 20.558C17.4656 20.9472 18.1309 20.9127 18.5241 20.4808Z" fill="#68A4FF"/>
<path fill-rule="evenodd" clip-rule="evenodd" d="M27.988 13.589L19.8315 21.0844L19.5332 20.7598L27.6897 13.2644L27.988 13.589Z" fill="#68A4FF"/>
<path d="M28.9221 14.147C29.3563 13.7564 29.395 13.0914 29.0084 12.6615C28.6218 12.2317 27.9564 12.1999 27.5221 12.5904C27.0879 12.981 27.0492 13.6461 27.4358 14.0759C27.8224 14.5057 28.4878 14.5375 28.9221 14.147Z" fill="#68A4FF"/>
<path d="M20.3659 21.8215C20.8002 21.431 20.8388 20.7659 20.4522 20.3361C20.0656 19.9063 19.4002 19.8744 18.966 20.265C18.5317 20.6556 18.4931 21.3206 18.8797 21.7504C19.2663 22.1803 19.9317 22.2121 20.3659 21.8215Z" fill="#68A4FF"/>
<path fill-rule="evenodd" clip-rule="evenodd" d="M35.5203 35.6893L22.7345 33.7053L22.8021 33.2696L35.5879 35.2536L35.5203 35.6893Z" fill="#68A4FF"/>
<path d="M22.2891 34.6088C22.9205 34.715 23.5177 34.2944 23.6228 33.6694C23.7279 33.0443 23.3012 32.4515 22.6697 32.3454C22.0383 32.2392 21.4412 32.6598 21.336 33.2848C21.2309 33.9099 21.6576 34.5026 22.2891 34.6088Z" fill="#68A4FF"/>
<path d="M35.375 36.7951C36.0065 36.9013 36.6036 36.4807 36.7087 35.8557C36.8138 35.2306 36.3871 34.6378 35.7557 34.5316C35.1242 34.4254 34.5271 34.8461 34.422 35.4711C34.3169 36.0961 34.7436 36.6889 35.375 36.7951Z" fill="#68A4FF"/>
<path fill-rule="evenodd" clip-rule="evenodd" d="M32.4553 27.78L27.6157 27.7157L27.6215 27.2749L32.4611 27.3391L32.4553 27.78Z" fill="#68A4FF"/>
<path d="M27.4678 28.3563C27.9418 28.3563 28.3261 27.9759 28.3261 27.5066C28.3261 27.0374 27.9418 26.657 27.4678 26.657C26.9937 26.657 26.6094 27.0374 26.6094 27.5066C26.6094 27.9759 26.9937 28.3563 27.4678 28.3563Z" fill="#68A4FF"/>
<path d="M32.2344 28.3514C32.7084 28.3514 33.0927 27.971 33.0927 27.5018C33.0927 27.0325 32.7084 26.6521 32.2344 26.6521C31.7603 26.6521 31.376 27.0325 31.376 27.5018C31.376 27.971 31.7603 28.3514 32.2344 28.3514Z" fill="#68A4FF"/>
<path opacity="0.8" d="M33.926 29.6998L24.707 28.8608L24.6777 29.1834L33.8966 30.0223L33.926 29.6998Z" fill="#68A4FF"/>
<path fill-rule="evenodd" clip-rule="evenodd" d="M33.4176 30.1609L25.0803 29.3174L25.1246 28.8788L33.462 29.7222L33.4176 30.1609Z" fill="#68A4FF"/>
<path d="M25.2089 29.9997C25.7062 30.0449 26.1456 29.6826 26.1904 29.1904C26.2352 28.6982 25.8684 28.2624 25.3711 28.2172C24.8738 28.1719 24.4344 28.5343 24.3896 29.0265C24.3448 29.5187 24.7116 29.9544 25.2089 29.9997Z" fill="#68A4FF"/>
<path d="M33.2533 30.7238C33.7506 30.7691 34.1901 30.4067 34.2348 29.9145C34.2796 29.4223 33.9128 28.9866 33.4155 28.9413C32.9183 28.8961 32.4788 29.2584 32.434 29.7506C32.3892 30.2428 32.7561 30.6786 33.2533 30.7238Z" fill="#68A4FF"/>
<path fill-rule="evenodd" clip-rule="evenodd" d="M33.977 32.8235L24.0568 31.2805L24.1246 30.8449L34.0447 32.3879L33.977 32.8235Z" fill="#68A4FF"/>
<path d="M23.694 32.0823C24.2718 32.1671 24.8083 31.7722 24.8923 31.2002C24.9762 30.6282 24.5758 30.0958 23.998 30.011C23.4201 29.9262 22.8836 30.3211 22.7997 30.8931C22.7157 31.4651 23.1161 31.9975 23.694 32.0823Z" fill="#68A4FF"/>
<path d="M34.2037 33.614C34.7816 33.6988 35.3181 33.3039 35.402 32.7319C35.486 32.1599 35.0856 31.6275 34.5077 31.5427C33.9299 31.4579 33.3934 31.8528 33.3094 32.4248C33.2255 32.9968 33.6259 33.5292 34.2037 33.614Z" fill="#68A4FF"/>
</svg>
