<svg width="24" height="22" viewBox="0 0 24 22" fill="none" xmlns="http://www.w3.org/2000/svg">
<path fill-rule="evenodd" clip-rule="evenodd" d="M6.04346 5.52641L6.34839 5.47097C6.47096 5.44868 6.6546 5.39478 6.80369 5.30912C6.95936 5.21969 7.03489 5.12183 7.03489 5.02402C7.03489 4.55568 7.19474 2.5401 9.86513 1.20491L9.98616 1.44698C7.43574 2.72219 7.30554 4.62223 7.30554 5.02402C7.30554 5.27426 7.1152 5.44228 6.93852 5.54379C6.8543 5.59218 6.76334 5.63145 6.67571 5.66229L6.69421 5.67617C6.79504 5.66251 6.91926 5.68187 7.03187 5.769C7.17374 5.87878 7.27382 6.07776 7.30487 6.38827C7.33633 6.7029 7.58041 7.09149 7.93415 7.42755C8.28546 7.76129 8.71574 8.0152 9.07972 8.08138L9.0313 8.34766C8.59766 8.26881 8.12155 7.97888 7.74774 7.62377C7.37637 7.27097 7.07661 6.82568 7.03557 6.4152C7.00861 6.14562 6.92741 6.03038 6.86624 5.98305C6.80557 5.9361 6.74171 5.93793 6.70543 5.95002L6.63817 5.97244L6.04346 5.52641Z" fill="#68A4FF"/>
<path fill-rule="evenodd" clip-rule="evenodd" d="M8.64846 4.62243L8.95528 4.6662C9.07861 4.68379 9.26988 4.69069 9.4384 4.65654C9.61435 4.62088 9.71694 4.55192 9.74786 4.45912C9.89587 4.01478 10.6845 2.15302 13.64 1.73021L13.6783 1.99813C10.8556 2.40195 10.1316 4.16345 10.0046 4.54465C9.92554 4.78207 9.69186 4.88132 9.49216 4.92179C9.39696 4.94108 9.29825 4.94959 9.20536 4.95116L9.21853 4.97017C9.31851 4.98908 9.43025 5.0467 9.50955 5.16496C9.60945 5.31395 9.64151 5.53436 9.57284 5.83876C9.50325 6.14721 9.61201 6.59303 9.84141 7.02366C10.0692 7.45132 10.3972 7.8282 10.7216 8.00601L10.5915 8.24335C10.205 8.03149 9.84497 7.60596 9.60255 7.15091C9.36171 6.69882 9.21804 6.18162 9.30883 5.7792C9.36845 5.51492 9.32783 5.37993 9.28476 5.31569C9.24203 5.25197 9.18086 5.23353 9.14263 5.23353L9.07172 5.23355L8.64846 4.62243Z" fill="#68A4FF"/>
<path fill-rule="evenodd" clip-rule="evenodd" d="M14.874 3.47353C14.1824 3.71727 13.3655 4.14508 12.8205 4.88142C12.3728 5.48627 12.0738 6.21491 11.8865 6.7971C11.7931 7.08732 11.7281 7.33921 11.6865 7.51826C11.6657 7.60775 11.6507 7.67894 11.6411 7.7275C11.6362 7.75178 11.6327 7.77039 11.6304 7.7828L11.6279 7.7967L11.6273 7.80002L11.6271 7.80076C11.6271 7.80075 11.6271 7.80087 11.4938 7.77796C11.3604 7.75505 11.3604 7.75502 11.3604 7.75498L11.3605 7.75453L11.3607 7.75337L11.3614 7.7492L11.3643 7.73356C11.3668 7.71997 11.3705 7.70012 11.3756 7.67456C11.3858 7.62345 11.4014 7.54947 11.4229 7.45699C11.4658 7.27209 11.5328 7.01283 11.6289 6.7142C11.8205 6.11868 12.1304 5.35879 12.6029 4.72041C13.1935 3.92245 14.068 3.47061 14.7841 3.21827C15.1434 3.09164 15.4663 3.01401 15.6996 2.96798C15.8163 2.94495 15.9109 2.92978 15.9767 2.92033C16.0095 2.91561 16.0352 2.91231 16.0529 2.91017C16.0618 2.9091 16.0686 2.90832 16.0734 2.9078L16.0789 2.9072L16.0805 2.90704L16.0809 2.90699C16.081 2.90698 16.0812 2.90696 16.0947 3.04161C16.1082 3.17626 16.1082 3.17626 16.1082 3.17626L16.1072 3.17636L16.103 3.17681C16.0992 3.17724 16.0933 3.17791 16.0854 3.17886C16.0696 3.18077 16.0459 3.1838 16.0152 3.18823C15.9536 3.19708 15.8637 3.21147 15.752 3.23351C15.5284 3.27761 15.2185 3.35212 14.874 3.47353Z" fill="#68A4FF"/>
<path fill-rule="evenodd" clip-rule="evenodd" d="M4.4702 7.62218L4.50458 7.51904C4.52936 7.4447 4.57445 7.37605 4.61275 7.31933C4.61877 7.31042 4.62472 7.30166 4.63059 7.29303C4.6652 7.2421 4.69698 7.19533 4.72419 7.14358C4.78275 7.03222 4.81596 6.90576 4.74872 6.72444C4.66772 6.506 4.50163 5.94951 4.61357 5.17246C4.7257 4.39414 5.11529 3.40518 6.12936 2.3211L6.32701 2.50599C5.34734 3.55329 4.985 4.49229 4.88145 5.21106C4.77772 5.9311 4.93221 6.44085 5.00248 6.63033C5.10189 6.89843 5.05004 7.10542 4.96374 7.26954C4.92879 7.33601 4.88741 7.39678 4.8531 7.44716C4.84754 7.45532 4.84217 7.4632 4.83705 7.47079C4.8274 7.48508 4.81867 7.49825 4.81082 7.5105L4.87095 7.54645C4.93651 7.50891 5.02017 7.47873 5.11418 7.48716C5.26499 7.50068 5.38885 7.60676 5.47965 7.79246C5.61933 8.07814 5.98388 8.36832 6.43103 8.57096C6.87576 8.77251 7.36503 8.87043 7.7273 8.80628L7.77449 9.07278C7.33847 9.14999 6.79138 9.03142 6.31931 8.81748C5.84964 8.60463 5.41692 8.28032 5.23651 7.91134C5.16882 7.7729 5.11102 7.7586 5.09001 7.75672C5.05669 7.75373 5.01073 7.77191 4.96036 7.81239L4.88697 7.87135L4.4702 7.62218Z" fill="#68A4FF"/>
<path fill-rule="evenodd" clip-rule="evenodd" d="M3.65506 10.0262L3.63035 9.91031C3.60806 9.80582 3.61097 9.70219 3.61908 9.60778C3.62259 9.56688 3.6273 9.5256 3.63179 9.4863C3.63249 9.48024 3.63317 9.47422 3.63385 9.46825C3.63902 9.42274 3.64368 9.37951 3.64654 9.33681C3.65769 9.17005 3.6405 9.02557 3.51596 8.88369C3.40534 8.75765 3.27375 8.51868 3.15345 8.22481C3.03153 7.92698 2.91607 7.56014 2.84294 7.1697C2.69825 6.39721 2.71257 5.4937 3.22259 4.86598L3.43265 5.03665C3.00002 5.56912 2.96843 6.36963 3.10896 7.11987C3.17843 7.4908 3.28837 7.84 3.40392 8.12227C3.52109 8.40849 3.63905 8.61365 3.71937 8.70515C3.91102 8.9235 3.93009 9.15286 3.91658 9.35487C3.91327 9.40436 3.90796 9.45302 3.90277 9.49877C3.90206 9.50505 3.90135 9.51125 3.90065 9.5174C3.89613 9.55698 3.8919 9.59411 3.88873 9.63094C3.8855 9.66861 3.88363 9.70377 3.88375 9.73694L3.92977 9.73337C3.93352 9.71542 3.93823 9.6977 3.94402 9.68047C3.9628 9.62451 3.99762 9.56033 4.062 9.51901C4.13182 9.47419 4.21287 9.47109 4.28974 9.49645C4.36221 9.52035 4.43458 9.57001 4.50761 9.63814C4.74496 9.85959 5.13016 9.99857 5.55062 10.0616C5.96824 10.1242 6.39822 10.1085 6.7063 10.0401L6.76501 10.3043C6.4205 10.3808 5.95671 10.3962 5.5105 10.3293C5.06714 10.2628 4.61846 10.1117 4.32298 9.83603C4.2648 9.78175 4.22612 9.76065 4.20569 9.75371C4.20417 9.75693 4.20242 9.76115 4.20059 9.7666C4.1931 9.78892 4.18808 9.82101 4.18808 9.85954L4.18808 9.98475L3.65506 10.0262Z" fill="#68A4FF"/>
<path fill-rule="evenodd" clip-rule="evenodd" d="M3.8153 12.2923L3.78001 12.1946C3.75158 12.1159 3.74222 12.0345 3.73524 11.9682C3.73462 11.9623 3.73402 11.9565 3.73343 11.9509C3.72684 11.8877 3.72164 11.8379 3.70887 11.7911C3.69601 11.744 3.67684 11.7066 3.64425 11.6744C3.6108 11.6414 3.55479 11.6057 3.4552 11.5769C3.28636 11.5281 3.07321 11.3867 2.85803 11.1954C2.63883 11.0005 2.40428 10.7419 2.1935 10.4414C1.77431 9.844 1.43535 9.0609 1.525 8.27179L1.79392 8.30234C1.71482 8.99853 2.01443 9.71501 2.41505 10.286C2.61417 10.5698 2.83483 10.8126 3.03787 10.9931C3.24494 11.1773 3.42109 11.2853 3.53032 11.3169C3.66098 11.3546 3.76081 11.4092 3.83438 11.4818C3.90882 11.5553 3.94785 11.6389 3.96996 11.7198C3.98488 11.7745 3.99265 11.8308 3.99824 11.8812C4.00194 11.8694 4.00645 11.8576 4.01195 11.8459C4.0441 11.7774 4.10263 11.7281 4.183 11.706C4.25575 11.686 4.34192 11.6891 4.43927 11.707C4.77298 11.7683 5.18698 11.7352 5.56331 11.632C5.94347 11.5279 6.25844 11.3597 6.41374 11.1734L6.62165 11.3467C6.41436 11.5954 6.03628 11.7831 5.63484 11.8931C5.22957 12.0041 4.77344 12.0435 4.3904 11.9732C4.31104 11.9586 4.27147 11.9625 4.25531 11.9668C4.255 11.9683 4.25467 11.9702 4.25436 11.9725C4.25316 11.9812 4.25259 11.9928 4.25292 12.0084C4.25324 12.0241 4.25439 12.041 4.2559 12.061C4.25607 12.0633 4.25624 12.0656 4.25642 12.0679C4.25773 12.0853 4.25925 12.1053 4.26004 12.1246L4.26528 12.254L3.8153 12.2923Z" fill="#68A4FF"/>
<path fill-rule="evenodd" clip-rule="evenodd" d="M4.60581 14.0107L4.53355 13.936C4.48178 13.8826 4.44478 13.8203 4.41606 13.771C4.41356 13.7667 4.41113 13.7626 4.40875 13.7585C4.38112 13.711 4.36031 13.6752 4.33492 13.6444C4.30988 13.614 4.28434 13.5939 4.25147 13.5817C4.21747 13.569 4.16449 13.5607 4.07878 13.5729C3.92521 13.5948 3.7054 13.5582 3.46908 13.484C3.22762 13.4083 2.95185 13.2879 2.68008 13.1264C2.14011 12.8055 1.59501 12.3093 1.38544 11.6543L1.64322 11.5718C1.82428 12.1377 2.30615 12.5894 2.81834 12.8938C3.07265 13.0449 3.32927 13.1565 3.5501 13.2258C3.77607 13.2967 3.94845 13.3181 4.0406 13.305C4.15833 13.2882 4.25898 13.2957 4.34583 13.328C4.43382 13.3607 4.49639 13.4148 4.54377 13.4722C4.57346 13.5083 4.59864 13.5477 4.62002 13.5836C4.62238 13.5668 4.62653 13.5494 4.63299 13.5319C4.67838 13.4086 4.80726 13.3458 4.96256 13.3076C5.26144 13.234 5.61218 13.1274 5.93044 12.9619C6.24919 12.7962 6.52565 12.5765 6.68938 12.2818L6.92597 12.4133C6.72714 12.7712 6.4006 13.0225 6.05529 13.2021C5.70949 13.3818 5.33511 13.4946 5.02721 13.5704C4.95964 13.587 4.92118 13.604 4.90057 13.617C4.895 13.6205 4.89127 13.6233 4.88886 13.6254C4.88909 13.6266 4.8894 13.6279 4.8898 13.6295C4.89338 13.6434 4.90119 13.662 4.91539 13.6904L4.97324 13.8062L4.60581 14.0107Z" fill="#68A4FF"/>
<path fill-rule="evenodd" clip-rule="evenodd" d="M6.10878 15.4167L6.01539 15.3713C5.94849 15.3387 5.89245 15.2928 5.84863 15.2562C5.84482 15.2531 5.84111 15.25 5.83747 15.2469C5.79529 15.2117 5.76351 15.1852 5.72913 15.1649C5.69523 15.1449 5.66436 15.1347 5.62929 15.1344C5.59301 15.1342 5.54039 15.1445 5.46399 15.1852C5.33264 15.2552 5.12797 15.3075 4.89237 15.334C4.65341 15.3609 4.37073 15.3627 4.07704 15.324C3.49244 15.247 2.84448 15.0066 2.42258 14.4608L2.63671 14.2953C2.99872 14.7636 3.56711 14.9839 4.11236 15.0557C4.3836 15.0914 4.64423 15.0895 4.8621 15.065C5.08332 15.0401 5.24899 14.9931 5.33664 14.9464C5.44158 14.8904 5.53872 14.8631 5.63139 14.8638C5.72527 14.8645 5.80252 14.894 5.86668 14.9318C5.90688 14.9556 5.94401 14.984 5.97636 15.0104C5.97283 14.9938 5.97082 14.9761 5.97091 14.9575C5.97148 14.826 6.07117 14.723 6.20409 14.6341C6.69648 14.3047 7.07045 13.8192 7.18173 13.124L7.44898 13.1668C7.32425 13.9459 6.90095 14.4935 6.35458 14.859C6.29674 14.8977 6.2664 14.9269 6.25145 14.9461C6.24741 14.9513 6.24488 14.9552 6.24332 14.958C6.24393 14.959 6.24468 14.9602 6.2456 14.9615C6.25372 14.9734 6.26739 14.9881 6.29045 15.01L6.38433 15.0991L6.10878 15.4167Z" fill="#68A4FF"/>
<path fill-rule="evenodd" clip-rule="evenodd" d="M7.81397 15.8418L7.71014 15.8389C7.63576 15.8369 7.56576 15.8182 7.51077 15.803C7.506 15.8017 7.50134 15.8004 7.49677 15.7991C7.44381 15.7844 7.40393 15.7734 7.36424 15.7691C7.32511 15.7649 7.29278 15.7683 7.26072 15.7825C7.22756 15.7973 7.18387 15.8284 7.1311 15.897C7.04076 16.0145 6.88094 16.1441 6.68339 16.2624C6.48331 16.3823 6.23525 16.496 5.96042 16.5774C5.41257 16.7397 4.74227 16.7773 4.1343 16.4551L4.26105 16.2159C4.78566 16.494 5.37715 16.4679 5.88358 16.3179C6.13589 16.2432 6.3631 16.1388 6.54433 16.0302C6.72809 15.9202 6.8556 15.8113 6.91655 15.732C6.98904 15.6377 7.06624 15.5727 7.15095 15.5352C7.23676 15.4971 7.31928 15.492 7.39334 15.5C7.43975 15.505 7.48533 15.5157 7.52569 15.5264C7.51562 15.5127 7.50649 15.4974 7.49886 15.4804C7.44515 15.3604 7.49343 15.2254 7.57782 15.0896C7.73477 14.8369 7.85223 14.5464 7.9128 14.2777C7.97444 14.0042 7.9726 13.774 7.91513 13.6303L8.16641 13.5298C8.25399 13.7487 8.24301 14.0435 8.17682 14.3372C8.10955 14.6356 7.98048 14.9542 7.80772 15.2324C7.771 15.2915 7.75539 15.3305 7.7497 15.3542C7.74816 15.3606 7.74748 15.3652 7.74721 15.3684C7.74818 15.3691 7.74935 15.3698 7.75074 15.3707C7.76305 15.3782 7.78158 15.3859 7.8116 15.3964L7.93389 15.4388L7.81397 15.8418Z" fill="#68A4FF"/>
<path fill-rule="evenodd" clip-rule="evenodd" d="M9.48048 15.9282L9.38015 15.9552C9.30828 15.9744 9.23586 15.9765 9.17882 15.9777C9.17388 15.9778 9.16904 15.9779 9.1643 15.9779C9.10936 15.979 9.06798 15.9798 9.02872 15.9871C8.99001 15.9942 8.96001 16.0067 8.93335 16.0295C8.90577 16.0531 8.87279 16.0954 8.84183 16.1762C8.78751 16.318 8.66404 16.4841 8.50148 16.6458C8.33632 16.8101 8.12152 16.9791 7.87237 17.1245C7.37572 17.4143 6.72806 17.6181 6.05682 17.4837L6.10997 17.2183C6.6956 17.3356 7.27519 17.1596 7.73597 16.8908C7.96553 16.7568 8.16198 16.6018 8.3106 16.454C8.4618 16.3035 8.55462 16.1694 8.58909 16.0794C8.63163 15.9683 8.68705 15.884 8.75749 15.8238C8.82885 15.7628 8.90648 15.7344 8.97974 15.7209C9.02565 15.7124 9.07237 15.7096 9.1141 15.7083C9.10054 15.6981 9.08743 15.686 9.07524 15.6719C8.98951 15.5723 8.99722 15.4291 9.03928 15.2748C9.11541 14.9955 9.11565 14.704 9.06635 14.4521C9.01642 14.1969 8.91895 13.9981 8.81514 13.8932L9.00751 13.7028C9.16221 13.8591 9.27618 14.115 9.33196 14.4001C9.38838 14.6884 9.38861 15.0224 9.3004 15.346C9.2821 15.4131 9.27829 15.455 9.27959 15.4793C9.27995 15.4859 9.28063 15.4905 9.28127 15.4937C9.28239 15.494 9.28373 15.4944 9.2853 15.4948C9.29923 15.4985 9.31921 15.5006 9.35096 15.502L9.48026 15.5077L9.48048 15.9282Z" fill="#68A4FF"/>
<path fill-rule="evenodd" clip-rule="evenodd" d="M10.8587 15.2243L10.7779 15.2896C10.72 15.3363 10.6547 15.3676 10.603 15.3918C10.5985 15.3939 10.5941 15.3959 10.5898 15.3979C10.5401 15.4212 10.5026 15.4387 10.4696 15.4613C10.4371 15.4835 10.4148 15.5071 10.3996 15.5387C10.384 15.5715 10.371 15.6235 10.3755 15.71C10.3833 15.861 10.3417 16.0458 10.2654 16.2362C10.1882 16.429 10.0717 16.6374 9.91974 16.8379C9.6164 17.2379 9.16344 17.617 8.58331 17.7717L8.51358 17.5102C9.02111 17.3749 9.42695 17.0398 9.70408 16.6743C9.8423 16.492 9.94646 16.3047 10.0142 16.1356C10.0828 15.9642 10.1102 15.8208 10.1052 15.724C10.099 15.6052 10.1155 15.5056 10.1555 15.422C10.196 15.3373 10.2554 15.2799 10.3169 15.2378C10.3554 15.2115 10.397 15.1899 10.4346 15.1719C10.4181 15.168 10.4012 15.1623 10.3843 15.1543C10.2656 15.098 10.2145 14.964 10.1904 14.806C10.147 14.5218 10.0213 14.2587 9.88099 14.0676C9.81093 13.9721 9.73982 13.8982 9.67758 13.8495C9.61023 13.7969 9.57157 13.7881 9.56354 13.7881L9.56354 13.5175C9.66428 13.5175 9.7633 13.5731 9.84423 13.6363C9.93027 13.7035 10.018 13.7969 10.0992 13.9074C10.2613 14.1283 10.407 14.4315 10.458 14.7651C10.4685 14.8339 10.482 14.8737 10.493 14.8954C10.496 14.9013 10.4985 14.9053 10.5004 14.9078C10.5015 14.9077 10.5029 14.9075 10.5045 14.9073C10.5187 14.905 10.5379 14.8988 10.5675 14.8872L10.688 14.84L10.8587 15.2243Z" fill="#68A4FF"/>
<path fill-rule="evenodd" clip-rule="evenodd" d="M11.8107 14.3059L11.7611 14.3972C11.7255 14.4626 11.6771 14.5165 11.6387 14.5586C11.6353 14.5623 11.6321 14.5658 11.6289 14.5693C11.5918 14.6099 11.5639 14.6404 11.542 14.6739C11.5205 14.7068 11.509 14.7372 11.5071 14.7722C11.5052 14.8085 11.5131 14.8615 11.5504 14.9397C11.6771 15.2053 11.6813 15.6063 11.5473 16.0187C11.4117 16.4362 11.1301 16.8812 10.6609 17.2406L10.4963 17.0258C10.9207 16.7007 11.1707 16.302 11.2899 15.9351C11.4108 15.5629 11.393 15.2385 11.3061 15.0561C11.2549 14.9488 11.2319 14.8505 11.2368 14.758C11.2418 14.6642 11.2747 14.5884 11.3154 14.526C11.3409 14.4869 11.371 14.4511 11.3988 14.42C11.3821 14.4227 11.3643 14.4239 11.3457 14.423C11.2144 14.4165 11.116 14.3123 11.0331 14.1755C10.8764 13.9169 10.7018 13.7038 10.547 13.5677C10.4693 13.4993 10.4014 13.4546 10.3476 13.4315C10.2915 13.4074 10.2698 13.4144 10.2679 13.4151L10.1642 13.1651C10.2629 13.1242 10.3674 13.1454 10.4545 13.1829C10.5439 13.2213 10.636 13.2855 10.7258 13.3645C10.9062 13.5232 11.0975 13.7595 11.2646 14.0353C11.3007 14.0948 11.3284 14.1264 11.3469 14.1422C11.3519 14.1465 11.3557 14.1492 11.3584 14.1509C11.3595 14.1503 11.3607 14.1496 11.3621 14.1488C11.3743 14.1412 11.3896 14.1282 11.4125 14.1062L11.5058 14.0164L11.8107 14.3059Z" fill="#68A4FF"/>
<path fill-rule="evenodd" clip-rule="evenodd" d="M12.332 13.0316L12.319 13.1347C12.3096 13.2085 12.2841 13.2763 12.2636 13.3296C12.2619 13.3342 12.2601 13.3387 12.2584 13.3431C12.2386 13.3944 12.2237 13.433 12.2155 13.4721C12.2075 13.5106 12.2078 13.5431 12.2188 13.5764C12.2302 13.6109 12.2568 13.6574 12.3199 13.7166C12.5339 13.9175 12.6878 14.2899 12.7169 14.724C12.7464 15.1635 12.6498 15.6821 12.3431 16.1882L12.1116 16.0479C12.3884 15.5913 12.4728 15.1284 12.4469 14.7421C12.4206 14.3505 12.2827 14.0528 12.1347 13.914C12.048 13.8326 11.9909 13.7494 11.9618 13.6614C11.9323 13.5722 11.9354 13.4896 11.9506 13.4167C11.9602 13.371 11.9752 13.3267 11.9898 13.2876C11.9752 13.2963 11.9591 13.3038 11.9414 13.3098C11.8168 13.3515 11.6872 13.2902 11.5602 13.1929C11.322 13.0102 11.1116 12.9073 10.95 12.866C10.7805 12.8228 10.6993 12.8542 10.6724 12.8801L10.4849 12.6849C10.6148 12.5601 10.8176 12.5529 11.0169 12.6038C11.2241 12.6566 11.4672 12.7805 11.7249 12.9781C11.7801 13.0204 11.8175 13.0398 11.8405 13.0478C11.8467 13.0499 11.8512 13.0511 11.8544 13.0516C11.8551 13.0507 11.856 13.0496 11.857 13.0483C11.8656 13.0368 11.8752 13.0192 11.8885 12.9903L11.9427 12.8728L12.332 13.0316Z" fill="#68A4FF"/>
<path fill-rule="evenodd" clip-rule="evenodd" d="M12.3621 11.6081L12.3993 11.7051C12.4253 11.7729 12.4352 11.8374 12.4423 11.8894C12.4433 11.8966 12.4442 11.9034 12.4451 11.91C12.4511 11.9547 12.4554 11.9871 12.4648 12.0194C12.4814 12.0763 12.5169 12.1459 12.6725 12.2279C13.0851 12.4452 13.677 13.1383 13.6147 14.3126L13.3444 14.2983C13.4014 13.2243 12.8611 12.6331 12.5464 12.4673C12.3383 12.3578 12.2457 12.235 12.205 12.095C12.1948 12.06 12.1882 12.0246 12.1833 11.9922C12.1741 12.0078 12.1629 12.0232 12.1492 12.0377C12.0591 12.1333 11.9159 12.1405 11.758 12.1147C11.4583 12.0657 11.2482 12.0678 11.1102 12.0948C10.9683 12.1225 10.9274 12.1706 10.9183 12.1893L10.675 12.0708C10.7384 11.9406 10.8808 11.8639 11.0582 11.8292C11.2395 11.7937 11.4848 11.7958 11.8017 11.8476C11.8704 11.8589 11.9125 11.8583 11.9365 11.8545C11.943 11.8534 11.9475 11.8523 11.9506 11.8513C11.9508 11.8502 11.9511 11.8488 11.9513 11.8472C11.9535 11.833 11.9536 11.8129 11.9517 11.7811L11.9439 11.6519L12.3621 11.6081Z" fill="#68A4FF"/>
<path fill-rule="evenodd" clip-rule="evenodd" d="M12.0097 10.504L12.0775 10.5826C12.1276 10.6407 12.1509 10.6915 12.1669 10.7338C12.1712 10.7454 12.1745 10.7544 12.1772 10.7618C12.1848 10.7826 12.1874 10.7896 12.1946 10.8004C12.211 10.8247 12.2659 10.8812 12.5426 10.99C12.5621 10.9976 12.5818 11.0053 12.6016 11.0131C12.856 11.1123 13.1374 11.2222 13.3802 11.429C13.6479 11.657 13.8604 11.9936 13.9742 12.5375L13.7093 12.5929C13.6056 12.0974 13.4192 11.8177 13.2047 11.635C12.9979 11.4589 12.7571 11.3646 12.4953 11.2621C12.4781 11.2554 12.4609 11.2487 12.4436 11.2418C12.1692 11.134 12.0383 11.0529 11.97 10.9514C11.969 10.9498 11.9679 10.9483 11.9669 10.9467C11.9639 10.9578 11.96 10.9691 11.955 10.9804C11.9026 11.1009 11.7704 11.1562 11.6131 11.1854C11.3994 11.2252 11.1967 11.2706 11.0474 11.3242C10.9722 11.3512 10.9182 11.3777 10.8846 11.4017C10.861 11.4186 10.8563 11.4277 10.8563 11.4277C10.8563 11.4277 10.8577 11.425 10.8583 11.4194L10.5892 11.3905C10.5998 11.2923 10.6669 11.2247 10.7272 11.1815C10.7903 11.1365 10.8708 11.1001 10.9559 11.0695C11.127 11.008 11.3478 10.9595 11.5637 10.9194C11.6321 10.9066 11.6715 10.8919 11.6928 10.8801C11.6986 10.8769 11.7024 10.8743 11.705 10.8724C11.7048 10.8712 11.7046 10.8698 11.7043 10.8682C11.7015 10.8541 11.6948 10.8352 11.6822 10.806L11.6311 10.6871L12.0097 10.504Z" fill="#68A4FF"/>
<path fill-rule="evenodd" clip-rule="evenodd" d="M11.2267 9.62672L11.3133 9.67318C11.3808 9.70942 11.4207 9.74853 11.4508 9.78236C11.459 9.79157 11.4654 9.79884 11.4705 9.80474C11.4851 9.82144 11.49 9.8271 11.5006 9.83454C11.5246 9.85142 11.5961 9.8845 11.8933 9.88696C11.9118 9.88711 11.9304 9.88723 11.9491 9.88735C12.223 9.88912 12.5179 9.89102 12.8116 10C13.132 10.119 13.4383 10.359 13.738 10.8239L13.5105 10.9705C13.2349 10.543 12.9711 10.3479 12.7174 10.2538C12.4699 10.1619 12.2199 10.1601 11.936 10.1579C11.9211 10.1578 11.9062 10.1577 11.8911 10.1576C11.6326 10.1555 11.4845 10.133 11.3845 10.0801C11.3396 10.1987 11.2425 10.3122 11.0955 10.4023C10.9084 10.517 10.7401 10.6248 10.6241 10.7216C10.5658 10.7702 10.5279 10.8103 10.5074 10.8413C10.496 10.8585 10.4934 10.8673 10.493 10.8696C10.493 10.8685 10.493 10.8661 10.492 10.8626L10.2304 10.9319C10.2056 10.8381 10.2409 10.7533 10.2819 10.6916C10.3236 10.6288 10.3844 10.5691 10.4507 10.5138C10.584 10.4026 10.7687 10.2852 10.9541 10.1716C11.0654 10.1033 11.1156 10.0302 11.1333 9.97877C11.1519 9.92488 11.1347 9.90431 11.1344 9.90396L11.0391 9.80613L11.2267 9.62672Z" fill="#68A4FF"/>
<path fill-rule="evenodd" clip-rule="evenodd" d="M10.085 9.41487L10.1434 9.15742L10.2438 9.15747L10.2532 9.15877C10.3291 9.16941 10.38 9.19229 10.42 9.2136C10.4309 9.21941 10.4394 9.22404 10.4462 9.22779C10.4656 9.23843 10.4722 9.24203 10.4847 9.24535C10.5131 9.25287 10.5916 9.25918 10.8714 9.15862C10.9178 9.14191 10.9647 9.12419 11.0121 9.10626C11.233 9.02273 11.4654 8.93484 11.7214 8.92585C12.0446 8.9145 12.3942 9.02537 12.8351 9.35701L12.6724 9.5733C12.2647 9.26665 11.9746 9.18778 11.7309 9.19633C11.5235 9.20362 11.3411 9.27214 11.1228 9.35415C11.0717 9.37334 11.0187 9.39326 10.9629 9.41331C10.6932 9.51026 10.5421 9.53685 10.4253 9.50943C10.4413 9.63578 10.4098 9.78036 10.3012 9.9182C10.1679 10.0874 10.0661 10.2373 10.0092 10.3569C9.98064 10.4168 9.96674 10.4622 9.96278 10.4942C9.95979 10.5184 9.9632 10.5277 9.96411 10.5296C9.96409 10.5295 9.96413 10.5296 9.96411 10.5296L9.74257 10.685C9.69328 10.6148 9.68518 10.5337 9.69419 10.4609C9.7031 10.3889 9.72984 10.314 9.7648 10.2405C9.83486 10.0934 9.95152 9.92466 10.0886 9.75068C10.2278 9.57408 10.123 9.43301 10.085 9.41487ZM9.96432 10.5299C9.96431 10.5299 9.96423 10.5298 9.96411 10.5296Z" fill="#68A4FF"/>
<path fill-rule="evenodd" clip-rule="evenodd" d="M9.13906 9.43688L9.07832 9.17638C9.14716 9.14871 9.21084 9.13908 9.26343 9.13323C9.27954 9.13144 9.29371 9.13004 9.30657 9.12877C9.33951 9.12551 9.36391 9.1231 9.39062 9.11714C9.42186 9.11016 9.44983 9.0991 9.47951 9.07664C9.51055 9.05315 9.54891 9.01302 9.59387 8.94056C9.65923 8.83522 9.77018 8.73609 9.89373 8.65054C10.0197 8.56335 10.169 8.48317 10.3225 8.419C10.4758 8.35493 10.637 8.30518 10.787 8.28128C10.9335 8.25794 11.0853 8.25657 11.2093 8.30617L11.1088 8.55746C11.0515 8.53455 10.9571 8.52823 10.8296 8.54855C10.7056 8.56831 10.5653 8.61083 10.4269 8.6687C10.2887 8.72648 10.1563 8.79791 10.0478 8.87305C9.93691 8.94983 9.86076 9.02376 9.82384 9.08325C9.76653 9.17562 9.70724 9.24372 9.64283 9.29246C9.59314 9.33006 9.54374 9.35362 9.49572 9.36888C9.56232 9.4675 9.59896 9.59996 9.5752 9.76153C9.54385 9.97467 9.53029 10.1553 9.54049 10.2874C9.54559 10.3535 9.55617 10.3999 9.56866 10.4295C9.57812 10.452 9.58572 10.4584 9.58743 10.4596C9.58739 10.4595 9.58736 10.4595 9.58732 10.4595L9.47277 10.7047C9.39507 10.6684 9.34763 10.6021 9.3192 10.5345C9.29105 10.4676 9.2769 10.3893 9.27064 10.3082C9.2581 10.1457 9.2752 9.94132 9.30743 9.72215C9.34001 9.50063 9.18198 9.43361 9.13906 9.43688ZM9.58779 10.4598C9.58778 10.4598 9.58766 10.4597 9.58743 10.4596Z" fill="#68A4FF"/>
<path fill-rule="evenodd" clip-rule="evenodd" d="M8.18045 9.93576L7.97996 9.75871C8.02002 9.69626 8.06632 9.6515 8.10578 9.61624C8.11787 9.60545 8.1286 9.59609 8.13835 9.5876C8.1633 9.56585 8.18178 9.54974 8.20009 9.5294C8.22151 9.50561 8.23789 9.48038 8.24905 9.44488C8.26073 9.40774 8.26872 9.35281 8.26335 9.2677C8.24899 9.04002 8.32945 8.77488 8.45943 8.55683C8.58817 8.34086 8.78377 8.14117 9.02399 8.08294L9.08775 8.34597C8.94846 8.37973 8.80313 8.50881 8.69191 8.6954C8.58193 8.87991 8.5234 9.09114 8.53346 9.25066C8.54031 9.35915 8.53146 9.44901 8.50723 9.52606C8.48854 9.5855 8.46194 9.63334 8.43166 9.67361C8.5431 9.71536 8.64974 9.80206 8.72403 9.94749C8.82204 10.1393 8.91572 10.2944 9.00057 10.3961C9.04309 10.4471 9.07856 10.4787 9.10594 10.4956C9.12667 10.5084 9.13656 10.5092 9.13862 10.5092C9.13858 10.5092 9.13855 10.5092 9.1385 10.5092L9.1873 10.7754C9.10295 10.7909 9.02584 10.7643 8.96351 10.7258C8.9018 10.6876 8.84488 10.632 8.79277 10.5695C8.68835 10.4444 8.5838 10.2679 8.48302 10.0706C8.38115 9.87122 8.21353 9.90822 8.18045 9.93576ZM9.13904 10.5091C9.13904 10.5092 9.1389 10.5092 9.13862 10.5092Z" fill="#68A4FF"/>
<path fill-rule="evenodd" clip-rule="evenodd" d="M7.69823 10.8924L7.43199 10.8666C7.4278 10.7925 7.43903 10.7291 7.45031 10.6774C7.45377 10.6616 7.45697 10.6477 7.45988 10.6351C7.46733 10.6028 7.47285 10.579 7.47574 10.5517C7.47913 10.5199 7.47759 10.4899 7.4658 10.4546C7.45348 10.4177 7.42772 10.3685 7.37344 10.3027C7.08656 9.95503 7.07705 9.38785 7.37485 9.0386L7.58079 9.21421C7.37187 9.45922 7.37522 9.87961 7.5822 10.1304C7.65138 10.2143 7.69694 10.2922 7.72252 10.3689C7.74225 10.428 7.74878 10.4823 7.74788 10.5327C7.86262 10.5011 7.99984 10.5088 8.14533 10.583C8.33855 10.6815 8.48618 10.7436 8.5947 10.7687C8.70768 10.7947 8.73494 10.7715 8.74074 10.7654L8.93643 10.9524C8.82781 11.066 8.67233 11.0643 8.53387 11.0324C8.39094 10.9994 8.21841 10.924 8.02238 10.8241C7.8229 10.7223 7.70886 10.8506 7.69823 10.8924Z" fill="#68A4FF"/>
<path fill-rule="evenodd" clip-rule="evenodd" d="M7.74822 12.0051L7.51136 12.1294C7.46728 12.0697 7.44195 12.0105 7.42307 11.9611C7.41729 11.9459 7.41237 11.9325 7.40791 11.9204C7.39648 11.8894 7.38801 11.8663 7.37552 11.842C7.36092 11.8135 7.34319 11.7892 7.31399 11.7661C7.28346 11.742 7.23497 11.7149 7.15353 11.6896C7.14857 11.6881 7.1436 11.6866 7.13862 11.685C6.96589 11.6314 6.78253 11.5745 6.65222 11.4746C6.58098 11.42 6.52151 11.3502 6.48562 11.2588C6.45008 11.1682 6.4415 11.0662 6.45593 10.9527L6.72441 10.9869C6.71421 11.0671 6.72245 11.1214 6.73756 11.1599C6.75233 11.1975 6.77735 11.2295 6.81683 11.2598C6.90422 11.3267 7.04038 11.3711 7.23385 11.4312C7.33766 11.4634 7.41847 11.5037 7.48183 11.5538C7.53071 11.5925 7.56593 11.6344 7.59277 11.677C7.67149 11.5877 7.79049 11.519 7.95285 11.5014C8.04254 11.4917 8.11441 11.4853 8.17177 11.4802C8.18487 11.479 8.1972 11.4779 8.20882 11.4769C8.27371 11.471 8.31083 11.4669 8.33778 11.4611C8.36051 11.4562 8.37161 11.451 8.38267 11.4437C8.39744 11.434 8.4163 11.4176 8.45225 11.3817L8.64362 11.5731C8.60706 11.6096 8.5714 11.6435 8.53161 11.6697C8.4881 11.6984 8.44459 11.7149 8.39463 11.7257C8.34888 11.7355 8.29523 11.7408 8.23321 11.7464C8.22103 11.7475 8.2083 11.7487 8.19495 11.7499C8.13768 11.7549 8.06883 11.761 7.98203 11.7705C7.75943 11.7946 7.73427 11.9644 7.74822 12.0051Z" fill="#68A4FF"/>
<path fill-rule="evenodd" clip-rule="evenodd" d="M8.58283 12.7148L8.48432 12.9635C8.41198 12.947 8.35416 12.9186 8.30761 12.8934C8.29335 12.8857 8.28091 12.8788 8.26962 12.8725C8.24069 12.8564 8.21926 12.8445 8.19391 12.8342C8.16427 12.8221 8.13498 12.8153 8.09779 12.8168C8.0589 12.8184 8.00451 12.8296 7.92627 12.8635C7.92151 12.8656 7.91673 12.8676 7.91195 12.8697C7.74603 12.9417 7.56991 13.0181 7.40601 13.0274C7.31641 13.0325 7.22578 13.0184 7.13894 12.9725C7.05292 12.927 6.97991 12.8553 6.91684 12.7599L7.14263 12.6106C7.18722 12.6781 7.22888 12.7139 7.26544 12.7332C7.30117 12.7521 7.34102 12.7601 7.39068 12.7572C7.5006 12.751 7.63273 12.6958 7.81859 12.6152C7.91833 12.5719 8.00585 12.5498 8.08655 12.5464C8.14881 12.5438 8.20283 12.5526 8.25099 12.5674C8.25245 12.4484 8.29782 12.3187 8.40941 12.1995C8.55811 12.0406 8.72366 11.9388 8.84834 11.8621C8.86115 11.8543 8.87353 11.8466 8.88541 11.8393C8.95253 11.7976 8.99787 11.767 9.02777 11.7383C9.05525 11.7119 9.05755 11.6986 9.05803 11.6923L9.32792 11.7125C9.32072 11.8085 9.27091 11.8801 9.21521 11.9335C9.16193 11.9847 9.09302 12.0289 9.02819 12.0692C9.01608 12.0767 9.00386 12.0842 8.99155 12.0918C8.86529 12.1697 8.72966 12.2534 8.60702 12.3844C8.45402 12.5479 8.5457 12.693 8.58283 12.7148Z" fill="#68A4FF"/>
<path fill-rule="evenodd" clip-rule="evenodd" d="M9.6735 12.6477L9.76081 12.9005C9.69519 12.9352 9.63285 12.9513 9.58114 12.9626C9.5653 12.966 9.55136 12.9689 9.53869 12.9715C9.50626 12.9781 9.48224 12.983 9.45629 12.9917C9.42593 13.0019 9.39926 13.0158 9.37206 13.0412C9.34361 13.0677 9.30959 13.1116 9.27235 13.1883C9.24322 13.2483 9.21819 13.307 9.19275 13.3667C9.1826 13.3905 9.17238 13.4144 9.16182 13.4387C9.1265 13.5197 9.08718 13.6042 9.0376 13.6755C8.98713 13.748 8.92006 13.8158 8.8255 13.8525C8.73006 13.8895 8.62462 13.8878 8.51075 13.8554L8.58479 13.5951C8.65871 13.6161 8.70135 13.6103 8.72768 13.6001C8.75489 13.5896 8.78329 13.5671 8.81541 13.5209C8.84841 13.4735 8.87878 13.4107 8.9137 13.3306C8.92256 13.3102 8.93176 13.2887 8.94132 13.2662C8.96761 13.2046 8.99665 13.1365 9.02888 13.0701C9.07635 12.9723 9.1283 12.8985 9.18733 12.8434C9.23287 12.8008 9.27958 12.7723 9.32576 12.7522C9.24934 12.6609 9.19923 12.533 9.20619 12.3698C9.21135 12.2488 9.2311 12.1564 9.25875 12.0829C9.28672 12.0086 9.32075 11.9591 9.34578 11.9249C9.34969 11.9196 9.35289 11.9152 9.35556 11.9116C9.36227 11.9025 9.36564 11.898 9.3687 11.8931C9.36946 11.8919 9.36976 11.8913 9.36975 11.8914C9.36973 11.8914 9.36669 11.8969 9.36502 11.9063C9.36476 11.9078 9.36455 11.9092 9.36438 11.9106L9.57235 11.7574C9.6087 11.8068 9.64583 11.8731 9.63148 11.9537C9.62499 11.9902 9.6096 12.0185 9.59758 12.0376C9.58869 12.0517 9.57731 12.067 9.56912 12.0781C9.56729 12.0805 9.56562 12.0828 9.56417 12.0848C9.54582 12.1098 9.52771 12.1366 9.51206 12.1782C9.49609 12.2207 9.48073 12.2841 9.47659 12.3813C9.46705 12.605 9.63115 12.6554 9.6735 12.6477Z" fill="#68A4FF"/>
<path fill-rule="evenodd" clip-rule="evenodd" d="M9.79419 11.446L10.0608 11.4677C10.0648 11.5238 10.0602 11.5835 10.0562 11.6343L10.0559 11.6384C10.0517 11.6915 10.0479 11.7402 10.049 11.7895C10.051 11.8858 10.0713 11.9758 10.1451 12.0625C10.1873 12.112 10.2458 12.1641 10.3148 12.223C10.3239 12.2308 10.3332 12.2387 10.3427 12.2468C10.4013 12.2966 10.4653 12.3511 10.5195 12.4058C10.5809 12.4678 10.6456 12.5454 10.6742 12.6363C10.7068 12.7399 10.6883 12.8468 10.6102 12.9413L10.4016 12.7689C10.4225 12.7436 10.4205 12.7319 10.416 12.7176C10.4075 12.6906 10.3814 12.651 10.3272 12.5962C10.2818 12.5504 10.2279 12.5045 10.1686 12.454C10.1589 12.4457 10.149 12.4373 10.139 12.4288C10.0713 12.3709 9.997 12.306 9.93905 12.2379C9.84262 12.1246 9.80149 12.0061 9.78613 11.8955C9.77291 11.9021 9.75902 11.9079 9.74444 11.9127C9.66501 11.9391 9.57895 11.933 9.49412 11.8914C9.42938 11.8596 9.37804 11.8332 9.33728 11.8122C9.328 11.8074 9.31928 11.8029 9.31106 11.7987C9.26465 11.7748 9.23939 11.7626 9.22063 11.7557C9.20593 11.7503 9.19967 11.7499 9.19309 11.75C9.18207 11.7502 9.16481 11.7526 9.12541 11.7614L9.06607 11.4974C9.10633 11.4883 9.14712 11.4801 9.18811 11.4794C9.23355 11.4785 9.27328 11.4867 9.31413 11.5018C9.35092 11.5153 9.39077 11.5354 9.43462 11.5579C9.44334 11.5623 9.45241 11.567 9.46193 11.5719C9.5026 11.5929 9.55124 11.6179 9.61338 11.6484C9.63911 11.6611 9.65181 11.6583 9.65909 11.6559C9.67073 11.652 9.68854 11.6409 9.71013 11.6152C9.75498 11.562 9.78535 11.483 9.79419 11.446Z" fill="#68A4FF"/>
<path fill-rule="evenodd" clip-rule="evenodd" d="M3.07304 13.9085C3.97472 15.5012 5.36339 16.652 6.91462 16.9002C10.2547 17.4346 13.1032 15.4356 13.1648 12.4784C13.1963 10.9687 12.566 10.0439 11.7698 9.51073C10.9384 8.95391 9.88872 8.80171 9.1108 8.95131C8.41001 9.08608 7.90638 9.54357 7.58876 10.1123C7.25826 10.7041 7.18537 11.316 7.25171 11.6256C7.3306 11.9938 7.5636 12.4215 7.91543 12.7192C8.25051 13.0028 8.6822 13.1628 9.21898 13.0605C9.67398 12.9739 9.97244 12.6307 10.0754 12.2128C10.141 11.9464 10.1144 11.7239 10.0431 11.5622C10.0743 11.7703 10.0191 11.977 9.90856 12.1427C9.75999 12.3656 9.54258 12.4786 9.37233 12.532C9.19388 12.5879 8.99999 12.6011 8.81405 12.5717C8.43271 12.5115 7.97657 12.2373 7.88054 11.6611C7.82977 11.3565 7.92269 11.0603 8.03095 10.8455C8.14776 10.6136 8.3279 10.3838 8.56538 10.2039C8.80638 10.0213 9.118 9.88235 9.48378 9.86455C9.85304 9.84658 10.2262 9.95461 10.5816 10.1831C11.4116 10.7167 11.587 11.7341 11.3893 12.5365C11.1841 13.3695 10.5399 14.1865 9.47218 14.3899C8.48618 14.5777 7.6489 14.2664 7.04133 13.7523C6.45051 13.2524 6.06716 12.5562 5.92852 11.9092C5.77733 11.2036 5.95826 10.2565 6.40728 9.4525C6.86919 8.62541 7.67077 7.85022 8.85524 7.62243C9.96258 7.40948 11.3783 7.61984 12.5228 8.38635C13.7026 9.17649 14.5588 10.5358 14.5178 12.5066C14.4344 16.5105 10.6119 18.8622 6.70082 18.2364C4.62648 17.9045 2.93342 16.4087 1.89543 14.5752C0.855789 12.7388 0.409299 10.4574 0.931253 8.40975C1.94193 4.4448 5.85878 0.649132 11.0133 0.649132C13.8497 0.649132 16.0701 1.21265 17.922 2.39619C19.766 3.57469 21.18 5.32717 22.4769 7.58754C23.5803 9.51068 23.8214 11.7348 23.7549 13.6287C23.6882 15.5307 23.3286 17.0027 23.1313 17.7919L21.778 17.2506C21.9674 16.493 22.3407 15.3418 22.4025 13.5813C22.4646 11.8127 22.23 9.87642 21.3032 8.26101C20.0622 6.09819 18.7814 4.55141 17.1933 3.53644C15.613 2.52652 13.6641 2.00236 11.0133 2.00236C6.54273 2.00236 3.11717 5.31281 2.24255 8.744C1.82186 10.3944 2.173 12.3187 3.07304 13.9085ZM8.7012 11.6244C8.70073 11.6291 8.70031 11.6339 8.69994 11.6386C8.69139 11.7511 8.71769 11.858 8.76566 11.9463C8.85461 12.1102 8.99072 12.1725 9.06785 12.1936C9.15286 12.2168 9.26804 12.2196 9.38758 12.1613C9.49256 12.11 9.56645 12.0279 9.60846 11.9427C9.62221 11.9148 9.63254 11.8866 9.63944 11.859L8.7012 11.6244Z" fill="#CCBA79"/>
<path d="M9.02343 12.3916C9.37815 12.4437 9.70748 12.2013 9.75901 11.8501C9.81054 11.499 9.56475 11.1722 9.21003 11.1201C8.85531 11.0681 8.52598 11.3105 8.47445 11.6616C8.42292 12.0127 8.66871 12.3396 9.02343 12.3916Z" fill="#CCBA79"/>
<path d="M18.7647 11.6739C19.1024 11.6739 19.3762 11.4029 19.3762 11.0687C19.3762 10.7344 19.1024 10.4634 18.7647 10.4634C18.427 10.4634 18.1532 10.7344 18.1532 11.0687C18.1532 11.4029 18.427 11.6739 18.7647 11.6739Z" fill="#68A4FF"/>
<path fill-rule="evenodd" clip-rule="evenodd" d="M19.4104 9.11325L16.8392 10.6019L16.7035 10.3677L19.2748 8.87903L19.4104 9.11325Z" fill="#68A4FF"/>
<path d="M19.5773 9.51931C19.8339 9.38208 19.9318 9.06491 19.796 8.8109C19.6602 8.55688 19.342 8.4622 19.0854 8.59943C18.8288 8.73666 18.7308 9.05382 18.8667 9.30784C19.0025 9.56186 19.3207 9.65654 19.5773 9.51931Z" fill="#68A4FF"/>
<path d="M16.9988 10.9014C17.2554 10.7642 17.3533 10.447 17.2175 10.193C17.0817 9.93896 16.7635 9.84428 16.5069 9.98151C16.2503 10.1187 16.1524 10.4359 16.2882 10.6899C16.424 10.9439 16.7422 11.0386 16.9988 10.9014Z" fill="#68A4FF"/>
<path fill-rule="evenodd" clip-rule="evenodd" d="M19.4212 7.21204L15.2261 10.1891L15.0695 9.96842L19.2646 6.99132L19.4212 7.21204Z" fill="#68A4FF"/>
<path d="M19.658 7.45517C19.9075 7.2771 19.9669 6.93255 19.7906 6.68559C19.6144 6.43864 19.2692 6.3828 19.0197 6.56087C18.7702 6.73894 18.7109 7.0835 18.8871 7.33045C19.0634 7.5774 19.4085 7.63324 19.658 7.45517Z" fill="#68A4FF"/>
<path d="M15.6252 10.3397C15.8747 10.1616 15.9341 9.81707 15.7578 9.57011C15.5815 9.32316 15.2364 9.26732 14.9869 9.44539C14.7374 9.62347 14.678 9.96802 14.8543 10.215C15.0306 10.4619 15.3757 10.5178 15.6252 10.3397Z" fill="#68A4FF"/>
<path fill-rule="evenodd" clip-rule="evenodd" d="M19.0248 5.17487L13.7472 9.64054L13.5724 9.43393L18.85 4.96826L19.0248 5.17487Z" fill="#68A4FF"/>
<path d="M19.143 5.66428C19.4166 5.43259 19.4525 5.02523 19.2232 4.75441C18.9939 4.48358 18.5862 4.45185 18.3125 4.68353C18.0389 4.91521 18.003 5.32257 18.2324 5.5934C18.4617 5.86423 18.8694 5.89596 19.143 5.66428Z" fill="#68A4FF"/>
<path d="M14.1711 9.88254C14.4447 9.65086 14.4806 9.24349 14.2513 8.97267C14.0219 8.70184 13.6142 8.67011 13.3406 8.90179C13.067 9.13347 13.0311 9.54084 13.2604 9.81166C13.4898 10.0825 13.8975 10.1142 14.1711 9.88254Z" fill="#68A4FF"/>
<path d="M16.3858 3.35887C16.6272 3.09378 16.6102 2.68519 16.3478 2.44627C16.0854 2.20734 15.677 2.22855 15.4356 2.49364C15.1942 2.75873 15.2112 3.16732 15.4736 3.40625C15.736 3.64517 16.1444 3.62396 16.3858 3.35887Z" fill="#68A4FF"/>
<path d="M12.0004 8.18406C12.2418 7.91897 12.2248 7.51039 11.9624 7.27146C11.7 7.03254 11.2916 7.05375 11.0502 7.31884C10.8088 7.58393 10.8259 7.99252 11.0883 8.23144C11.3507 8.47037 11.7591 8.44915 12.0004 8.18406Z" fill="#68A4FF"/>
<path fill-rule="evenodd" clip-rule="evenodd" d="M17.8114 3.95343L12.8045 8.55455L12.6213 8.35527L17.6283 3.75415L17.8114 3.95343Z" fill="#68A4FF"/>
<path d="M18.3848 4.29582C18.6513 4.05607 18.675 3.64781 18.4377 3.38396C18.2004 3.1201 17.792 3.10056 17.5254 3.34031C17.2588 3.58006 17.2351 3.98831 17.4724 4.25217C17.7097 4.51602 18.1182 4.53556 18.3848 4.29582Z" fill="#68A4FF"/>
<path d="M13.1323 9.007C13.3989 8.76725 13.4226 8.359 13.1853 8.09514C12.948 7.83128 12.5395 7.81174 12.2729 8.05149C12.0064 8.29124 11.9827 8.69949 12.22 8.96335C12.4573 9.2272 12.8658 9.24675 13.1323 9.007Z" fill="#68A4FF"/>
<path fill-rule="evenodd" clip-rule="evenodd" d="M22.4342 17.5198L14.5855 16.3019L14.627 16.0345L22.4757 17.2523L22.4342 17.5198Z" fill="#68A4FF"/>
<path d="M14.3124 16.8566C14.7001 16.9218 15.0666 16.6636 15.1311 16.2799C15.1957 15.8962 14.9337 15.5323 14.5461 15.4672C14.1585 15.402 13.7919 15.6602 13.7274 16.0439C13.6629 16.4275 13.9248 16.7914 14.3124 16.8566Z" fill="#68A4FF"/>
<path d="M22.3455 18.1987C22.7332 18.2638 23.0997 18.0056 23.1642 17.622C23.2287 17.2383 22.9668 16.8744 22.5792 16.8092C22.1916 16.744 21.825 17.0022 21.7605 17.3859C21.696 17.7696 21.9579 18.1335 22.3455 18.1987Z" fill="#68A4FF"/>
<path fill-rule="evenodd" clip-rule="evenodd" d="M20.5533 12.6646L17.5824 12.6251L17.586 12.3545L20.5569 12.394L20.5533 12.6646Z" fill="#68A4FF"/>
<path d="M17.4915 13.0182C17.7825 13.0182 18.0185 12.7847 18.0185 12.4967C18.0185 12.2086 17.7825 11.9751 17.4915 11.9751C17.2005 11.9751 16.9646 12.2086 16.9646 12.4967C16.9646 12.7847 17.2005 13.0182 17.4915 13.0182Z" fill="#68A4FF"/>
<path d="M20.4179 13.0153C20.7089 13.0153 20.9448 12.7818 20.9448 12.4937C20.9448 12.2057 20.7089 11.9722 20.4179 11.9722C20.1269 11.9722 19.891 12.2057 19.891 12.4937C19.891 12.7818 20.1269 13.0153 20.4179 13.0153Z" fill="#68A4FF"/>
<path opacity="0.8" d="M21.4557 13.8429L15.7965 13.3279L15.7785 13.5259L21.4376 14.0409L21.4557 13.8429Z" fill="#68A4FF"/>
<path fill-rule="evenodd" clip-rule="evenodd" d="M21.1437 14.1259L16.0257 13.6082L16.0529 13.3389L21.1709 13.8567L21.1437 14.1259Z" fill="#68A4FF"/>
<path d="M16.1045 14.0271C16.4098 14.0549 16.6795 13.8324 16.707 13.5303C16.7345 13.2281 16.5093 12.9606 16.2041 12.9329C15.8988 12.9051 15.6291 13.1275 15.6016 13.4297C15.5741 13.7318 15.7993 13.9993 16.1045 14.0271Z" fill="#68A4FF"/>
<path d="M21.0424 14.4717C21.3476 14.4994 21.6174 14.277 21.6449 13.9748C21.6724 13.6727 21.4472 13.4052 21.142 13.3774C20.8367 13.3497 20.5669 13.5721 20.5394 13.8743C20.512 14.1764 20.7371 14.4439 21.0424 14.4717Z" fill="#68A4FF"/>
<path fill-rule="evenodd" clip-rule="evenodd" d="M21.4863 15.7604L15.3967 14.8132L15.4383 14.5458L21.5279 15.493L21.4863 15.7604Z" fill="#68A4FF"/>
<path d="M15.1742 15.3055C15.5289 15.3575 15.8582 15.1151 15.9098 14.764C15.9613 14.4128 15.7155 14.086 15.3608 14.034C15.0061 13.9819 14.6767 14.2243 14.6252 14.5754C14.5737 14.9266 14.8195 15.2534 15.1742 15.3055Z" fill="#68A4FF"/>
<path d="M21.6254 16.2456C21.9801 16.2977 22.3094 16.0553 22.3609 15.7041C22.4125 15.353 22.1667 15.0262 21.812 14.9741C21.4572 14.9221 21.1279 15.1645 21.0764 15.5156C21.0249 15.8667 21.2706 16.1936 21.6254 16.2456Z" fill="#68A4FF"/>
</svg>
