<svg width="243" height="91" viewBox="0 0 243 91" fill="none" xmlns="http://www.w3.org/2000/svg">
<path fill-rule="evenodd" clip-rule="evenodd" d="M8.22467 60.9327H19.7267V50.7266H6.35543V53.2813H17.1721V58.3781H8.22467C7.34405 58.3781 6.55066 58.2119 5.8445 57.8796C5.14665 57.5473 4.55264 57.0945 4.06249 56.5213C3.58064 55.9398 3.20679 55.2627 2.94094 54.49C2.6834 53.7091 2.55463 52.8783 2.55463 51.9977C2.55463 51.1171 2.6834 50.2905 2.94094 49.5179C3.20679 48.7452 3.58064 48.0723 4.06249 47.4991C4.55264 46.9175 5.14665 46.4606 5.8445 46.1283C6.55066 45.7877 7.34405 45.6174 8.22467 45.6174H19.7267V43.0627H8.22467C6.98681 43.0627 5.86111 43.2995 4.84757 43.7731C3.83402 44.2383 2.96587 44.878 2.24309 45.6921C1.52863 46.498 0.97616 47.4451 0.585696 48.5334C0.195232 49.6134 0 50.7682 0 51.9977C0 53.2356 0.195232 54.3987 0.585696 55.487C0.97616 56.5753 1.52863 57.5224 2.24309 58.3282C2.96587 59.1341 3.83402 59.7696 4.84757 60.2349C5.86111 60.7001 6.98681 60.9327 8.22467 60.9327ZM32.4102 60.9327H50.8908V58.3781H34.9648V45.6174H50.8908V43.0627H32.4102V60.9327ZM36.2359 53.2813H48.7224V50.7266H36.2359V53.2813ZM65.5556 60.9327H63.001V43.0627H64.272C65.1028 43.0627 65.9834 43.1707 66.9139 43.3867C67.8527 43.6027 68.8081 43.9143 69.7801 44.3214C70.7521 44.7284 71.7199 45.2228 72.6836 45.8043C73.6556 46.3775 74.5944 47.0297 75.5 47.7608C76.4055 48.4919 77.2571 49.2894 78.0546 50.1534C78.8521 51.0091 79.5666 51.923 80.198 52.895V43.0627H82.7526V60.9327H80.198C80.198 59.6201 79.9695 58.3573 79.5126 57.1444C79.0557 55.9231 78.4451 54.7725 77.6807 53.6925C76.9164 52.6125 76.0358 51.6197 75.0389 50.7142C74.042 49.8003 72.9993 48.9986 71.911 48.3091C70.831 47.6195 69.7427 47.0546 68.6461 46.6143C67.5495 46.1657 66.5193 45.8666 65.5556 45.7171V60.9327ZM95.9844 60.9327H114.465V58.3781H98.539V45.6174H114.465V43.0627H95.9844V60.9327ZM99.8101 53.2813H112.297V50.7266H99.8101V53.2813ZM134.417 60.9327H145.919V58.3781H134.417C133.536 58.3781 132.743 58.2119 132.037 57.8796C131.339 57.5473 130.745 57.0945 130.255 56.5213C129.773 55.9398 129.399 55.2627 129.133 54.4901C128.876 53.7091 128.747 52.8784 128.747 51.9977C128.747 51.1171 128.876 50.2905 129.133 49.5179C129.399 48.7453 129.773 48.0723 130.255 47.4991C130.745 46.9176 131.339 46.4606 132.037 46.1283C132.743 45.7877 133.536 45.6174 134.417 45.6174H145.919V43.0628H134.417C133.179 43.0628 132.053 43.2995 131.04 43.7731C130.026 44.2383 129.158 44.878 128.435 45.6922C127.721 46.498 127.168 47.4451 126.778 48.5334C126.387 49.6134 126.192 50.7682 126.192 51.9977C126.192 53.2356 126.387 54.3987 126.778 55.487C127.168 56.5753 127.721 57.5224 128.435 58.3282C129.158 59.1341 130.026 59.7696 131.04 60.2349C132.053 60.7001 133.179 60.9327 134.417 60.9327ZM178.479 55.487C178.869 54.3987 179.064 53.2356 179.064 51.9977C179.064 50.7682 178.869 49.6134 178.479 48.5334C178.088 47.4451 177.532 46.498 176.809 45.6922C176.094 44.878 175.235 44.2383 174.229 43.7731C173.224 43.2995 172.107 43.0628 170.877 43.0628H164.933C163.695 43.0628 162.569 43.2995 161.556 43.7731C160.542 44.2383 159.674 44.878 158.951 45.6922C158.237 46.498 157.684 47.4451 157.294 48.5334C156.904 49.6134 156.708 50.7682 156.708 51.9977C156.708 53.2356 156.904 54.3987 157.294 55.487C157.684 56.5753 158.237 57.5224 158.951 58.3282C159.674 59.1341 160.542 59.7696 161.556 60.2349C162.569 60.7001 163.695 60.9327 164.933 60.9327H170.877C172.107 60.9327 173.224 60.7001 174.229 60.2349C175.235 59.7696 176.094 59.1341 176.809 58.3282C177.532 57.5224 178.088 56.5753 178.479 55.487ZM176.123 49.5179C176.381 50.2905 176.51 51.1171 176.51 51.9977C176.51 52.8784 176.381 53.7091 176.123 54.4901C175.866 55.2627 175.492 55.9398 175.002 56.5213C174.52 57.0945 173.93 57.5473 173.232 57.8796C172.543 58.2119 171.758 58.3781 170.877 58.3781H164.933C164.052 58.3781 163.259 58.2119 162.553 57.8796C161.855 57.5473 161.261 57.0945 160.771 56.5213C160.289 55.9398 159.915 55.2627 159.649 54.4901C159.392 53.7091 159.263 52.8784 159.263 51.9977C159.263 51.1171 159.392 50.2905 159.649 49.5179C159.915 48.7453 160.289 48.0723 160.771 47.4991C161.261 46.9176 161.855 46.4606 162.553 46.1283C163.259 45.7877 164.052 45.6174 164.933 45.6174H170.877C171.758 45.6174 172.543 45.7877 173.232 46.1283C173.93 46.4606 174.52 46.9176 175.002 47.4991C175.492 48.0723 175.866 48.7453 176.123 49.5179ZM212.322 51.9977C212.322 53.2356 212.123 54.3987 211.724 55.487C211.333 56.5753 210.777 57.5224 210.054 58.3282C209.331 59.1341 208.463 59.7696 207.449 60.2349C206.444 60.7001 205.327 60.9327 204.097 60.9327H195.088V58.3781H204.097C204.978 58.3781 205.767 58.2119 206.465 57.8796C207.171 57.5473 207.765 57.0945 208.247 56.5213C208.737 55.9398 209.111 55.2627 209.369 54.4901C209.634 53.7091 209.767 52.8784 209.767 51.9977C209.767 51.1171 209.634 50.2905 209.369 49.5179C209.111 48.7453 208.737 48.0723 208.247 47.4991C207.765 46.9176 207.171 46.4606 206.465 46.1283C205.767 45.7877 204.978 45.6174 204.097 45.6174H193.816V60.9327H191.262V43.0628H204.097C205.327 43.0628 206.444 43.2995 207.449 43.7731C208.463 44.2383 209.331 44.878 210.054 45.6922C210.777 46.498 211.333 47.4451 211.724 48.5334C212.123 49.6134 212.322 50.7682 212.322 51.9977ZM224.519 60.9327H243V58.3781H227.074V45.6174H243V43.0628H224.519V60.9327ZM228.345 53.2813H240.832V50.7267H228.345V53.2813Z" fill="#3B66A8"/>
<path d="M21.7405 85.9488C20.9012 85.9488 20.1343 85.8186 19.4398 85.5581C18.7453 85.2832 18.1448 84.8853 17.6383 84.3644C17.1319 83.8435 16.734 83.2213 16.4446 82.4978C16.1697 81.7599 16.0322 80.9351 16.0322 80.0235C16.0322 78.866 16.2637 77.8676 16.7268 77.0284C17.2043 76.1747 17.8482 75.5163 18.6584 75.0533C19.4832 74.5902 20.402 74.3587 21.4149 74.3587C21.9792 74.3587 22.5146 74.4528 23.021 74.6409C23.5419 74.829 24.0049 75.0894 24.4101 75.4222C24.8152 75.755 25.1336 76.1457 25.3651 76.5943H25.4085V69.8442H27.4053V80.0887C27.4053 81.3186 27.1521 82.3748 26.6456 83.2575C26.1537 84.1257 25.4808 84.7913 24.6271 85.2543C23.7879 85.7173 22.8257 85.9488 21.7405 85.9488ZM21.7405 84.2342C22.4205 84.2342 23.0355 84.0678 23.5853 83.735C24.1352 83.4022 24.5692 82.9319 24.8876 82.3242C25.2204 81.7165 25.3868 81.0002 25.3868 80.1755C25.3868 79.3362 25.2204 78.6128 24.8876 78.005C24.5692 77.3829 24.1352 76.9054 23.5853 76.5726C23.0355 76.2398 22.4133 76.0734 21.7187 76.0734C21.0387 76.0734 20.4165 76.247 19.8522 76.5943C19.3023 76.9415 18.861 77.419 18.5282 78.0268C18.2099 78.6345 18.0507 79.3435 18.0507 80.1538C18.0507 80.993 18.2171 81.7165 18.5499 82.3242C18.8827 82.9319 19.324 83.4022 19.8739 83.735C20.4382 84.0678 21.0604 84.2342 21.7405 84.2342Z" fill="#68A4FF"/>
<path d="M40.2688 85.6884V74.6192H42.2873V85.6884H40.2688ZM41.2889 72.8611C40.9272 72.8611 40.6088 72.7309 40.3339 72.4705C40.0735 72.1955 39.9432 71.8772 39.9432 71.5155C39.9432 71.1537 40.0735 70.8426 40.3339 70.5822C40.6088 70.3073 40.9272 70.1698 41.2889 70.1698C41.6506 70.1698 41.9617 70.3073 42.2222 70.5822C42.4971 70.8426 42.6346 71.1537 42.6346 71.5155C42.6346 71.8772 42.4971 72.1955 42.2222 72.4705C41.9617 72.7309 41.6506 72.8611 41.2889 72.8611Z" fill="#68A4FF"/>
<path d="M59.8088 85.9488C58.738 85.9488 57.812 85.6956 57.0306 85.1892C56.2493 84.6683 55.6488 83.9665 55.2291 83.0839C54.8095 82.2012 54.5997 81.2245 54.5997 80.1538C54.5997 79.0686 54.8312 78.0919 55.2943 77.2237C55.7573 76.3411 56.4229 75.6465 57.2911 75.1401C58.1592 74.6192 59.201 74.3587 60.4165 74.3587C61.5885 74.3587 62.5941 74.6119 63.4334 75.1184C64.2726 75.6248 64.9165 76.3121 65.3651 77.1803C65.8281 78.0485 66.0596 79.0179 66.0596 80.0887V85.6884H64.0411V83.4311H63.9977C63.7806 83.8507 63.484 84.2559 63.1078 84.6466C62.7461 85.0228 62.2903 85.3339 61.7404 85.5798C61.1906 85.8258 60.5467 85.9488 59.8088 85.9488ZM60.3297 84.2342C61.0531 84.2342 61.6898 84.0605 62.2396 83.7133C62.8039 83.3515 63.238 82.8596 63.5419 82.2374C63.8602 81.6007 64.0194 80.8917 64.0194 80.1104C64.0194 79.3435 63.8675 78.6562 63.5636 78.0485C63.2742 77.4407 62.8546 76.9632 62.3047 76.616C61.7549 76.2542 61.111 76.0734 60.3731 76.0734C59.5917 76.0734 58.9189 76.2542 58.3546 76.616C57.8047 76.9777 57.3779 77.4697 57.074 78.0919C56.7846 78.6996 56.6399 79.3941 56.6399 80.1755C56.6399 80.9279 56.7846 81.6152 57.074 82.2374C57.3634 82.8451 57.783 83.3298 58.3329 83.6916C58.8827 84.0533 59.5483 84.2342 60.3297 84.2342Z" fill="#68A4FF"/>
<path d="M80.6771 90.0943V88.3797H86.1031C86.6385 88.3797 87.0509 88.2205 87.3403 87.9022C87.6442 87.5839 87.7961 87.1643 87.7961 86.6434V83.6048H87.7527C87.4778 84.0244 87.145 84.4006 86.7543 84.7334C86.3636 85.0662 85.9151 85.3339 85.4086 85.5364C84.9022 85.7245 84.3306 85.8186 83.694 85.8186C82.6522 85.8186 81.7334 85.5798 80.9375 85.1024C80.1417 84.6104 79.5195 83.9376 79.071 83.0839C78.6224 82.2157 78.3981 81.2245 78.3981 80.1104C78.3981 79.0252 78.6224 78.0485 79.071 77.1803C79.5195 76.3121 80.1634 75.6248 81.0026 75.1184C81.8563 74.6119 82.8837 74.3587 84.0847 74.3587C85.2422 74.3587 86.2478 74.6047 87.1016 75.0967C87.9553 75.5886 88.6136 76.2759 89.0766 77.1586C89.5541 78.0268 89.7929 79.0469 89.7929 80.2189V86.7736C89.7929 87.7864 89.4963 88.5895 88.903 89.1828C88.3098 89.7905 87.4995 90.0943 86.4721 90.0943H80.6771ZM84.063 84.104C84.8009 84.104 85.4448 83.9303 85.9946 83.5831C86.5589 83.2358 86.993 82.7655 87.2969 82.1723C87.6152 81.5646 87.7744 80.8845 87.7744 80.1321C87.7744 79.3652 87.6225 78.6779 87.3186 78.0702C87.0147 77.4624 86.5879 76.9849 86.038 76.6377C85.4882 76.2759 84.8298 76.0951 84.063 76.0951C83.3105 76.0951 82.6594 76.2759 82.1096 76.6377C81.5742 76.9849 81.1546 77.4697 80.8507 78.0919C80.5613 78.6996 80.4166 79.3869 80.4166 80.1538C80.4166 80.8772 80.5613 81.5428 80.8507 82.1506C81.1546 82.7438 81.5742 83.2213 82.1096 83.5831C82.6594 83.9303 83.3105 84.104 84.063 84.104Z" fill="#68A4FF"/>
<path d="M102.656 85.6884V79.2856C102.656 78.3017 102.873 77.4407 103.307 76.7028C103.756 75.9648 104.371 75.3933 105.152 74.9882C105.933 74.5685 106.823 74.3587 107.822 74.3587C108.834 74.3587 109.724 74.5685 110.491 74.9882C111.272 75.3933 111.88 75.9648 112.314 76.7028C112.763 77.4407 112.987 78.3017 112.987 79.2856V85.6884H110.99V79.3073C110.99 78.6417 110.838 78.0702 110.535 77.5927C110.245 77.1007 109.854 76.7245 109.363 76.464C108.885 76.2036 108.371 76.0734 107.822 76.0734C107.272 76.0734 106.751 76.2036 106.259 76.464C105.781 76.7245 105.391 77.1007 105.087 77.5927C104.797 78.0702 104.653 78.6417 104.653 79.3073V85.6884H102.656Z" fill="#68A4FF"/>
<path d="M131.133 85.9488C130.005 85.9488 129.006 85.6956 128.138 85.1892C127.27 84.6683 126.583 83.9737 126.076 83.1056C125.57 82.2229 125.317 81.239 125.317 80.1538C125.317 79.0686 125.57 78.0919 126.076 77.2237C126.583 76.3411 127.27 75.6465 128.138 75.1401C129.006 74.6192 130.005 74.3587 131.133 74.3587C132.262 74.3587 133.26 74.6192 134.129 75.1401C135.011 75.6465 135.699 76.3338 136.191 77.202C136.697 78.0702 136.95 79.0541 136.95 80.1538C136.95 81.239 136.697 82.2229 136.191 83.1056C135.699 83.9737 135.011 84.6683 134.129 85.1892C133.26 85.6956 132.262 85.9488 131.133 85.9488ZM131.133 84.2342C131.9 84.2342 132.566 84.0533 133.13 83.6916C133.695 83.3298 134.136 82.8451 134.454 82.2374C134.773 81.6152 134.932 80.9207 134.932 80.1538C134.932 79.3869 134.773 78.6996 134.454 78.0919C134.136 77.4697 133.695 76.9777 133.13 76.616C132.566 76.2542 131.9 76.0734 131.133 76.0734C130.381 76.0734 129.715 76.2542 129.137 76.616C128.572 76.9777 128.131 77.4697 127.813 78.0919C127.494 78.6996 127.335 79.3869 127.335 80.1538C127.335 80.9207 127.494 81.6152 127.813 82.2374C128.131 82.8451 128.572 83.3298 129.137 83.6916C129.715 84.0533 130.381 84.2342 131.133 84.2342Z" fill="#68A4FF"/>
<path d="M149.126 85.6884V83.9737H154.422C154.769 83.9737 155.066 83.9014 155.311 83.7567C155.572 83.5975 155.767 83.3949 155.898 83.149C156.028 82.903 156.093 82.6425 156.093 82.3676C156.093 82.1072 156.035 81.8684 155.919 81.6514C155.803 81.4199 155.623 81.239 155.377 81.1088C155.145 80.9641 154.863 80.8917 154.53 80.8917H152.295C151.586 80.8917 150.963 80.776 150.428 80.5445C149.907 80.2985 149.495 79.944 149.191 79.4809C148.901 79.0179 148.757 78.4536 148.757 77.788C148.757 77.2237 148.894 76.7028 149.169 76.2253C149.444 75.7478 149.828 75.3644 150.32 75.075C150.811 74.7711 151.376 74.6192 152.012 74.6192H157.113V76.3338H152.208C151.759 76.3338 151.405 76.4713 151.144 76.7462C150.884 77.0211 150.754 77.3467 150.754 77.7229C150.754 78.0846 150.884 78.403 151.144 78.6779C151.419 78.9383 151.803 79.0686 152.295 79.0686H154.422C155.217 79.0686 155.883 79.1988 156.418 79.4592C156.968 79.7052 157.381 80.067 157.656 80.5445C157.945 81.0219 158.09 81.608 158.09 82.3025C158.09 82.8957 157.945 83.4528 157.656 83.9737C157.366 84.4802 156.961 84.8925 156.44 85.2109C155.934 85.5292 155.34 85.6884 154.66 85.6884H149.126Z" fill="#68A4FF"/>
<path d="M173.949 85.6884C172.965 85.6884 172.191 85.4062 171.626 84.8419C171.077 84.2776 170.802 83.5107 170.802 82.5412V71.841H172.799V82.411C172.799 82.8885 172.929 83.272 173.189 83.5613C173.464 83.8363 173.84 83.9737 174.318 83.9737H176.553V85.6884H173.949ZM168.892 76.3338V74.6192H176.597V76.3338H168.892Z" fill="#68A4FF"/>
<path d="M188.778 85.6884V74.6192H190.796V85.6884H188.778ZM189.798 72.8611C189.436 72.8611 189.118 72.7309 188.843 72.4705C188.582 72.1955 188.452 71.8772 188.452 71.5155C188.452 71.1537 188.582 70.8426 188.843 70.5822C189.118 70.3073 189.436 70.1698 189.798 70.1698C190.16 70.1698 190.471 70.3073 190.731 70.5822C191.006 70.8426 191.144 71.1537 191.144 71.5155C191.144 71.8772 191.006 72.1955 190.731 72.4705C190.471 72.7309 190.16 72.8611 189.798 72.8611Z" fill="#68A4FF"/>
<path d="M209.077 85.6884C207.934 85.6884 206.914 85.4424 206.017 84.9504C205.12 84.4585 204.411 83.8001 203.89 82.9753C203.369 82.1361 203.109 81.1956 203.109 80.1538C203.109 79.112 203.369 78.1787 203.89 77.3539C204.411 76.5147 205.12 75.8491 206.017 75.3571C206.914 74.8652 207.934 74.6192 209.077 74.6192H210.38V76.3338H209.012C208.274 76.3338 207.609 76.5075 207.016 76.8547C206.437 77.1875 205.974 77.6433 205.626 78.2221C205.294 78.8009 205.127 79.4448 205.127 80.1538C205.127 80.8628 205.294 81.5067 205.626 82.0855C205.974 82.6642 206.437 83.1273 207.016 83.4745C207.609 83.8073 208.274 83.9737 209.012 83.9737H210.38V85.6884H209.077Z" fill="#68A4FF"/>
<path d="M222.276 85.6884V83.9737H227.572C227.919 83.9737 228.216 83.9014 228.462 83.7567C228.722 83.5975 228.918 83.3949 229.048 83.149C229.178 82.903 229.243 82.6425 229.243 82.3676C229.243 82.1072 229.185 81.8684 229.069 81.6514C228.954 81.4199 228.773 81.239 228.527 81.1088C228.295 80.9641 228.013 80.8917 227.68 80.8917H225.445C224.736 80.8917 224.114 80.776 223.578 80.5445C223.057 80.2985 222.645 79.944 222.341 79.4809C222.052 79.0179 221.907 78.4536 221.907 77.788C221.907 77.2237 222.044 76.7028 222.319 76.2253C222.594 75.7478 222.978 75.3644 223.47 75.075C223.962 74.7711 224.526 74.6192 225.163 74.6192H230.263V76.3338H225.358C224.909 76.3338 224.555 76.4713 224.294 76.7462C224.034 77.0211 223.904 77.3467 223.904 77.7229C223.904 78.0846 224.034 78.403 224.294 78.6779C224.569 78.9383 224.953 79.0686 225.445 79.0686H227.572C228.368 79.0686 229.033 79.1988 229.569 79.4592C230.118 79.7052 230.531 80.067 230.806 80.5445C231.095 81.0219 231.24 81.608 231.24 82.3025C231.24 82.8957 231.095 83.4528 230.806 83.9737C230.516 84.4802 230.111 84.8925 229.59 85.2109C229.084 85.5292 228.491 85.6884 227.811 85.6884H222.276Z" fill="#68A4FF"/>
<path fill-rule="evenodd" clip-rule="evenodd" d="M111.796 8.15165L112.293 8.06134C112.492 8.02503 112.791 7.93722 113.034 7.79768C113.288 7.65199 113.411 7.49258 113.411 7.33324C113.411 6.57029 113.671 3.28685 118.022 1.11177L118.219 1.50612C114.064 3.58349 113.852 6.6787 113.852 7.33324C113.852 7.74089 113.542 8.0146 113.254 8.17997C113.117 8.2588 112.969 8.32277 112.826 8.37301L112.856 8.39561C113.02 8.37336 113.223 8.40489 113.406 8.54684C113.637 8.72567 113.8 9.04982 113.851 9.55565C113.902 10.0682 114.3 10.7012 114.876 11.2487C115.448 11.7923 116.149 12.206 116.742 12.3138L116.663 12.7476C115.957 12.6191 115.181 12.1468 114.572 11.5683C113.967 10.9936 113.479 10.2682 113.412 9.59952C113.368 9.16036 113.236 8.97264 113.136 8.89553C113.037 8.81905 112.933 8.82203 112.874 8.84173L112.765 8.87826L111.796 8.15165Z" fill="#68A4FF"/>
<path fill-rule="evenodd" clip-rule="evenodd" d="M116.038 6.6792L116.538 6.7505C116.739 6.77916 117.051 6.7904 117.325 6.73477C117.612 6.67668 117.779 6.56434 117.829 6.41316C118.07 5.68932 119.355 2.65646 124.17 1.96768L124.232 2.40413C119.634 3.06197 118.455 5.93151 118.248 6.5525C118.119 6.93926 117.738 7.10095 117.413 7.16688C117.258 7.19831 117.097 7.21217 116.946 7.21472L116.967 7.24569C117.13 7.27649 117.312 7.37036 117.441 7.56301C117.604 7.80571 117.656 8.16477 117.544 8.66066C117.431 9.16314 117.608 9.88938 117.982 10.5909C118.353 11.2876 118.887 11.9015 119.416 12.1912L119.204 12.5778C118.574 12.2327 117.988 11.5395 117.593 10.7982C117.2 10.0617 116.966 9.21918 117.114 8.56363C117.211 8.13311 117.145 7.9132 117.075 7.80856C117.005 7.70476 116.906 7.67471 116.843 7.67472L116.728 7.67474L116.038 6.6792Z" fill="#68A4FF"/>
<path fill-rule="evenodd" clip-rule="evenodd" d="M126.18 4.80762C125.054 5.20468 123.723 5.9016 122.835 7.10113C122.106 8.08644 121.619 9.27342 121.314 10.2218C121.162 10.6946 121.056 11.105 120.988 11.3966C120.954 11.5424 120.93 11.6584 120.914 11.7375C120.906 11.777 120.9 11.8074 120.896 11.8276L120.892 11.8502L120.891 11.8556L120.891 11.8568C120.891 11.8568 120.891 11.857 120.674 11.8197C120.457 11.7824 120.457 11.7823 120.457 11.7822L120.457 11.7815L120.457 11.7796L120.458 11.7728L120.463 11.7474C120.467 11.7252 120.473 11.6929 120.481 11.6512C120.498 11.568 120.523 11.4475 120.558 11.2968C120.628 10.9956 120.737 10.5733 120.894 10.0868C121.206 9.11666 121.711 7.87878 122.481 6.83884C123.443 5.53894 124.867 4.80287 126.034 4.3918C126.619 4.18551 127.145 4.05905 127.525 3.98406C127.716 3.94654 127.87 3.92183 127.977 3.90644C128.03 3.89874 128.072 3.89337 128.101 3.88989C128.115 3.88815 128.127 3.88688 128.134 3.88602L128.143 3.88505L128.146 3.88479L128.147 3.88471C128.147 3.8847 128.147 3.88467 128.169 4.10402C128.191 4.32337 128.191 4.32336 128.191 4.32336L128.189 4.32353L128.183 4.32426C128.176 4.32495 128.167 4.32604 128.154 4.3276C128.128 4.3307 128.09 4.33565 128.039 4.34285C127.939 4.35727 127.793 4.38072 127.611 4.41662C127.247 4.48846 126.742 4.60985 126.18 4.80762Z" fill="#68A4FF"/>
<path fill-rule="evenodd" clip-rule="evenodd" d="M109.232 11.566L109.288 11.398C109.329 11.2769 109.402 11.165 109.464 11.0727C109.474 11.0581 109.484 11.0439 109.494 11.0298C109.55 10.9468 109.602 10.8706 109.646 10.7864C109.741 10.6049 109.796 10.3989 109.686 10.1035C109.554 9.7477 109.283 8.84117 109.466 7.57533C109.648 6.30741 110.283 4.69636 111.935 2.93037L112.257 3.23156C110.661 4.93765 110.071 6.46731 109.902 7.6382C109.733 8.81118 109.985 9.64158 110.099 9.95026C110.261 10.387 110.177 10.7242 110.036 10.9916C109.979 11.0998 109.912 11.1988 109.856 11.2809C109.847 11.2942 109.838 11.307 109.83 11.3194C109.814 11.3427 109.8 11.3641 109.787 11.3841L109.885 11.4426C109.992 11.3815 110.128 11.3323 110.281 11.346C110.527 11.3681 110.729 11.5409 110.877 11.8434C111.104 12.3088 111.698 12.7815 112.427 13.1116C113.151 13.4399 113.948 13.5994 114.538 13.495L114.615 13.9291C113.905 14.0549 113.014 13.8617 112.245 13.5132C111.479 13.1664 110.775 12.6381 110.481 12.0371C110.37 11.8115 110.276 11.7882 110.242 11.7852C110.188 11.7803 110.113 11.8099 110.031 11.8759L109.911 11.9719L109.232 11.566Z" fill="#68A4FF"/>
<path fill-rule="evenodd" clip-rule="evenodd" d="M107.904 15.4822L107.864 15.2934C107.828 15.1232 107.832 14.9544 107.846 14.8006C107.851 14.7339 107.859 14.6667 107.866 14.6027C107.868 14.5928 107.869 14.583 107.87 14.5733C107.878 14.4991 107.886 14.4287 107.89 14.3592C107.909 14.0875 107.881 13.8521 107.678 13.621C107.498 13.4157 107.283 13.0264 107.087 12.5477C106.889 12.0625 106.7 11.4649 106.581 10.8289C106.346 9.57044 106.369 8.0986 107.2 7.07603L107.542 7.35405C106.837 8.22145 106.786 9.52551 107.015 10.7477C107.128 11.3519 107.307 11.9208 107.495 12.3806C107.686 12.8469 107.878 13.1811 108.009 13.3302C108.321 13.6859 108.352 14.0595 108.33 14.3886C108.325 14.4692 108.316 14.5485 108.308 14.623C108.307 14.6332 108.306 14.6433 108.304 14.6533C108.297 14.7178 108.29 14.7783 108.285 14.8383C108.28 14.8997 108.277 14.9569 108.277 15.011L108.352 15.0052C108.358 14.9759 108.366 14.9471 108.375 14.919C108.406 14.8278 108.462 14.7233 108.567 14.656C108.681 14.583 108.813 14.5779 108.938 14.6192C109.056 14.6582 109.174 14.739 109.293 14.85C109.68 15.2108 110.307 15.4372 110.992 15.5399C111.673 15.6419 112.373 15.6163 112.875 15.5048L112.971 15.9352C112.409 16.0599 111.654 16.0849 110.927 15.9759C110.205 15.8676 109.474 15.6215 108.992 15.1724C108.898 15.084 108.835 15.0496 108.801 15.0383C108.799 15.0435 108.796 15.0504 108.793 15.0593C108.781 15.0957 108.773 15.1479 108.773 15.2107L108.773 15.4147L107.904 15.4822Z" fill="#68A4FF"/>
<path fill-rule="evenodd" clip-rule="evenodd" d="M108.166 19.1736L108.108 19.0145C108.062 18.8862 108.047 18.7535 108.035 18.6456C108.034 18.636 108.033 18.6266 108.033 18.6174C108.022 18.5145 108.013 18.4333 107.993 18.3571C107.972 18.2804 107.94 18.2194 107.887 18.167C107.833 18.1132 107.742 18.055 107.579 18.0082C107.304 17.9287 106.957 17.6983 106.606 17.3867C106.249 17.0691 105.867 16.6478 105.524 16.1584C104.841 15.1852 104.289 13.9095 104.435 12.624L104.873 12.6738C104.744 13.8079 105.232 14.9751 105.885 15.9052C106.209 16.3675 106.569 16.7631 106.899 17.0572C107.237 17.3571 107.524 17.5332 107.702 17.5846C107.915 17.6461 108.077 17.7349 108.197 17.8532C108.318 17.9729 108.382 18.1091 108.418 18.241C108.442 18.33 108.455 18.4218 108.464 18.5038C108.47 18.4846 108.477 18.4654 108.486 18.4463C108.539 18.3348 108.634 18.2545 108.765 18.2184C108.883 18.1858 109.024 18.191 109.182 18.2201C109.726 18.3199 110.4 18.266 111.013 18.098C111.633 17.9283 112.146 17.6544 112.399 17.3508L112.738 17.6331C112.4 18.0383 111.784 18.344 111.13 18.5232C110.47 18.7041 109.727 18.7683 109.103 18.6537C108.973 18.63 108.909 18.6363 108.883 18.6433C108.882 18.6458 108.882 18.6489 108.881 18.6526C108.879 18.6667 108.878 18.6856 108.879 18.711C108.879 18.7366 108.881 18.7641 108.884 18.7968C108.884 18.8004 108.884 18.8042 108.884 18.808C108.887 18.8363 108.889 18.8688 108.89 18.9004L108.899 19.1111L108.166 19.1736Z" fill="#68A4FF"/>
<path fill-rule="evenodd" clip-rule="evenodd" d="M109.454 21.973L109.336 21.8515C109.252 21.7644 109.192 21.6629 109.145 21.5827C109.141 21.5757 109.137 21.5689 109.133 21.5622C109.088 21.4848 109.054 21.4265 109.013 21.3764C108.972 21.3269 108.93 21.2941 108.877 21.2742C108.821 21.2536 108.735 21.2401 108.596 21.26C108.345 21.2956 107.987 21.2359 107.602 21.1151C107.209 20.9917 106.76 20.7957 106.317 20.5326C105.437 20.0099 104.549 19.2014 104.208 18.1344L104.628 18.0001C104.923 18.9219 105.708 19.6577 106.542 20.1536C106.957 20.3998 107.375 20.5816 107.734 20.6944C108.102 20.8099 108.383 20.8449 108.533 20.8235C108.725 20.7962 108.889 20.8083 109.031 20.861C109.174 20.9143 109.276 21.0023 109.353 21.0959C109.401 21.1546 109.442 21.2189 109.477 21.2773C109.481 21.2499 109.488 21.2217 109.498 21.1931C109.572 20.9922 109.782 20.8899 110.035 20.8277C110.522 20.7079 111.094 20.5342 111.612 20.2646C112.131 19.9947 112.582 19.6368 112.848 19.1567L113.234 19.3708C112.91 19.9539 112.378 20.3634 111.815 20.6558C111.252 20.9487 110.642 21.1324 110.141 21.2558C110.031 21.2829 109.968 21.3106 109.934 21.3317C109.925 21.3374 109.919 21.3421 109.915 21.3454C109.916 21.3473 109.916 21.3495 109.917 21.3521C109.923 21.3748 109.935 21.405 109.958 21.4513L110.053 21.6399L109.454 21.973Z" fill="#68A4FF"/>
<path fill-rule="evenodd" clip-rule="evenodd" d="M111.902 24.2632L111.75 24.1892C111.641 24.1361 111.55 24.0613 111.479 24.0018C111.472 23.9967 111.466 23.9916 111.46 23.9867C111.392 23.9293 111.34 23.8861 111.284 23.8531C111.229 23.8205 111.178 23.8038 111.121 23.8034C111.062 23.8029 110.976 23.8197 110.852 23.8861C110.638 24.0002 110.305 24.0852 109.921 24.1284C109.532 24.1722 109.071 24.1752 108.593 24.1122C107.64 23.9868 106.585 23.5952 105.897 22.706L106.246 22.4364C106.836 23.1993 107.762 23.5581 108.65 23.6751C109.092 23.7332 109.517 23.7303 109.871 23.6903C110.232 23.6498 110.502 23.5732 110.645 23.4971C110.815 23.4059 110.974 23.3614 111.125 23.3625C111.278 23.3637 111.403 23.4117 111.508 23.4733C111.573 23.512 111.634 23.5584 111.687 23.6014C111.681 23.5743 111.678 23.5455 111.678 23.5151C111.679 23.301 111.841 23.1332 112.058 22.9883C112.86 22.4517 113.469 21.6608 113.65 20.5283L114.086 20.598C113.882 21.8672 113.193 22.7593 112.303 23.3547C112.209 23.4178 112.159 23.4652 112.135 23.4965C112.128 23.505 112.124 23.5114 112.122 23.5159C112.123 23.5176 112.124 23.5195 112.125 23.5217C112.138 23.541 112.161 23.5651 112.198 23.6007L112.351 23.7458L111.902 24.2632Z" fill="#68A4FF"/>
<path fill-rule="evenodd" clip-rule="evenodd" d="M114.68 24.9559L114.51 24.9512C114.389 24.9479 114.275 24.9174 114.186 24.8927C114.178 24.8905 114.17 24.8884 114.163 24.8864C114.077 24.8625 114.012 24.8445 113.947 24.8375C113.883 24.8306 113.831 24.8362 113.778 24.8594C113.724 24.8834 113.653 24.934 113.567 25.0458C113.42 25.2372 113.16 25.4484 112.838 25.6411C112.512 25.8364 112.108 26.0217 111.66 26.1543C110.768 26.4186 109.676 26.4799 108.685 25.9549L108.892 25.5654C109.746 26.0184 110.71 25.9758 111.535 25.7315C111.946 25.6098 112.316 25.4397 112.611 25.2629C112.911 25.0836 113.118 24.9062 113.218 24.7771C113.336 24.6235 113.462 24.5176 113.6 24.4564C113.739 24.3944 113.874 24.3861 113.994 24.3992C114.07 24.4073 114.144 24.4246 114.21 24.4421C114.194 24.4198 114.179 24.3949 114.166 24.3671C114.079 24.1717 114.157 23.9518 114.295 23.7305C114.551 23.3189 114.742 22.8456 114.841 22.4079C114.941 21.9624 114.938 21.5873 114.844 21.3533L115.254 21.1896C115.396 21.5462 115.379 22.0265 115.271 22.5048C115.161 22.991 114.951 23.5101 114.669 23.9632C114.61 24.0595 114.584 24.1231 114.575 24.1616C114.572 24.172 114.571 24.1796 114.571 24.1848C114.572 24.1858 114.574 24.1871 114.577 24.1885C114.597 24.2006 114.627 24.2133 114.676 24.2303L114.875 24.2994L114.68 24.9559Z" fill="#68A4FF"/>
<path fill-rule="evenodd" clip-rule="evenodd" d="M117.394 25.0965L117.231 25.1404C117.113 25.1718 116.995 25.1751 116.903 25.177C116.894 25.1772 116.887 25.1773 116.879 25.1775C116.789 25.1792 116.722 25.1806 116.658 25.1923C116.595 25.2039 116.546 25.2244 116.503 25.2615C116.458 25.2999 116.404 25.3688 116.354 25.5005C116.265 25.7315 116.064 26.002 115.799 26.2655C115.53 26.5331 115.18 26.8085 114.774 27.0453C113.965 27.5174 112.91 27.8494 111.817 27.6304L111.903 27.1981C112.857 27.3892 113.801 27.1025 114.552 26.6645C114.926 26.4463 115.246 26.1938 115.488 25.9529C115.734 25.7079 115.886 25.4893 115.942 25.3428C116.011 25.1618 116.101 25.0244 116.216 24.9264C116.332 24.827 116.459 24.7807 116.578 24.7587C116.653 24.7449 116.729 24.7403 116.797 24.7383C116.775 24.7216 116.754 24.702 116.734 24.6789C116.594 24.5167 116.607 24.2834 116.675 24.0321C116.799 23.5771 116.8 23.1021 116.719 22.6918C116.638 22.2761 116.479 21.9522 116.31 21.7813L116.623 21.4712C116.875 21.7258 117.061 22.1427 117.152 22.6071C117.244 23.0767 117.244 23.6209 117.101 24.148C117.071 24.2574 117.065 24.3256 117.067 24.3652C117.067 24.3759 117.068 24.3835 117.069 24.3886C117.071 24.3892 117.073 24.3898 117.076 24.3905C117.099 24.3964 117.131 24.4 117.183 24.4022L117.394 24.4115L117.394 25.0965Z" fill="#68A4FF"/>
<path fill-rule="evenodd" clip-rule="evenodd" d="M119.64 23.9497L119.508 24.0561C119.414 24.1323 119.307 24.1832 119.223 24.2226C119.216 24.226 119.209 24.2294 119.202 24.2326C119.121 24.2705 119.06 24.2991 119.006 24.3358C118.953 24.3719 118.916 24.4104 118.892 24.462C118.866 24.5153 118.845 24.6001 118.852 24.7409C118.865 24.987 118.797 25.2879 118.673 25.5982C118.547 25.9123 118.358 26.2517 118.11 26.5783C117.616 27.23 116.878 27.8476 115.933 28.0996L115.819 27.6736C116.646 27.4531 117.307 26.9073 117.759 26.3119C117.984 26.0149 118.154 25.7098 118.264 25.4344C118.376 25.1551 118.42 24.9214 118.412 24.7637C118.402 24.5703 118.429 24.408 118.494 24.2718C118.56 24.1339 118.657 24.0402 118.757 23.9718C118.82 23.9289 118.887 23.8938 118.949 23.8643C118.922 23.858 118.894 23.8488 118.867 23.8357C118.673 23.7441 118.59 23.5258 118.551 23.2682C118.48 22.8054 118.275 22.3767 118.047 22.0654C117.933 21.9099 117.817 21.7895 117.716 21.7102C117.606 21.6245 117.543 21.6102 117.53 21.6102L117.53 21.1693C117.694 21.1693 117.855 21.2598 117.987 21.3628C118.127 21.4724 118.27 21.6245 118.402 21.8045C118.666 22.1643 118.904 22.6583 118.987 23.2017C119.004 23.3138 119.026 23.3787 119.044 23.414C119.049 23.4236 119.053 23.43 119.056 23.4342C119.058 23.434 119.06 23.4337 119.063 23.4333C119.086 23.4295 119.117 23.4196 119.165 23.4007L119.362 23.3237L119.64 23.9497Z" fill="#68A4FF"/>
<path fill-rule="evenodd" clip-rule="evenodd" d="M121.19 22.4541L121.11 22.6027C121.052 22.7092 120.973 22.7971 120.91 22.8657C120.905 22.8717 120.899 22.8775 120.894 22.8832C120.834 22.9493 120.788 22.999 120.753 23.0535C120.718 23.1072 120.699 23.1567 120.696 23.2137C120.693 23.2728 120.706 23.3591 120.766 23.4865C120.973 23.9193 120.98 24.5724 120.761 25.2442C120.541 25.9244 120.082 26.6493 119.317 27.2348L119.049 26.8848C119.741 26.3552 120.148 25.7058 120.342 25.108C120.539 24.5018 120.51 23.9733 120.368 23.6762C120.285 23.5013 120.248 23.3412 120.256 23.1905C120.264 23.0378 120.317 22.9142 120.384 22.8126C120.425 22.7489 120.474 22.6905 120.52 22.6398C120.492 22.6444 120.463 22.6463 120.433 22.6448C120.219 22.6343 120.059 22.4645 119.924 22.2416C119.669 21.8203 119.384 21.4733 119.132 21.2515C119.005 21.14 118.895 21.0673 118.807 21.0296C118.716 20.9904 118.68 21.0017 118.677 21.0029L118.508 20.5957C118.669 20.529 118.839 20.5636 118.981 20.6246C119.127 20.6872 119.277 20.7917 119.423 20.9204C119.717 21.179 120.029 21.5639 120.301 22.0132C120.36 22.1102 120.405 22.1617 120.435 22.1874C120.443 22.1944 120.449 22.1988 120.454 22.2015C120.455 22.2006 120.457 22.1995 120.46 22.1981C120.48 22.1857 120.505 22.1646 120.542 22.1287L120.694 21.9824L121.19 22.4541Z" fill="#68A4FF"/>
<path fill-rule="evenodd" clip-rule="evenodd" d="M122.04 20.3781L122.018 20.546C122.003 20.6663 121.962 20.7768 121.928 20.8635C121.925 20.871 121.923 20.8784 121.92 20.8856C121.888 20.9691 121.863 21.032 121.85 21.0956C121.837 21.1584 121.837 21.2113 121.855 21.2656C121.874 21.3217 121.917 21.3975 122.02 21.494C122.369 21.8212 122.619 22.4279 122.667 23.1351C122.715 23.8511 122.557 24.6959 122.058 25.5203L121.681 25.2917C122.132 24.548 122.269 23.7939 122.227 23.1646C122.184 22.5266 121.959 22.0417 121.718 21.8155C121.577 21.6829 121.484 21.5473 121.437 21.404C121.389 21.2588 121.394 21.1242 121.418 21.0054C121.434 20.931 121.459 20.8588 121.482 20.7951C121.459 20.8092 121.432 20.8216 121.403 20.8312C121.2 20.8991 120.989 20.7993 120.783 20.6408C120.394 20.3433 120.052 20.1755 119.788 20.1083C119.512 20.0379 119.38 20.089 119.336 20.1313L119.031 19.8133C119.242 19.61 119.573 19.5983 119.897 19.6811C120.235 19.7673 120.631 19.9691 121.051 20.2909C121.141 20.3599 121.202 20.3914 121.239 20.4044C121.249 20.4079 121.257 20.4098 121.262 20.4107C121.263 20.4092 121.264 20.4075 121.266 20.4054C121.28 20.3866 121.296 20.3578 121.317 20.3108L121.406 20.1193L122.04 20.3781Z" fill="#68A4FF"/>
<path fill-rule="evenodd" clip-rule="evenodd" d="M122.088 18.0587L122.149 18.2167C122.191 18.3272 122.207 18.4323 122.219 18.517C122.22 18.5287 122.222 18.5398 122.223 18.5506C122.233 18.6234 122.24 18.6761 122.256 18.7288C122.283 18.8215 122.34 18.9349 122.594 19.0684C123.266 19.4224 124.23 20.5515 124.129 22.4645L123.688 22.4411C123.781 20.6917 122.901 19.7285 122.388 19.4585C122.049 19.28 121.899 19.0799 121.832 18.852C121.816 18.7949 121.805 18.7372 121.797 18.6845C121.782 18.71 121.764 18.735 121.741 18.7587C121.595 18.9144 121.361 18.9261 121.104 18.8841C120.616 18.8042 120.274 18.8076 120.049 18.8516C119.818 18.8968 119.751 18.9751 119.736 19.0056L119.34 18.8126C119.443 18.6005 119.675 18.4754 119.964 18.4189C120.26 18.3611 120.659 18.3645 121.175 18.449C121.287 18.4673 121.356 18.4663 121.395 18.4601C121.405 18.4584 121.413 18.4566 121.418 18.455C121.418 18.4531 121.419 18.4509 121.419 18.4483C121.423 18.4251 121.423 18.3923 121.42 18.3406L121.407 18.1302L122.088 18.0587Z" fill="#68A4FF"/>
<path fill-rule="evenodd" clip-rule="evenodd" d="M121.514 16.2605L121.625 16.3886C121.706 16.4831 121.744 16.5659 121.77 16.6349C121.777 16.6537 121.783 16.6684 121.787 16.6804C121.8 16.7143 121.804 16.7258 121.816 16.7433C121.842 16.783 121.932 16.875 122.382 17.0521C122.414 17.0646 122.446 17.0771 122.479 17.0898C122.893 17.2515 123.351 17.4304 123.747 17.7673C124.183 18.1387 124.529 18.6871 124.714 19.5731L124.283 19.6634C124.114 18.8562 123.81 18.4006 123.461 18.103C123.124 17.8161 122.732 17.6625 122.305 17.4955C122.277 17.4846 122.249 17.4736 122.221 17.4625C121.774 17.2868 121.561 17.1546 121.45 16.9893C121.448 16.9867 121.446 16.9842 121.445 16.9816C121.44 16.9998 121.433 17.0181 121.425 17.0366C121.34 17.2329 121.124 17.323 120.868 17.3706C120.52 17.4353 120.19 17.5092 119.947 17.5967C119.824 17.6407 119.736 17.6837 119.681 17.7229C119.643 17.7503 119.635 17.7651 119.635 17.7652C119.635 17.7652 119.638 17.7608 119.639 17.7518L119.2 17.7046C119.217 17.5447 119.327 17.4345 119.425 17.3642C119.528 17.2908 119.659 17.2315 119.798 17.1817C120.076 17.0816 120.436 17.0025 120.788 16.9371C120.899 16.9164 120.963 16.8923 120.998 16.8732C121.007 16.868 121.014 16.8637 121.018 16.8606C121.018 16.8587 121.017 16.8564 121.017 16.8538C121.012 16.8308 121.001 16.8 120.981 16.7524L120.898 16.5587L121.514 16.2605Z" fill="#68A4FF"/>
<path fill-rule="evenodd" clip-rule="evenodd" d="M120.239 14.8313L120.38 14.907C120.49 14.966 120.555 15.0297 120.604 15.0848C120.618 15.0999 120.628 15.1117 120.636 15.1213C120.66 15.1485 120.668 15.1577 120.685 15.1699C120.724 15.1973 120.841 15.2512 121.325 15.2552C121.355 15.2555 121.385 15.2557 121.416 15.2559C121.862 15.2588 122.342 15.2619 122.821 15.4394C123.343 15.6332 123.842 16.0242 124.33 16.7816L123.959 17.0204C123.51 16.3239 123.081 16.0062 122.667 15.8528C122.264 15.7031 121.857 15.7001 121.394 15.6967C121.37 15.6965 121.346 15.6963 121.321 15.6961C120.9 15.6926 120.659 15.6561 120.496 15.5699C120.423 15.763 120.265 15.948 120.025 16.0948C119.721 16.2817 119.446 16.4572 119.257 16.6149C119.162 16.6942 119.101 16.7594 119.067 16.8099C119.049 16.8378 119.044 16.8522 119.044 16.8561C119.044 16.8543 119.044 16.8503 119.042 16.8446L118.616 16.9575C118.576 16.8048 118.633 16.6666 118.7 16.566C118.768 16.4637 118.867 16.3665 118.975 16.2764C119.192 16.0952 119.493 15.904 119.795 15.7189C119.976 15.6077 120.058 15.4886 120.087 15.4048C120.117 15.317 120.089 15.2835 120.089 15.2829L119.933 15.1236L120.239 14.8313Z" fill="#68A4FF"/>
<path fill-rule="evenodd" clip-rule="evenodd" d="M118.38 14.4863L118.475 14.0669L118.639 14.0669L118.654 14.0691C118.777 14.0864 118.86 14.1237 118.926 14.1584C118.943 14.1678 118.957 14.1754 118.968 14.1815C119 14.1988 119.011 14.2047 119.031 14.2101C119.077 14.2224 119.205 14.2326 119.661 14.0688C119.737 14.0416 119.813 14.0127 119.89 13.9835C120.25 13.8475 120.629 13.7043 121.046 13.6896C121.572 13.6712 122.142 13.8518 122.86 14.392L122.595 14.7444C121.931 14.2448 121.458 14.1163 121.061 14.1303C120.723 14.1421 120.426 14.2538 120.07 14.3874C119.987 14.4186 119.901 14.4511 119.81 14.4837C119.371 14.6417 119.124 14.685 118.934 14.6403C118.96 14.8461 118.909 15.0817 118.732 15.3062C118.515 15.5818 118.349 15.826 118.256 16.0208C118.21 16.1184 118.187 16.1925 118.181 16.2445C118.176 16.2839 118.181 16.2991 118.183 16.3021C118.183 16.3022 118.183 16.3021 118.183 16.3021L117.822 16.5554C117.742 16.4411 117.729 16.3089 117.743 16.1904C117.758 16.073 117.801 15.9509 117.858 15.8313C117.972 15.5916 118.162 15.3167 118.386 15.0333C118.612 14.7456 118.442 14.5158 118.38 14.4863ZM118.183 16.3027C118.183 16.3027 118.183 16.3025 118.183 16.3021L118.183 16.3027Z" fill="#68A4FF"/>
<path fill-rule="evenodd" clip-rule="evenodd" d="M116.838 14.5219L116.739 14.0975C116.851 14.0524 116.955 14.0367 117.04 14.0272C117.067 14.0243 117.09 14.022 117.111 14.0199C117.164 14.0146 117.204 14.0107 117.248 14.001C117.298 13.9896 117.344 13.9716 117.392 13.935C117.443 13.8968 117.505 13.8314 117.579 13.7133C117.685 13.5417 117.866 13.3803 118.067 13.2409C118.272 13.0989 118.516 12.9682 118.766 12.8637C119.015 12.7593 119.278 12.6783 119.522 12.6394C119.761 12.6013 120.008 12.5991 120.21 12.6799L120.047 13.0893C119.953 13.0519 119.799 13.0417 119.592 13.0748C119.39 13.1069 119.161 13.1762 118.936 13.2705C118.711 13.3646 118.495 13.481 118.318 13.6034C118.137 13.7285 118.013 13.8489 117.953 13.9458C117.86 14.0963 117.763 14.2072 117.658 14.2866C117.577 14.3479 117.497 14.3862 117.419 14.4111C117.527 14.5718 117.587 14.7875 117.548 15.0507C117.497 15.398 117.475 15.6923 117.492 15.9074C117.5 16.0152 117.517 16.0906 117.538 16.139C117.553 16.1756 117.565 16.186 117.568 16.1878C117.568 16.1878 117.568 16.1878 117.568 16.1878L117.381 16.5872C117.255 16.5281 117.178 16.42 117.131 16.31C117.085 16.201 117.062 16.0734 117.052 15.9413C117.032 15.6766 117.06 15.3436 117.112 14.9866C117.165 14.6257 116.908 14.5165 116.838 14.5219ZM117.569 16.1882C117.569 16.1882 117.569 16.1881 117.568 16.1878L117.569 16.1882Z" fill="#68A4FF"/>
<path fill-rule="evenodd" clip-rule="evenodd" d="M115.277 15.3347L114.95 15.0463C115.015 14.9445 115.091 14.8716 115.155 14.8142C115.175 14.7966 115.192 14.7814 115.208 14.7675C115.249 14.7321 115.279 14.7058 115.309 14.6727C115.344 14.634 115.37 14.5929 115.389 14.535C115.408 14.4745 115.421 14.385 115.412 14.2464C115.388 13.8755 115.519 13.4436 115.731 13.0884C115.941 12.7365 116.26 12.4112 116.651 12.3164L116.755 12.7449C116.528 12.7999 116.291 13.0101 116.11 13.3141C115.931 13.6147 115.835 13.9588 115.852 14.2186C115.863 14.3954 115.849 14.5418 115.809 14.6673C115.779 14.7641 115.735 14.842 115.686 14.9076C115.868 14.9757 116.041 15.1169 116.162 15.3538C116.322 15.6663 116.475 15.9189 116.613 16.0846C116.682 16.1676 116.74 16.2191 116.784 16.2467C116.818 16.2676 116.834 16.2689 116.838 16.2688C116.838 16.2688 116.838 16.2688 116.837 16.2689L116.917 16.7025C116.78 16.7277 116.654 16.6845 116.552 16.6216C116.452 16.5594 116.359 16.4688 116.274 16.3671C116.104 16.1632 115.934 15.8757 115.77 15.5544C115.604 15.2296 115.331 15.2898 115.277 15.3347ZM116.838 16.2688C116.838 16.2688 116.838 16.2688 116.838 16.2688L116.838 16.2688Z" fill="#68A4FF"/>
<path fill-rule="evenodd" clip-rule="evenodd" d="M114.491 16.893L114.057 16.8511C114.05 16.7304 114.069 16.6271 114.087 16.5429C114.093 16.5171 114.098 16.4945 114.103 16.474C114.115 16.4214 114.124 16.3825 114.128 16.3382C114.134 16.2863 114.131 16.2374 114.112 16.1799C114.092 16.1197 114.05 16.0396 113.962 15.9325C113.494 15.3661 113.479 14.4421 113.964 13.8732L114.299 14.1593C113.959 14.5584 113.965 15.2432 114.302 15.6518C114.414 15.7884 114.489 15.9154 114.53 16.0402C114.563 16.1365 114.573 16.225 114.572 16.3071C114.759 16.2557 114.982 16.2682 115.219 16.389C115.534 16.5495 115.774 16.6508 115.951 16.6916C116.135 16.734 116.18 16.6961 116.189 16.6862L116.508 16.9908C116.331 17.176 116.078 17.1732 115.852 17.1212C115.619 17.0675 115.338 16.9446 115.019 16.7818C114.694 16.6161 114.508 16.8251 114.491 16.893Z" fill="#68A4FF"/>
<path fill-rule="evenodd" clip-rule="evenodd" d="M114.573 18.7059L114.187 18.9083C114.115 18.8111 114.074 18.7146 114.043 18.6341C114.034 18.6094 114.026 18.5877 114.019 18.5679C114 18.5173 113.986 18.4798 113.966 18.4401C113.942 18.3937 113.913 18.3542 113.866 18.3166C113.816 18.2772 113.737 18.2332 113.604 18.192C113.596 18.1894 113.588 18.1869 113.58 18.1844C113.299 18.0971 113 18.0043 112.788 17.8417C112.672 17.7527 112.575 17.639 112.516 17.49C112.458 17.3425 112.444 17.1763 112.468 16.9915L112.905 17.0471C112.889 17.1778 112.902 17.2662 112.927 17.329C112.951 17.3902 112.991 17.4424 113.056 17.4917C113.198 17.6008 113.42 17.673 113.735 17.7709C113.904 17.8235 114.036 17.8891 114.139 17.9707C114.219 18.0336 114.276 18.1019 114.32 18.1713C114.448 18.026 114.642 17.914 114.906 17.8853C115.052 17.8694 115.17 17.8591 115.263 17.8508C115.284 17.8489 115.304 17.8471 115.323 17.8454C115.429 17.8358 115.489 17.829 115.533 17.8196C115.57 17.8116 115.588 17.8032 115.607 17.7913C115.631 17.7755 115.661 17.7489 115.72 17.6903L116.032 18.0021C115.972 18.0616 115.914 18.1167 115.849 18.1595C115.778 18.2062 115.707 18.2332 115.626 18.2507C115.551 18.2667 115.464 18.2753 115.363 18.2845C115.343 18.2863 115.322 18.2881 115.301 18.29C115.207 18.2983 115.095 18.3083 114.954 18.3236C114.591 18.3629 114.55 18.6395 114.573 18.7059Z" fill="#68A4FF"/>
<path fill-rule="evenodd" clip-rule="evenodd" d="M115.933 19.8618L115.772 20.2669C115.654 20.24 115.56 20.1938 115.484 20.1528C115.461 20.1403 115.441 20.129 115.423 20.1188C115.375 20.0925 115.341 20.0731 115.299 20.0563C115.251 20.0366 115.203 20.0255 115.143 20.028C115.079 20.0306 114.991 20.0488 114.863 20.104C114.855 20.1074 114.848 20.1108 114.84 20.1142C114.57 20.2315 114.283 20.356 114.016 20.3711C113.87 20.3794 113.722 20.3564 113.581 20.2816C113.441 20.2075 113.322 20.0907 113.219 19.9352L113.587 19.6921C113.659 19.802 113.727 19.8603 113.787 19.8918C113.845 19.9226 113.91 19.9355 113.991 19.9309C114.17 19.9208 114.385 19.8308 114.688 19.6995C114.85 19.6291 114.993 19.593 115.124 19.5875C115.226 19.5833 115.314 19.5976 115.392 19.6217C115.395 19.4279 115.469 19.2166 115.65 19.0223C115.893 18.7635 116.162 18.5977 116.365 18.4728C116.386 18.4599 116.406 18.4476 116.426 18.4355C116.535 18.3676 116.609 18.3178 116.658 18.2711C116.702 18.2281 116.706 18.2064 116.707 18.1961L117.147 18.2291C117.135 18.3854 117.054 18.502 116.963 18.5891C116.876 18.6724 116.764 18.7445 116.658 18.8101C116.639 18.8223 116.619 18.8346 116.599 18.847C116.393 18.9738 116.172 19.1101 115.972 19.3236C115.723 19.5899 115.872 19.8263 115.933 19.8618Z" fill="#68A4FF"/>
<path fill-rule="evenodd" clip-rule="evenodd" d="M117.709 19.7525L117.852 20.1644C117.745 20.2208 117.643 20.2471 117.559 20.2655C117.533 20.2711 117.511 20.2757 117.49 20.28C117.437 20.2908 117.398 20.2988 117.356 20.3129C117.306 20.3295 117.263 20.3521 117.218 20.3935C117.172 20.4368 117.117 20.5082 117.056 20.6332C117.009 20.731 116.968 20.8266 116.926 20.9238C116.91 20.9625 116.893 21.0016 116.876 21.0411C116.818 21.1731 116.754 21.3106 116.674 21.4268C116.591 21.545 116.482 21.6554 116.328 21.7151C116.173 21.7754 116.001 21.7727 115.815 21.72L115.936 21.2959C116.056 21.3301 116.126 21.3207 116.169 21.304C116.213 21.2868 116.259 21.2503 116.312 21.175C116.365 21.0977 116.415 20.9955 116.472 20.8649C116.486 20.8318 116.501 20.7967 116.517 20.7602C116.56 20.6598 116.607 20.5488 116.659 20.4407C116.737 20.2814 116.821 20.1611 116.917 20.0713C116.992 20.002 117.068 19.9555 117.143 19.9227C117.019 19.7741 116.937 19.5656 116.948 19.2998C116.957 19.1026 116.989 18.9522 117.034 18.8325C117.079 18.7113 117.135 18.6308 117.176 18.5751C117.182 18.5664 117.187 18.5593 117.192 18.5534C117.202 18.5386 117.208 18.5312 117.213 18.5233C117.214 18.5213 117.215 18.5204 117.215 18.5204C117.215 18.5204 117.21 18.5295 117.207 18.5448C117.207 18.5472 117.206 18.5495 117.206 18.5518L117.545 18.3023C117.604 18.3827 117.664 18.4907 117.641 18.622C117.63 18.6814 117.605 18.7276 117.586 18.7586C117.571 18.7815 117.553 18.8066 117.539 18.8246C117.536 18.8286 117.534 18.8323 117.531 18.8355C117.501 18.8763 117.472 18.92 117.446 18.9877C117.42 19.0569 117.395 19.1602 117.389 19.3186C117.373 19.683 117.64 19.7651 117.709 19.7525Z" fill="#68A4FF"/>
<path fill-rule="evenodd" clip-rule="evenodd" d="M117.906 17.7948L118.34 17.8301C118.347 17.9216 118.339 18.0187 118.333 18.1015L118.332 18.1082C118.326 18.1948 118.319 18.274 118.321 18.3544C118.324 18.5112 118.357 18.6578 118.478 18.7991C118.546 18.8798 118.642 18.9646 118.754 19.0606C118.769 19.0733 118.784 19.0862 118.799 19.0993C118.895 19.1805 118.999 19.2692 119.088 19.3584C119.188 19.4594 119.293 19.5858 119.34 19.7339C119.393 19.9027 119.362 20.0768 119.235 20.2308L118.895 19.9498C118.929 19.9086 118.926 19.8895 118.919 19.8663C118.905 19.8223 118.863 19.7579 118.774 19.6685C118.7 19.5939 118.613 19.5192 118.516 19.4369C118.5 19.4234 118.484 19.4097 118.468 19.3958C118.357 19.3015 118.236 19.1958 118.142 19.0849C117.985 18.9003 117.918 18.7073 117.893 18.5271C117.871 18.5378 117.849 18.5472 117.825 18.5551C117.696 18.5981 117.555 18.5882 117.417 18.5204C117.312 18.4686 117.228 18.4255 117.162 18.3913C117.147 18.3835 117.132 18.3762 117.119 18.3693C117.043 18.3305 117.002 18.3106 116.972 18.2994C116.948 18.2906 116.937 18.2898 116.927 18.29C116.909 18.2903 116.881 18.2942 116.817 18.3086L116.72 17.8785C116.785 17.8637 116.852 17.8504 116.919 17.8492C116.993 17.8478 117.057 17.8611 117.124 17.8856C117.184 17.9077 117.249 17.9404 117.32 17.977C117.334 17.9843 117.349 17.9919 117.365 17.9999C117.431 18.0341 117.51 18.0749 117.611 18.1246C117.653 18.1452 117.674 18.1406 117.686 18.1367C117.705 18.1304 117.734 18.1123 117.769 18.0705C117.842 17.9838 117.892 17.8552 117.906 17.7948Z" fill="#68A4FF"/>
<path fill-rule="evenodd" clip-rule="evenodd" d="M106.957 21.8064C108.426 24.401 110.688 26.2756 113.215 26.68C118.656 27.5505 123.297 24.2941 123.397 19.4768C123.448 17.0173 122.421 15.5108 121.124 14.6423C119.77 13.7352 118.06 13.4872 116.793 13.731C115.651 13.9505 114.831 14.6958 114.313 15.6223C113.775 16.5863 113.656 17.5831 113.764 18.0875C113.893 18.6873 114.272 19.3841 114.846 19.869C115.391 20.3309 116.095 20.5916 116.969 20.425C117.71 20.2838 118.196 19.7248 118.364 19.044C118.471 18.6101 118.428 18.2476 118.312 17.9842C118.362 18.3232 118.272 18.6599 118.092 18.9299C117.85 19.2929 117.496 19.4771 117.219 19.564C116.928 19.6551 116.612 19.6765 116.309 19.6287C115.688 19.5306 114.945 19.0839 114.789 18.1453C114.706 17.649 114.857 17.1666 115.034 16.8166C115.224 16.4389 115.517 16.0644 115.904 15.7714C116.297 15.474 116.805 15.2476 117.4 15.2186C118.002 15.1894 118.61 15.3653 119.189 15.7375C120.541 16.6068 120.827 18.2641 120.505 19.5714C120.17 20.9283 119.121 22.2592 117.382 22.5905C115.775 22.8965 114.411 22.3894 113.422 21.5519C112.459 20.7375 111.835 19.6034 111.609 18.5494C111.362 17.4 111.657 15.8572 112.389 14.5474C113.141 13.2 114.447 11.9372 116.376 11.5662C118.18 11.2192 120.487 11.5619 122.351 12.8106C124.273 14.0978 125.668 16.3122 125.601 19.5227C125.465 26.0451 119.238 29.8761 112.867 28.8567C109.488 28.3161 106.73 25.8792 105.039 22.8924C103.345 19.9009 102.618 16.1844 103.468 12.8487C105.114 6.38968 111.495 0.206411 119.892 0.206411C124.513 0.20641 128.13 1.12439 131.147 3.05243C134.15 4.97225 136.454 7.82709 138.567 11.5093C140.364 14.6422 140.757 18.2653 140.649 21.3506C140.54 24.4489 139.954 26.8469 139.633 28.1326L137.428 27.2509C137.737 26.0166 138.345 24.1413 138.446 21.2733C138.547 18.3923 138.165 15.238 136.655 12.6064C134.633 9.08312 132.547 6.56335 129.959 4.90994C127.385 3.26474 124.21 2.41087 119.892 2.41087C112.609 2.41087 107.029 7.8037 105.604 13.3932C104.919 16.0818 105.491 19.2165 106.957 21.8064ZM116.126 18.0856C116.125 18.0932 116.124 18.1009 116.124 18.1087C116.11 18.2919 116.152 18.466 116.231 18.6099C116.375 18.8768 116.597 18.9784 116.723 19.0127C116.861 19.0505 117.049 19.0552 117.244 18.9601C117.415 18.8765 117.535 18.7427 117.604 18.604C117.626 18.5585 117.643 18.5126 117.654 18.4677L116.126 18.0856Z" fill="#CCBA79"/>
<path d="M116.65 19.3352C117.228 19.42 117.764 19.0251 117.848 18.4531C117.932 17.8811 117.532 17.3487 116.954 17.2639C116.376 17.1791 115.84 17.574 115.756 18.146C115.672 18.718 116.072 19.2504 116.65 19.3352Z" fill="#CCBA79"/>
<path d="M132.519 18.1661C133.069 18.1661 133.515 17.7247 133.515 17.1801C133.515 16.6355 133.069 16.1941 132.519 16.1941C131.969 16.1941 131.523 16.6355 131.523 17.1801C131.523 17.7247 131.969 18.1661 132.519 18.1661Z" fill="#68A4FF"/>
<path fill-rule="evenodd" clip-rule="evenodd" d="M133.57 13.9946L129.382 16.4197L129.161 16.0381L133.35 13.6131L133.57 13.9946Z" fill="#68A4FF"/>
<path d="M133.843 14.6562C134.261 14.4327 134.421 13.916 134.199 13.5022C133.978 13.0884 133.46 12.9342 133.042 13.1577C132.624 13.3813 132.464 13.898 132.686 14.3118C132.907 14.7256 133.425 14.8798 133.843 14.6562Z" fill="#68A4FF"/>
<path d="M129.642 16.9075C130.06 16.6839 130.219 16.1672 129.998 15.7534C129.777 15.3396 129.259 15.1854 128.84 15.409C128.422 15.6325 128.263 16.1492 128.484 16.563C128.705 16.9768 129.224 17.131 129.642 16.9075Z" fill="#68A4FF"/>
<path fill-rule="evenodd" clip-rule="evenodd" d="M133.587 10.8973L126.753 15.7471L126.498 15.3875L133.332 10.5378L133.587 10.8973Z" fill="#68A4FF"/>
<path d="M133.973 11.2934C134.38 11.0033 134.477 10.442 134.189 10.0397C133.902 9.63745 133.34 9.54648 132.934 9.83657C132.527 10.1267 132.431 10.6879 132.718 11.0902C133.005 11.4925 133.567 11.5835 133.973 11.2934Z" fill="#68A4FF"/>
<path d="M127.404 15.9926C127.81 15.7025 127.907 15.1413 127.62 14.739C127.333 14.3367 126.77 14.2457 126.364 14.5358C125.957 14.8259 125.861 15.3872 126.148 15.7895C126.435 16.1918 126.997 16.2827 127.404 15.9926Z" fill="#68A4FF"/>
<path fill-rule="evenodd" clip-rule="evenodd" d="M132.941 7.57949L124.343 14.8542L124.059 14.5176L132.656 7.24292L132.941 7.57949Z" fill="#68A4FF"/>
<path d="M133.133 8.37645C133.579 7.99903 133.637 7.33543 133.263 6.89424C132.89 6.45306 132.226 6.40137 131.78 6.77878C131.334 7.1562 131.276 7.81981 131.649 8.26099C132.023 8.70218 132.687 8.75387 133.133 8.37645Z" fill="#68A4FF"/>
<path d="M125.034 15.2483C125.48 14.8709 125.538 14.2073 125.165 13.7661C124.791 13.3249 124.127 13.2732 123.681 13.6506C123.235 14.028 123.177 14.6916 123.55 15.1328C123.924 15.574 124.588 15.6257 125.034 15.2483Z" fill="#68A4FF"/>
<path d="M128.643 4.62048C129.036 4.18864 129.009 3.52304 128.581 3.13382C128.154 2.7446 127.488 2.77916 127.095 3.211C126.702 3.64284 126.73 4.30844 127.157 4.69766C127.585 5.08688 128.25 5.05232 128.643 4.62048Z" fill="#68A4FF"/>
<path d="M121.5 12.4808C121.893 12.049 121.866 11.3834 121.438 10.9942C121.011 10.605 120.345 10.6395 119.952 11.0714C119.559 11.5032 119.587 12.1688 120.014 12.558C120.442 12.9472 121.107 12.9127 121.5 12.4808Z" fill="#68A4FF"/>
<path fill-rule="evenodd" clip-rule="evenodd" d="M130.964 5.58904L122.808 13.0844L122.509 12.7598L130.666 5.2644L130.964 5.58904Z" fill="#68A4FF"/>
<path d="M131.898 6.14699C132.333 5.75643 132.371 5.09137 131.985 4.66154C131.598 4.23171 130.933 4.19988 130.498 4.59044C130.064 4.981 130.026 5.64605 130.412 6.07588C130.799 6.50571 131.464 6.53755 131.898 6.14699Z" fill="#68A4FF"/>
<path d="M123.342 13.8215C123.776 13.431 123.815 12.7659 123.428 12.3361C123.042 11.9063 122.376 11.8744 121.942 12.265C121.508 12.6556 121.469 13.3206 121.856 13.7504C122.242 14.1803 122.908 14.2121 123.342 13.8215Z" fill="#68A4FF"/>
<path fill-rule="evenodd" clip-rule="evenodd" d="M138.497 27.6893L125.711 25.7053L125.778 25.2696L138.564 27.2536L138.497 27.6893Z" fill="#68A4FF"/>
<path d="M125.265 26.6088C125.897 26.715 126.494 26.2944 126.599 25.6694C126.704 25.0443 126.277 24.4515 125.646 24.3454C125.014 24.2392 124.417 24.6598 124.312 25.2848C124.207 25.9099 124.634 26.5026 125.265 26.6088Z" fill="#68A4FF"/>
<path d="M138.351 28.7951C138.983 28.9013 139.58 28.4807 139.685 27.8557C139.79 27.2306 139.363 26.6378 138.732 26.5316C138.1 26.4254 137.503 26.8461 137.398 27.4711C137.293 28.0961 137.72 28.6889 138.351 28.7951Z" fill="#68A4FF"/>
<path fill-rule="evenodd" clip-rule="evenodd" d="M135.431 19.78L130.591 19.7157L130.597 19.2749L135.437 19.3391L135.431 19.78Z" fill="#68A4FF"/>
<path d="M130.444 20.3563C130.918 20.3563 131.302 19.9759 131.302 19.5066C131.302 19.0374 130.918 18.657 130.444 18.657C129.97 18.657 129.585 19.0374 129.585 19.5066C129.585 19.9759 129.97 20.3563 130.444 20.3563Z" fill="#68A4FF"/>
<path d="M135.21 20.3514C135.684 20.3514 136.069 19.971 136.069 19.5018C136.069 19.0325 135.684 18.6521 135.21 18.6521C134.736 18.6521 134.352 19.0325 134.352 19.5018C134.352 19.971 134.736 20.3514 135.21 20.3514Z" fill="#68A4FF"/>
<path opacity="0.8" d="M136.902 21.6998L127.683 20.8608L127.654 21.1834L136.873 22.0223L136.902 21.6998Z" fill="#68A4FF"/>
<path fill-rule="evenodd" clip-rule="evenodd" d="M136.394 22.1609L128.056 21.3174L128.101 20.8788L136.438 21.7222L136.394 22.1609Z" fill="#68A4FF"/>
<path d="M128.185 21.9997C128.682 22.0449 129.122 21.6826 129.166 21.1904C129.211 20.6982 128.844 20.2624 128.347 20.2172C127.85 20.1719 127.41 20.5343 127.366 21.0265C127.321 21.5187 127.688 21.9544 128.185 21.9997Z" fill="#68A4FF"/>
<path d="M136.229 22.7238C136.726 22.7691 137.166 22.4067 137.211 21.9145C137.255 21.4223 136.889 20.9866 136.391 20.9413C135.894 20.8961 135.455 21.2584 135.41 21.7506C135.365 22.2428 135.732 22.6786 136.229 22.7238Z" fill="#68A4FF"/>
<path fill-rule="evenodd" clip-rule="evenodd" d="M136.953 24.8235L127.033 23.2805L127.101 22.8449L137.021 24.3879L136.953 24.8235Z" fill="#68A4FF"/>
<path d="M126.67 24.0823C127.248 24.1671 127.784 23.7722 127.868 23.2002C127.952 22.6282 127.552 22.0958 126.974 22.011C126.396 21.9262 125.86 22.3211 125.776 22.8931C125.692 23.4651 126.092 23.9975 126.67 24.0823Z" fill="#68A4FF"/>
<path d="M137.18 25.614C137.758 25.6988 138.294 25.3039 138.378 24.7319C138.462 24.1599 138.062 23.6275 137.484 23.5427C136.906 23.4579 136.37 23.8528 136.286 24.4248C136.202 24.9968 136.602 25.5292 137.18 25.614Z" fill="#68A4FF"/>
</svg>
