<svg width="419" height="380" viewBox="0 0 419 380" fill="none" xmlns="http://www.w3.org/2000/svg">
<g opacity="0.5">
<path fill-rule="evenodd" clip-rule="evenodd" d="M97.7231 90.7417L103.226 89.743C105.438 89.3416 108.752 88.3707 111.443 86.8278C114.252 85.2169 115.615 83.4544 115.615 81.6926C115.615 73.2568 118.5 36.952 166.692 12.9025L168.876 17.2627C122.849 40.2319 120.5 74.4554 120.5 81.6926C120.5 86.1999 117.065 89.2263 113.876 91.0547C112.356 91.9263 110.715 92.6337 109.133 93.1892L109.467 93.4391C111.287 93.1931 113.529 93.5417 115.561 95.1113C118.121 97.0885 119.927 100.673 120.488 106.265C121.055 111.933 125.46 118.932 131.844 124.985C138.184 130.996 145.949 135.57 152.518 136.762L151.644 141.558C143.818 140.138 135.226 134.916 128.48 128.519C121.778 122.165 116.368 114.144 115.627 106.751C115.141 101.895 113.676 99.8192 112.572 98.9667C111.477 98.121 110.324 98.154 109.67 98.3718L108.456 98.7756L97.7231 90.7417Z" fill="#68A4FF"/>
<path fill-rule="evenodd" clip-rule="evenodd" d="M144.708 74.4612L150.245 75.2496C152.47 75.5665 155.922 75.6907 158.963 75.0756C162.139 74.4334 163.99 73.1911 164.548 71.5196C167.219 63.5162 181.452 29.9822 234.789 22.3664L235.48 27.1922C184.54 34.4658 171.474 66.1941 169.182 73.0603C167.755 77.3366 163.538 79.1244 159.934 79.8534C158.216 80.2009 156.434 80.3541 154.758 80.3824L154.995 80.7248C156.8 81.0654 158.816 82.1033 160.247 84.2334C162.05 86.9169 162.629 90.8869 161.39 96.37C160.134 101.926 162.096 109.956 166.237 117.712C170.348 125.415 176.267 132.204 182.122 135.407L179.774 139.681C172.799 135.865 166.301 128.201 161.926 120.004C157.579 111.861 154.987 102.545 156.625 95.2972C157.701 90.5369 156.968 88.1054 156.191 86.9483C155.42 85.8007 154.316 85.4684 153.626 85.4685L152.346 85.4688L144.708 74.4612Z" fill="#68A4FF"/>
<path fill-rule="evenodd" clip-rule="evenodd" d="M257.072 53.7674C244.591 58.1576 229.848 65.8633 220.013 79.1264C211.934 90.0209 206.538 103.145 203.157 113.632C201.472 118.859 200.299 123.396 199.548 126.621C199.172 128.233 198.903 129.515 198.728 130.39C198.641 130.827 198.577 131.163 198.536 131.386L198.49 131.636L198.479 131.696L198.477 131.71C198.477 131.709 198.477 131.712 196.07 131.299C193.663 130.886 193.663 130.886 193.663 130.885L193.665 130.877L193.668 130.856L193.681 130.781L193.733 130.499C193.778 130.254 193.846 129.897 193.938 129.437C194.122 128.516 194.402 127.183 194.79 125.518C195.566 122.187 196.774 117.517 198.508 112.139C201.966 101.412 207.56 87.7249 216.087 76.2263C226.745 61.8535 242.527 53.7149 255.449 49.1697C261.933 46.8888 267.761 45.4905 271.971 44.6614C274.078 44.2465 275.785 43.9733 276.972 43.8031C277.565 43.718 278.029 43.6586 278.348 43.6201C278.508 43.6008 278.632 43.5868 278.717 43.5774L278.817 43.5666L278.845 43.5637L278.854 43.5629C278.855 43.5627 278.858 43.5624 279.102 45.9877C279.345 48.413 279.346 48.413 279.346 48.4129L279.327 48.4148L279.252 48.4229C279.183 48.4305 279.077 48.4426 278.934 48.4598C278.649 48.4941 278.222 48.5488 277.666 48.6285C276.555 48.7879 274.933 49.0472 272.917 49.4441C268.882 50.2385 263.289 51.5806 257.072 53.7674Z" fill="#68A4FF"/>
<path fill-rule="evenodd" clip-rule="evenodd" d="M69.2973 128.494L69.9178 126.636C70.365 125.297 71.1788 124.061 71.8699 123.039C71.9786 122.878 72.0859 122.721 72.1918 122.565C72.8164 121.648 73.3901 120.805 73.8811 119.873C74.9379 117.867 75.5372 115.59 74.3237 112.324C72.8619 108.389 69.8646 98.3657 71.8848 84.3694C73.9083 70.3501 80.9391 52.5369 99.2398 33.0105L102.807 36.3407C85.1268 55.2048 78.5878 72.1181 76.7192 85.0645C74.8471 98.0341 77.6352 107.216 78.9033 110.629C80.6974 115.458 79.7616 119.186 78.2042 122.142C77.5734 123.339 76.8266 124.434 76.2074 125.341C76.1072 125.488 76.0103 125.63 75.9178 125.767C75.7436 126.024 75.5861 126.262 75.4444 126.482L76.5296 127.13C77.7128 126.454 79.2225 125.91 80.919 126.062C83.6407 126.305 85.876 128.216 87.5146 131.561C90.0355 136.707 96.6144 141.933 104.684 145.583C112.71 149.214 121.54 150.977 128.077 149.822L128.929 154.622C121.06 156.013 111.187 153.877 102.668 150.024C94.1917 146.19 86.3826 140.348 83.1267 133.702C81.9051 131.209 80.862 130.951 80.4829 130.917C79.8816 130.863 79.0522 131.191 78.1431 131.92L76.8186 132.982L69.2973 128.494Z" fill="#68A4FF"/>
<path fill-rule="evenodd" clip-rule="evenodd" d="M54.6071 171.794L54.1611 169.707C53.759 167.825 53.8115 165.959 53.9578 164.258C54.0212 163.521 54.1063 162.778 54.1873 162.07C54.1998 161.961 54.2122 161.852 54.2244 161.745C54.3176 160.925 54.4018 160.146 54.4533 159.377C54.6546 156.374 54.3444 153.771 52.0969 151.216C50.1005 148.945 47.7258 144.641 45.5547 139.348C43.3544 133.983 41.2708 127.376 39.951 120.343C37.3398 106.429 37.5983 90.155 46.8025 78.8485L50.5933 81.9225C42.7858 91.5133 42.2158 105.932 44.7518 119.446C46.0056 126.127 47.9895 132.417 50.0749 137.501C52.1894 142.656 54.3183 146.352 55.7677 148C59.2265 151.933 59.5706 156.064 59.3267 159.703C59.267 160.594 59.1712 161.47 59.0775 162.295C59.0647 162.408 59.0519 162.519 59.0392 162.63C58.9577 163.343 58.8812 164.012 58.8242 164.675C58.7658 165.354 58.732 165.987 58.7343 166.584L59.5647 166.52C59.6325 166.197 59.7175 165.878 59.8219 165.567C60.1609 164.559 60.7893 163.403 61.9511 162.659C63.2112 161.852 64.6738 161.796 66.0611 162.253C67.369 162.683 68.675 163.578 69.9929 164.805C74.2763 168.794 81.2279 171.297 88.8159 172.432C96.3525 173.56 104.112 173.277 109.672 172.044L110.732 176.803C104.514 178.182 96.1443 178.458 88.0917 177.253C80.0905 176.056 71.9933 173.335 66.6609 168.369C65.6109 167.392 64.913 167.011 64.5441 166.887C64.5167 166.944 64.4852 167.02 64.4522 167.119C64.317 167.521 64.2264 168.099 64.2264 168.793L64.2264 171.048L54.6071 171.794Z" fill="#68A4FF"/>
<path fill-rule="evenodd" clip-rule="evenodd" d="M57.4948 212.611L56.8581 210.851C56.3449 209.433 56.1761 207.966 56.0501 206.772C56.0389 206.666 56.0281 206.562 56.0174 206.46C55.8985 205.323 55.8046 204.425 55.5742 203.583C55.3421 202.735 54.996 202.06 54.408 201.481C53.8044 200.886 52.7935 200.242 50.9963 199.724C47.9492 198.846 44.1026 196.299 40.2193 192.852C36.2634 189.342 32.0306 184.683 28.2267 179.272C20.6618 168.511 14.5445 154.406 16.1625 140.192L21.0155 140.742C19.5881 153.282 24.9951 166.188 32.225 176.472C35.8184 181.584 39.8005 185.957 43.4649 189.209C47.2018 192.526 50.3807 194.472 52.3519 195.041C54.7099 195.721 56.5114 196.703 57.8392 198.011C59.1826 199.335 59.8869 200.84 60.286 202.299C60.5552 203.283 60.6954 204.298 60.7964 205.205C60.8632 204.992 60.9446 204.779 61.0437 204.569C61.6239 203.336 62.6802 202.448 64.1307 202.049C65.4435 201.689 66.9987 201.746 68.7555 202.068C74.7779 203.171 82.2493 202.575 89.0408 200.717C95.9013 198.841 101.586 195.812 104.388 192.456L108.14 195.577C104.399 200.057 97.5762 203.438 90.3316 205.419C83.0178 207.419 74.7861 208.129 67.8735 206.862C66.4414 206.6 65.7273 206.669 65.4356 206.747C65.4299 206.775 65.424 206.809 65.4184 206.849C65.3969 207.006 65.3865 207.214 65.3924 207.496C65.3983 207.778 65.4191 208.083 65.4462 208.444C65.4492 208.484 65.4524 208.526 65.4556 208.568C65.4794 208.881 65.5067 209.241 65.5209 209.59L65.6155 211.919L57.4948 212.611Z" fill="#68A4FF"/>
<path fill-rule="evenodd" clip-rule="evenodd" d="M71.7661 243.563L70.4621 242.219C69.5279 241.257 68.8601 240.135 68.3417 239.247C68.2968 239.17 68.2528 239.094 68.2098 239.021C67.7112 238.165 67.3356 237.521 66.8774 236.966C66.4256 236.419 65.9648 236.056 65.3716 235.836C64.7579 235.608 63.8019 235.459 62.255 235.679C59.4836 236.073 55.5168 235.413 51.2519 234.077C46.8944 232.713 41.9176 230.545 37.0131 227.636C27.2683 221.857 17.4311 212.917 13.6491 201.12L18.3011 199.635C21.5687 209.827 30.2649 217.963 39.5082 223.446C44.0977 226.168 48.7288 228.178 52.714 229.426C56.792 230.703 59.9031 231.089 61.5659 230.853C63.6907 230.551 65.507 230.685 67.0744 231.267C68.6624 231.857 69.7914 232.83 70.6465 233.865C71.1823 234.514 71.6367 235.225 72.0226 235.871C72.0652 235.568 72.1401 235.256 72.2566 234.94C73.0759 232.719 75.4016 231.587 78.2043 230.899C83.5981 229.575 89.9278 227.654 95.6715 224.674C101.424 221.689 106.413 217.732 109.368 212.424L113.637 214.791C110.049 221.238 104.156 225.765 97.9245 228.999C91.684 232.237 84.9277 234.268 79.3711 235.633C78.1516 235.932 77.4575 236.239 77.0857 236.472C76.9851 236.535 76.9178 236.587 76.8743 236.624C76.8785 236.645 76.884 236.669 76.8913 236.698C76.9558 236.949 77.0968 237.282 77.3532 237.795L78.397 239.88L71.7661 243.563Z" fill="#68A4FF"/>
<path fill-rule="evenodd" clip-rule="evenodd" d="M98.8896 268.886L97.2043 268.067C95.9969 267.48 94.9855 266.653 94.1946 265.995C94.126 265.938 94.059 265.882 93.9933 265.828C93.232 265.193 92.6586 264.716 92.0382 264.35C91.4264 263.99 90.8692 263.806 90.2363 263.801C89.5816 263.796 88.6319 263.982 87.2533 264.716C84.8828 265.977 81.1891 266.918 76.9373 267.395C72.6248 267.88 67.5235 267.912 62.2233 267.216C51.6731 265.829 39.9797 261.499 32.3657 251.668L36.2301 248.686C42.7632 257.122 53.0207 261.09 62.8607 262.382C67.7557 263.025 72.4593 262.993 76.391 262.551C80.3835 262.102 83.3732 261.256 84.9549 260.414C86.8487 259.406 88.6019 258.914 90.2742 258.927C91.9684 258.94 93.3626 259.47 94.5204 260.152C95.2459 260.579 95.9161 261.092 96.4997 261.568C96.4361 261.268 96.3999 260.95 96.4014 260.613C96.4117 258.246 98.2108 256.39 100.61 254.789C109.496 248.856 116.244 240.111 118.253 227.589L123.076 228.359C120.825 242.393 113.186 252.257 103.325 258.841C102.282 259.538 101.734 260.062 101.464 260.408C101.391 260.502 101.346 260.573 101.318 260.623C101.329 260.641 101.342 260.662 101.359 260.686C101.505 260.9 101.752 261.166 102.168 261.56L103.862 263.164L98.8896 268.886Z" fill="#68A4FF"/>
<path fill-rule="evenodd" clip-rule="evenodd" d="M129.678 276.545L127.805 276.493C126.462 276.456 125.199 276.119 124.207 275.846C124.121 275.822 124.036 275.799 123.954 275.776C122.998 275.512 122.278 275.313 121.562 275.236C120.856 275.159 120.273 275.222 119.694 275.478C119.095 275.743 118.307 276.303 117.355 277.539C115.725 279.655 112.84 281.99 109.275 284.121C105.664 286.28 101.188 288.329 96.2279 289.795C86.3409 292.717 74.2442 293.395 63.2724 287.591L65.5598 283.284C75.0272 288.292 85.7017 287.822 94.8411 285.121C99.3945 283.775 103.495 281.894 106.765 279.939C110.082 277.957 112.383 275.995 113.483 274.568C114.791 272.869 116.184 271.699 117.713 271.022C119.262 270.336 120.751 270.245 122.087 270.389C122.925 270.479 123.747 270.671 124.476 270.864C124.294 270.617 124.129 270.342 123.992 270.035C123.022 267.874 123.894 265.443 125.417 262.996C128.249 258.445 130.369 253.212 131.462 248.372C132.574 243.446 132.541 239.299 131.504 236.712L136.039 234.901C137.619 238.844 137.421 244.154 136.227 249.444C135.013 254.819 132.683 260.558 129.566 265.568C128.903 266.633 128.621 267.336 128.518 267.762C128.491 267.878 128.478 267.961 128.474 268.018C128.491 268.03 128.512 268.044 128.537 268.059C128.759 268.194 129.094 268.334 129.636 268.522L131.842 269.285L129.678 276.545Z" fill="#68A4FF"/>
<path fill-rule="evenodd" clip-rule="evenodd" d="M159.733 278.099L157.923 278.584C156.626 278.931 155.319 278.968 154.29 278.989C154.2 278.991 154.113 278.993 154.027 278.995C153.036 279.014 152.289 279.028 151.581 279.159C150.882 279.287 150.341 279.513 149.86 279.923C149.362 280.348 148.767 281.109 148.208 282.566C147.228 285.12 144.999 288.111 142.066 291.024C139.085 293.984 135.209 297.028 130.712 299.647C121.749 304.867 110.061 308.538 97.9475 306.116L98.9068 301.336C109.475 303.449 119.935 300.279 128.251 295.436C132.394 293.024 135.939 290.231 138.621 287.568C141.35 284.859 143.025 282.442 143.647 280.822C144.414 278.821 145.415 277.302 146.686 276.218C147.974 275.119 149.375 274.607 150.697 274.364C151.525 274.212 152.368 274.161 153.121 274.138C152.877 273.954 152.64 273.737 152.42 273.482C150.873 271.688 151.012 269.109 151.771 266.33C153.145 261.3 153.149 256.048 152.26 251.51C151.359 246.915 149.6 243.333 147.726 241.443L151.198 238.014C153.99 240.83 156.046 245.44 157.053 250.574C158.071 255.767 158.076 261.783 156.484 267.612C156.153 268.821 156.085 269.576 156.108 270.013C156.115 270.132 156.127 270.215 156.138 270.272C156.159 270.278 156.183 270.285 156.211 270.292C156.462 270.358 156.823 270.397 157.396 270.423L159.73 270.525L159.733 278.099Z" fill="#68A4FF"/>
<path fill-rule="evenodd" clip-rule="evenodd" d="M184.596 265.42L183.138 266.595C182.094 267.438 180.914 268.001 179.982 268.437C179.901 268.475 179.822 268.511 179.744 268.548C178.846 268.967 178.169 269.282 177.575 269.688C176.988 270.088 176.585 270.514 176.312 271.084C176.03 271.673 175.795 272.61 175.876 274.168C176.017 276.888 175.265 280.216 173.889 283.647C172.497 287.12 170.395 290.872 167.651 294.483C162.177 301.689 154.003 308.518 143.533 311.304L142.275 306.594C151.434 304.156 158.758 298.121 163.759 291.538C166.254 288.254 168.133 284.881 169.355 281.835C170.594 278.747 171.089 276.164 170.998 274.42C170.887 272.281 171.184 270.487 171.905 268.981C172.636 267.456 173.709 266.42 174.818 265.663C175.514 265.189 176.264 264.801 176.943 264.475C176.644 264.406 176.34 264.303 176.035 264.159C173.892 263.146 172.971 260.732 172.536 257.885C171.753 252.766 169.483 248.027 166.952 244.585C165.688 242.866 164.404 241.534 163.281 240.658C162.066 239.71 161.368 239.551 161.223 239.551L161.223 234.676C163.041 234.676 164.828 235.677 166.288 236.816C167.841 238.028 169.425 239.71 170.889 241.701C173.815 245.678 176.445 251.141 177.364 257.149C177.554 258.388 177.797 259.105 177.997 259.496C178.051 259.602 178.096 259.673 178.129 259.72C178.151 259.717 178.175 259.714 178.204 259.709C178.461 259.668 178.806 259.558 179.34 259.349L181.515 258.498L184.596 265.42Z" fill="#68A4FF"/>
<path fill-rule="evenodd" clip-rule="evenodd" d="M201.775 248.882L200.88 250.526C200.238 251.703 199.365 252.675 198.671 253.434C198.611 253.5 198.552 253.564 198.494 253.627C197.825 254.357 197.321 254.908 196.928 255.51C196.539 256.104 196.33 256.651 196.297 257.282C196.263 257.934 196.406 258.889 197.078 260.297C199.364 265.083 199.44 272.305 197.023 279.732C194.576 287.253 189.494 295.268 181.026 301.743L178.056 297.873C185.714 292.017 190.227 284.836 192.378 278.226C194.559 271.523 194.239 265.68 192.669 262.395C191.745 260.462 191.331 258.691 191.42 257.025C191.509 255.336 192.102 253.97 192.837 252.846C193.297 252.142 193.841 251.497 194.343 250.936C194.041 250.986 193.72 251.008 193.384 250.991C191.015 250.875 189.238 248.997 187.743 246.533C184.916 241.874 181.765 238.038 178.971 235.585C177.568 234.353 176.343 233.549 175.372 233.132C174.36 232.698 173.967 232.823 173.934 232.837L172.063 228.334C173.842 227.597 175.73 227.979 177.301 228.654C178.914 229.346 180.576 230.501 182.197 231.925C185.453 234.783 188.906 239.04 191.921 244.008C192.571 245.08 193.072 245.649 193.406 245.934C193.496 246.011 193.565 246.06 193.614 246.09C193.633 246.08 193.655 246.067 193.68 246.052C193.901 245.915 194.177 245.681 194.59 245.284L196.273 243.667L201.775 248.882Z" fill="#68A4FF"/>
<path fill-rule="evenodd" clip-rule="evenodd" d="M211.2 225.929L210.964 227.785C210.795 229.114 210.336 230.336 209.966 231.295C209.934 231.378 209.902 231.46 209.871 231.539C209.514 232.462 209.245 233.158 209.098 233.862C208.953 234.556 208.957 235.141 209.156 235.741C209.362 236.362 209.843 237.2 210.982 238.267C214.844 241.885 217.62 248.593 218.146 256.412C218.678 264.328 216.935 273.669 211.399 282.785L207.222 280.258C212.217 272.034 213.74 263.696 213.272 256.738C212.798 249.684 210.309 244.322 207.639 241.821C206.074 240.355 205.044 238.856 204.519 237.272C203.987 235.666 204.042 234.178 204.317 232.865C204.489 232.042 204.761 231.243 205.024 230.539C204.761 230.695 204.47 230.832 204.15 230.939C201.901 231.689 199.562 230.585 197.272 228.833C192.973 225.543 189.176 223.688 186.259 222.946C183.2 222.166 181.735 222.732 181.248 223.199L177.865 219.683C180.209 217.436 183.87 217.306 187.467 218.222C191.205 219.174 195.593 221.405 200.244 224.964C201.24 225.727 201.914 226.075 202.329 226.219C202.441 226.258 202.523 226.278 202.58 226.289C202.593 226.273 202.609 226.253 202.627 226.23C202.783 226.022 202.955 225.704 203.195 225.184L204.173 223.067L211.2 225.929Z" fill="#68A4FF"/>
<path fill-rule="evenodd" clip-rule="evenodd" d="M211.734 200.283L212.405 202.03C212.874 203.252 213.053 204.414 213.181 205.35C213.198 205.479 213.215 205.603 213.231 205.721C213.339 206.527 213.417 207.109 213.587 207.692C213.886 208.717 214.527 209.971 217.335 211.447C224.781 215.362 235.463 227.846 234.339 248.997L229.461 248.739C230.489 229.395 220.738 218.746 215.059 215.76C211.304 213.787 209.632 211.574 208.897 209.054C208.713 208.423 208.595 207.785 208.506 207.203C208.341 207.484 208.139 207.76 207.891 208.022C206.264 209.744 203.68 209.874 200.832 209.409C195.423 208.526 191.631 208.563 189.14 209.049C186.579 209.549 185.842 210.416 185.677 210.753L181.286 208.618C182.43 206.273 185 204.89 188.203 204.265C191.474 203.627 195.9 203.664 201.62 204.598C202.86 204.8 203.619 204.79 204.052 204.721C204.17 204.703 204.252 204.682 204.307 204.664C204.311 204.644 204.315 204.619 204.32 204.59C204.359 204.334 204.361 203.972 204.326 203.4L204.187 201.073L211.734 200.283Z" fill="#68A4FF"/>
<path fill-rule="evenodd" clip-rule="evenodd" d="M205.382 180.4L206.607 181.817C207.51 182.862 207.93 183.777 208.219 184.54C208.298 184.748 208.357 184.911 208.406 185.043C208.543 185.418 208.589 185.545 208.72 185.739C209.015 186.177 210.005 187.195 214.999 189.153C215.351 189.292 215.706 189.43 216.065 189.57C220.655 191.358 225.733 193.336 230.115 197.061C234.946 201.167 238.781 207.231 240.835 217.027L236.054 218.026C234.183 209.101 230.82 204.064 226.949 200.773C223.216 197.6 218.871 195.902 214.146 194.056C213.836 193.935 213.525 193.813 213.212 193.69C208.261 191.748 205.898 190.287 204.666 188.459C204.647 188.431 204.629 188.402 204.61 188.374C204.555 188.575 204.485 188.778 204.396 188.981C203.45 191.152 201.063 192.148 198.226 192.675C194.368 193.39 190.711 194.208 188.016 195.174C186.658 195.661 185.685 196.137 185.078 196.57C184.653 196.873 184.567 197.037 184.567 197.037C184.567 197.037 184.592 196.989 184.603 196.889L179.747 196.367C179.938 194.6 181.149 193.381 182.238 192.604C183.375 191.793 184.83 191.137 186.364 190.586C189.453 189.479 193.438 188.604 197.333 187.882C198.568 187.653 199.278 187.386 199.663 187.175C199.767 187.118 199.837 187.07 199.883 187.035C199.88 187.014 199.876 186.99 199.87 186.961C199.82 186.706 199.699 186.365 199.472 185.839L198.55 183.698L205.382 180.4Z" fill="#68A4FF"/>
<path fill-rule="evenodd" clip-rule="evenodd" d="M191.245 164.598L192.807 165.435C194.025 166.088 194.746 166.792 195.289 167.401C195.437 167.567 195.552 167.698 195.644 167.804C195.907 168.105 195.996 168.207 196.187 168.341C196.62 168.645 197.91 169.241 203.275 169.285C203.608 169.288 203.944 169.29 204.281 169.293C209.224 169.324 214.546 169.359 219.847 171.322C225.629 173.465 231.156 177.788 236.564 186.162L232.459 188.803C227.485 181.101 222.726 177.589 218.147 175.892C213.681 174.238 209.169 174.204 204.045 174.166C203.776 174.164 203.506 174.162 203.234 174.16C198.57 174.122 195.897 173.717 194.091 172.764C193.282 174.9 191.53 176.945 188.877 178.568C185.5 180.634 182.463 182.575 180.37 184.319C179.317 185.195 178.634 185.917 178.263 186.475C178.057 186.784 178.011 186.943 178.003 186.985C178.004 186.966 178.003 186.922 177.986 186.858L173.264 188.107C172.816 186.418 173.454 184.89 174.193 183.779C174.946 182.647 176.043 181.573 177.24 180.576C179.646 178.572 182.979 176.459 186.324 174.412C188.334 173.182 189.24 171.866 189.559 170.939C189.894 169.969 189.585 169.598 189.578 169.592L187.859 167.829L191.245 164.598Z" fill="#68A4FF"/>
<path fill-rule="evenodd" clip-rule="evenodd" d="M170.65 160.783L171.704 156.146L173.517 156.147L173.685 156.17C175.054 156.362 175.975 156.774 176.696 157.158C176.892 157.262 177.045 157.346 177.169 157.413C177.519 157.605 177.638 157.67 177.864 157.73C178.376 157.865 179.792 157.979 184.841 156.167C185.68 155.867 186.526 155.547 187.381 155.224C191.368 153.72 195.562 152.137 200.182 151.975C206.015 151.77 212.323 153.767 220.28 159.741L217.344 163.637C209.987 158.113 204.75 156.693 200.353 156.847C196.61 156.978 193.318 158.212 189.379 159.689C188.457 160.035 187.5 160.394 186.493 160.755C181.626 162.501 178.899 162.98 176.791 162.486C177.08 164.762 176.512 167.366 174.552 169.849C172.145 172.897 170.309 175.597 169.282 177.751C168.767 178.83 168.516 179.648 168.444 180.224C168.39 180.66 168.452 180.827 168.468 180.861C168.469 180.861 168.468 180.86 168.468 180.861L164.47 183.661C163.581 182.397 163.435 180.935 163.597 179.625C163.758 178.328 164.241 176.978 164.872 175.655C166.136 173.005 168.241 169.965 170.716 166.832C173.227 163.651 171.336 161.11 170.65 160.783ZM168.472 180.867C168.472 180.867 168.471 180.865 168.468 180.861L168.472 180.867Z" fill="#68A4FF"/>
<path fill-rule="evenodd" clip-rule="evenodd" d="M153.582 161.177L152.485 156.485C153.728 155.986 154.877 155.813 155.826 155.708C156.117 155.675 156.372 155.65 156.604 155.627C157.199 155.569 157.639 155.525 158.121 155.418C158.685 155.292 159.19 155.093 159.725 154.688C160.286 154.265 160.978 153.542 161.789 152.237C162.969 150.34 164.971 148.554 167.201 147.013C169.473 145.443 172.169 143.999 174.939 142.843C177.705 141.689 180.615 140.793 183.321 140.362C185.964 139.942 188.706 139.917 190.943 140.811L189.129 145.337C188.095 144.924 186.391 144.81 184.09 145.176C181.853 145.532 179.321 146.298 176.823 147.34C174.329 148.381 171.94 149.668 169.981 151.021C167.98 152.404 166.606 153.736 165.94 154.807C164.905 156.471 163.835 157.698 162.673 158.576C161.776 159.253 160.885 159.677 160.018 159.952C161.22 161.728 161.881 164.114 161.452 167.025C160.887 170.864 160.642 174.118 160.826 176.496C160.918 177.688 161.109 178.522 161.334 179.057C161.505 179.462 161.642 179.577 161.673 179.597C161.672 179.597 161.672 179.597 161.671 179.596L159.604 184.013C158.202 183.359 157.345 182.165 156.832 180.948C156.324 179.743 156.069 178.332 155.956 176.872C155.73 173.945 156.038 170.263 156.62 166.315C157.208 162.325 154.356 161.118 153.582 161.177ZM161.68 179.601C161.679 179.601 161.677 179.6 161.673 179.597L161.68 179.601Z" fill="#68A4FF"/>
<path fill-rule="evenodd" clip-rule="evenodd" d="M136.261 170.164L132.643 166.975C133.366 165.85 134.201 165.044 134.913 164.409C135.132 164.214 135.325 164.046 135.501 163.893C135.951 163.501 136.285 163.211 136.616 162.845C137.002 162.416 137.298 161.962 137.499 161.322C137.71 160.653 137.854 159.664 137.757 158.131C137.498 154.03 138.95 149.254 141.296 145.327C143.619 141.436 147.149 137.84 151.484 136.791L152.635 141.529C150.121 142.137 147.498 144.462 145.491 147.823C143.506 151.146 142.45 154.951 142.632 157.824C142.755 159.778 142.596 161.397 142.158 162.784C141.821 163.855 141.341 164.717 140.795 165.442C142.806 166.194 144.73 167.756 146.071 170.375C147.84 173.831 149.53 176.624 151.061 178.456C151.829 179.373 152.469 179.943 152.963 180.248C153.337 180.479 153.516 180.493 153.553 180.493C153.552 180.493 153.551 180.493 153.551 180.493L154.431 185.288C152.909 185.566 151.518 185.088 150.393 184.393C149.279 183.705 148.252 182.704 147.311 181.579C145.427 179.325 143.54 176.146 141.721 172.593C139.883 169.002 136.858 169.668 136.261 170.164ZM153.56 180.492C153.56 180.492 153.558 180.492 153.553 180.493L153.56 180.492Z" fill="#68A4FF"/>
<path fill-rule="evenodd" clip-rule="evenodd" d="M127.564 187.394L122.759 186.93C122.683 185.596 122.886 184.454 123.09 183.523C123.152 183.237 123.21 182.988 123.262 182.761C123.397 182.18 123.496 181.75 123.549 181.259C123.61 180.686 123.582 180.145 123.369 179.509C123.147 178.844 122.682 177.958 121.702 176.774C116.525 170.511 116.353 160.295 121.728 154.005L125.444 157.168C121.674 161.581 121.734 169.153 125.47 173.671C126.718 175.181 127.54 176.585 128.002 177.965C128.358 179.03 128.476 180.009 128.46 180.916C130.53 180.348 133.007 180.485 135.632 181.822C139.119 183.596 141.784 184.716 143.742 185.167C145.781 185.636 146.273 185.217 146.377 185.108L149.909 188.475C147.949 190.523 145.143 190.492 142.644 189.917C140.065 189.323 136.951 187.965 133.413 186.164C129.814 184.332 127.756 186.643 127.564 187.394Z" fill="#68A4FF"/>
<path fill-rule="evenodd" clip-rule="evenodd" d="M128.476 207.439L124.201 209.677C123.406 208.602 122.949 207.536 122.608 206.645C122.503 206.373 122.415 206.132 122.334 205.914C122.128 205.354 121.975 204.939 121.75 204.501C121.486 203.988 121.166 203.55 120.639 203.134C120.088 202.7 119.213 202.213 117.744 201.757C117.654 201.729 117.564 201.701 117.474 201.673C114.357 200.707 111.048 199.682 108.697 197.884C107.411 196.9 106.338 195.643 105.69 193.996C105.048 192.364 104.894 190.527 105.154 188.484L109.999 189.098C109.815 190.543 109.964 191.521 110.237 192.215C110.503 192.892 110.955 193.469 111.667 194.014C113.244 195.22 115.702 196.019 119.193 197.101C121.066 197.683 122.525 198.408 123.668 199.31C124.55 200.006 125.186 200.761 125.67 201.529C127.091 199.921 129.239 198.683 132.169 198.366C133.787 198.191 135.084 198.076 136.119 197.984C136.356 197.963 136.578 197.944 136.788 197.925C137.959 197.819 138.629 197.744 139.115 197.64C139.526 197.552 139.726 197.458 139.925 197.327C140.192 197.152 140.532 196.857 141.181 196.21L144.635 199.657C143.975 200.316 143.332 200.925 142.613 201.398C141.828 201.914 141.043 202.212 140.141 202.406C139.316 202.583 138.347 202.679 137.228 202.78C137.008 202.8 136.779 202.82 136.538 202.841C135.504 202.933 134.262 203.043 132.695 203.212C128.678 203.647 128.224 206.706 128.476 207.439Z" fill="#68A4FF"/>
<path fill-rule="evenodd" clip-rule="evenodd" d="M143.541 220.219L141.764 224.699C140.458 224.402 139.415 223.891 138.575 223.437C138.317 223.299 138.093 223.174 137.889 223.061C137.367 222.771 136.98 222.556 136.523 222.37C135.988 222.153 135.459 222.03 134.788 222.057C134.086 222.086 133.105 222.287 131.693 222.898C131.607 222.935 131.521 222.973 131.434 223.01C128.44 224.307 125.261 225.684 122.304 225.851C120.687 225.943 119.051 225.688 117.484 224.861C115.932 224.042 114.614 222.75 113.476 221.031L117.551 218.343C118.355 219.559 119.107 220.203 119.767 220.551C120.412 220.891 121.131 221.035 122.027 220.984C124.011 220.872 126.395 219.877 129.749 218.426C131.549 217.646 133.129 217.247 134.585 217.187C135.709 217.14 136.684 217.298 137.553 217.565C137.579 215.422 138.398 213.085 140.412 210.938C143.095 208.076 146.083 206.242 148.333 204.861C148.564 204.719 148.788 204.582 149.002 204.449C150.213 203.699 151.032 203.148 151.571 202.631C152.067 202.156 152.109 201.916 152.117 201.802L156.988 202.167C156.858 203.895 155.959 205.184 154.954 206.148C153.992 207.069 152.749 207.866 151.579 208.591C151.36 208.726 151.14 208.862 150.918 208.999C148.639 210.401 146.191 211.908 143.978 214.269C141.217 217.213 142.871 219.827 143.541 220.219Z" fill="#68A4FF"/>
<path fill-rule="evenodd" clip-rule="evenodd" d="M163.228 219.011L164.804 223.566C163.62 224.189 162.495 224.48 161.561 224.683C161.276 224.745 161.024 224.796 160.795 224.843C160.21 224.963 159.777 225.051 159.308 225.208C158.761 225.391 158.279 225.641 157.788 226.098C157.275 226.577 156.661 227.367 155.989 228.749C155.463 229.83 155.011 230.887 154.552 231.961C154.369 232.39 154.185 232.822 153.994 233.258C153.357 234.718 152.647 236.239 151.752 237.523C150.842 238.83 149.631 240.051 147.925 240.711C146.202 241.378 144.299 241.348 142.244 240.765L143.581 236.076C144.915 236.455 145.684 236.35 146.159 236.166C146.65 235.976 147.163 235.572 147.743 234.74C148.338 233.885 148.886 232.754 149.516 231.311C149.676 230.945 149.842 230.556 150.015 230.153C150.489 229.042 151.013 227.816 151.595 226.62C152.452 224.859 153.389 223.528 154.455 222.535C155.276 221.769 156.119 221.255 156.953 220.893C155.574 219.25 154.669 216.945 154.795 214.006C154.888 211.826 155.244 210.163 155.743 208.839C156.248 207.499 156.862 206.608 157.314 205.993C157.385 205.896 157.442 205.818 157.491 205.753C157.612 205.589 157.673 205.507 157.728 205.42C157.741 205.398 157.747 205.388 157.747 205.388C157.746 205.388 157.691 205.488 157.661 205.657C157.656 205.684 157.653 205.709 157.65 205.734L161.403 202.976C162.059 203.865 162.729 205.059 162.47 206.511C162.353 207.168 162.075 207.678 161.858 208.022C161.698 208.275 161.492 208.552 161.345 208.751C161.312 208.796 161.281 208.836 161.255 208.872C160.924 209.323 160.597 209.806 160.315 210.555C160.027 211.32 159.749 212.462 159.675 214.214C159.503 218.243 162.464 219.15 163.228 219.011Z" fill="#68A4FF"/>
<path fill-rule="evenodd" clip-rule="evenodd" d="M165.405 197.365L170.216 197.756C170.289 198.767 170.205 199.841 170.133 200.756L170.128 200.83C170.053 201.788 169.984 202.663 170.003 203.552C170.039 205.287 170.406 206.907 171.738 208.469C172.499 209.361 173.555 210.299 174.8 211.36C174.964 211.501 175.133 211.643 175.303 211.788C176.362 212.687 177.517 213.667 178.495 214.653C179.603 215.771 180.77 217.168 181.286 218.805C181.874 220.671 181.54 222.597 180.13 224.299L176.366 221.193C176.743 220.737 176.708 220.526 176.627 220.269C176.474 219.783 176.002 219.07 175.023 218.082C174.205 217.258 173.232 216.431 172.162 215.521C171.986 215.372 171.808 215.221 171.627 215.066C170.405 214.024 169.065 212.855 168.019 211.629C166.279 209.588 165.536 207.454 165.259 205.462C165.021 205.58 164.77 205.684 164.507 205.771C163.074 206.247 161.52 206.138 159.989 205.388C158.821 204.815 157.895 204.339 157.159 203.96C156.992 203.874 156.834 203.793 156.686 203.717C155.848 203.288 155.392 203.068 155.054 202.944C154.789 202.847 154.676 202.838 154.557 202.84C154.358 202.844 154.047 202.887 153.336 203.046L152.265 198.29C152.991 198.127 153.727 197.98 154.467 197.966C155.287 197.951 156.004 198.098 156.741 198.369C157.405 198.613 158.124 198.975 158.916 199.38C159.073 199.46 159.237 199.545 159.408 199.633C160.143 200.011 161.02 200.462 162.142 201.011C162.606 201.239 162.835 201.189 162.967 201.145C163.177 201.075 163.498 200.875 163.888 200.413C164.697 199.454 165.245 198.032 165.405 197.365Z" fill="#68A4FF"/>
<path fill-rule="evenodd" clip-rule="evenodd" d="M44.0981 241.72C60.3705 270.407 85.4314 291.136 113.426 295.606C173.703 305.232 225.11 269.226 226.222 215.961C226.79 188.767 215.414 172.11 201.047 162.507C186.042 152.477 167.099 149.736 153.06 152.43C140.413 154.858 131.324 163.098 125.592 173.342C119.628 184.002 118.312 195.024 119.509 200.6C120.933 207.232 125.138 214.936 131.487 220.298C137.535 225.405 145.325 228.287 155.012 226.446C163.224 224.885 168.61 218.704 170.468 211.177C171.652 206.379 171.171 202.371 169.885 199.458C170.449 203.207 169.451 206.929 167.457 209.914C164.776 213.928 160.852 215.965 157.78 216.926C154.559 217.934 151.06 218.17 147.704 217.641C140.823 216.556 132.591 211.617 130.858 201.239C129.942 195.752 131.618 190.418 133.572 186.548C135.68 182.372 138.931 178.232 143.217 174.991C147.566 171.703 153.19 169.2 159.791 168.88C166.455 168.556 173.189 170.502 179.603 174.617C194.583 184.228 197.748 202.553 194.18 217.008C190.477 232.01 178.851 246.727 159.582 250.39C141.788 253.773 126.677 248.165 115.713 238.906C105.05 229.901 98.1322 217.361 95.6301 205.707C92.9016 192.999 96.1669 175.94 104.27 161.458C112.606 146.56 127.072 132.597 148.448 128.494C168.432 124.659 193.981 128.448 214.636 142.254C235.928 156.486 251.379 180.971 250.638 216.469C249.133 288.587 180.149 330.946 109.568 319.675C72.1326 313.697 41.5784 286.753 22.846 253.728C4.08401 220.651 -3.97368 179.558 5.44588 142.676C23.6852 71.2587 94.3717 2.89096 187.395 2.89095C238.581 2.89095 278.653 13.041 312.073 34.3591C345.351 55.5863 370.869 87.152 394.274 127.866C414.188 162.506 418.539 202.566 417.339 236.68C416.133 270.938 409.644 297.452 406.083 311.668L381.662 301.918C385.08 288.272 391.817 267.537 392.932 235.825C394.053 203.97 389.819 169.093 373.092 139.997C350.697 101.04 327.582 73.1789 298.922 54.8974C270.404 36.7066 235.232 27.2654 187.395 27.2654C106.715 27.2654 44.8946 86.8933 29.1106 148.696C21.5185 178.424 27.8553 213.084 44.0981 241.72ZM145.668 200.579C145.659 200.663 145.652 200.749 145.645 200.835C145.491 202.86 145.966 204.785 146.831 206.377C148.436 209.328 150.893 210.451 152.285 210.83C153.819 211.248 155.898 211.3 158.055 210.248C159.949 209.325 161.283 207.845 162.041 206.311C162.289 205.808 162.476 205.3 162.6 204.804L145.668 200.579Z" fill="#CCBA79"/>
<path d="M151.49 214.397C157.892 215.334 163.835 210.968 164.765 204.643C165.695 198.319 161.259 192.432 154.858 191.494C148.456 190.557 142.513 194.923 141.583 201.248C140.653 207.572 145.089 213.459 151.49 214.397Z" fill="#CCBA79"/>
<path d="M327.29 201.469C333.385 201.469 338.325 196.588 338.325 190.567C338.325 184.546 333.385 179.665 327.29 179.665C321.195 179.665 316.254 184.546 316.254 190.567C316.254 196.588 321.195 201.469 327.29 201.469Z" fill="#68A4FF"/>
<path fill-rule="evenodd" clip-rule="evenodd" d="M338.974 155.345L292.571 182.159L290.124 177.94L336.527 151.127L338.974 155.345Z" fill="#68A4FF"/>
<path d="M341.996 162.661C346.627 160.189 348.395 154.476 345.943 149.901C343.492 145.325 337.75 143.62 333.119 146.092C328.488 148.564 326.721 154.276 329.172 158.852C331.623 163.427 337.365 165.133 341.996 162.661Z" fill="#68A4FF"/>
<path d="M295.472 187.552C300.103 185.081 301.871 179.368 299.419 174.792C296.968 170.217 291.226 168.512 286.595 170.983C281.964 173.455 280.197 179.168 282.648 183.743C285.099 188.319 290.841 190.024 295.472 187.552Z" fill="#68A4FF"/>
<path fill-rule="evenodd" clip-rule="evenodd" d="M339.123 121.098L263.415 174.721L260.588 170.746L336.296 117.122L339.123 121.098Z" fill="#68A4FF"/>
<path d="M343.413 125.478C347.915 122.271 348.987 116.065 345.806 111.616C342.625 107.168 336.396 106.162 331.894 109.37C327.391 112.577 326.32 118.783 329.501 123.232C332.682 127.68 338.91 128.686 343.413 125.478Z" fill="#68A4FF"/>
<path d="M270.615 177.437C275.117 174.229 276.188 168.023 273.007 163.575C269.827 159.127 263.598 158.121 259.095 161.329C254.593 164.536 253.522 170.742 256.703 175.19C259.883 179.638 266.112 180.644 270.615 177.437Z" fill="#68A4FF"/>
<path fill-rule="evenodd" clip-rule="evenodd" d="M331.968 84.4123L236.724 164.848L233.569 161.127L328.813 80.6909L331.968 84.4123Z" fill="#68A4FF"/>
<path d="M334.094 93.2245C339.031 89.0514 339.679 81.714 335.541 76.8359C331.402 71.9577 324.044 71.3862 319.107 75.5592C314.169 79.7323 313.521 87.0697 317.66 91.9479C321.798 96.826 329.156 97.3975 334.094 93.2245Z" fill="#68A4FF"/>
<path d="M244.372 169.205C249.31 165.032 249.958 157.695 245.819 152.817C241.68 147.939 234.323 147.367 229.385 151.54C224.447 155.713 223.799 163.051 227.938 167.929C232.076 172.807 239.434 173.378 244.372 169.205Z" fill="#68A4FF"/>
<path d="M284.369 51.6962C288.725 46.9214 288.417 39.5619 283.682 35.2584C278.947 30.9548 271.577 31.3369 267.22 36.1117C262.864 40.8866 263.172 48.246 267.907 52.5496C272.643 56.8531 280.013 56.471 284.369 51.6962Z" fill="#68A4FF"/>
<path d="M205.229 138.607C209.585 133.832 209.277 126.473 204.542 122.169C199.807 117.866 192.436 118.248 188.08 123.023C183.724 127.797 184.032 135.157 188.767 139.46C193.502 143.764 200.873 143.382 205.229 138.607Z" fill="#68A4FF"/>
<path fill-rule="evenodd" clip-rule="evenodd" d="M310.081 62.4061L219.721 145.282L216.416 141.692L306.776 58.8166L310.081 62.4061Z" fill="#68A4FF"/>
<path d="M320.419 68.5754C325.23 64.257 325.658 56.9035 321.375 52.1509C317.092 47.3983 309.721 47.0463 304.91 51.3647C300.1 55.6831 299.672 63.0366 303.954 67.7892C308.237 72.5417 315.609 72.8937 320.419 68.5754Z" fill="#68A4FF"/>
<path d="M225.643 153.432C230.454 149.114 230.882 141.76 226.599 137.008C222.317 132.255 214.945 131.903 210.134 136.221C205.324 140.54 204.896 147.893 209.178 152.646C213.461 157.398 220.833 157.75 225.643 153.432Z" fill="#68A4FF"/>
<path fill-rule="evenodd" clip-rule="evenodd" d="M393.531 306.761L251.879 284.825L252.628 280.008L394.28 301.944L393.531 306.761Z" fill="#68A4FF"/>
<path d="M246.953 294.82C253.948 295.994 260.563 291.343 261.728 284.432C262.892 277.521 258.165 270.967 251.17 269.793C244.174 268.618 237.559 273.269 236.395 280.18C235.231 287.091 239.957 293.645 246.953 294.82Z" fill="#68A4FF"/>
<path d="M391.91 318.993C398.906 320.167 405.521 315.516 406.685 308.605C407.85 301.694 403.123 295.14 396.127 293.966C389.132 292.792 382.517 297.442 381.352 304.353C380.188 311.264 384.915 317.819 391.91 318.993Z" fill="#68A4FF"/>
<path fill-rule="evenodd" clip-rule="evenodd" d="M359.549 219.312L305.932 218.602L305.997 213.727L359.614 214.437L359.549 219.312Z" fill="#68A4FF"/>
<path d="M304.301 225.686C309.553 225.686 313.811 221.48 313.811 216.292C313.811 211.103 309.553 206.897 304.301 206.897C299.049 206.897 294.792 211.103 294.792 216.292C294.792 221.48 299.049 225.686 304.301 225.686Z" fill="#68A4FF"/>
<path d="M357.112 225.632C362.364 225.632 366.622 221.426 366.622 216.238C366.622 211.049 362.364 206.843 357.112 206.843C351.86 206.843 347.603 211.049 347.603 216.238C347.603 221.426 351.86 225.632 357.112 225.632Z" fill="#68A4FF"/>
<path opacity="0.8" d="M375.849 240.539L273.72 231.263L273.395 234.829L375.524 244.105L375.849 240.539Z" fill="#68A4FF"/>
<path fill-rule="evenodd" clip-rule="evenodd" d="M370.222 245.634L277.853 236.309L278.345 231.459L370.713 240.784L370.222 245.634Z" fill="#68A4FF"/>
<path d="M279.3 243.855C284.809 244.356 289.677 240.349 290.173 234.907C290.669 229.464 286.606 224.647 281.097 224.146C275.588 223.646 270.72 227.652 270.224 233.095C269.727 238.537 273.791 243.355 279.3 243.855Z" fill="#68A4FF"/>
<path d="M368.4 251.862C373.909 252.362 378.777 248.356 379.273 242.913C379.769 237.471 375.705 232.653 370.197 232.153C364.688 231.653 359.819 235.659 359.323 241.102C358.827 246.544 362.891 251.362 368.4 251.862Z" fill="#68A4FF"/>
<path fill-rule="evenodd" clip-rule="evenodd" d="M376.433 275.079L266.535 258.017L267.286 253.2L377.183 270.262L376.433 275.079Z" fill="#68A4FF"/>
<path d="M262.532 266.882C268.934 267.82 274.877 263.453 275.807 257.129C276.737 250.805 272.301 244.918 265.9 243.98C259.498 243.042 253.555 247.409 252.625 253.733C251.695 260.058 256.131 265.945 262.532 266.882Z" fill="#68A4FF"/>
<path d="M378.96 283.819C385.361 284.756 391.305 280.39 392.235 274.065C393.165 267.741 388.729 261.854 382.327 260.916C375.926 259.979 369.982 264.345 369.053 270.67C368.123 276.994 372.558 282.881 378.96 283.819Z" fill="#68A4FF"/>
</g>
</svg>
